<?xml version="1.0" encoding="UTF-8"?>
<svg id="_圖層_1" data-name="圖層 1" xmlns="http://www.w3.org/2000/svg" xmlns:xlink="http://www.w3.org/1999/xlink" viewBox="0 0 1440 1827">
  <defs>
    <style>
      .cls-1 {
        fill: url(#_未命名漸層_18);
      }

      .cls-1, .cls-2, .cls-3, .cls-4, .cls-5, .cls-6, .cls-7, .cls-8, .cls-9, .cls-10, .cls-11, .cls-12, .cls-13, .cls-14, .cls-15, .cls-16, .cls-17, .cls-18, .cls-19, .cls-20, .cls-21, .cls-22, .cls-23, .cls-24, .cls-25, .cls-26, .cls-27, .cls-28, .cls-29, .cls-30, .cls-31, .cls-32, .cls-33, .cls-34, .cls-35, .cls-36, .cls-37, .cls-38, .cls-39, .cls-40, .cls-41, .cls-42, .cls-43, .cls-44, .cls-45, .cls-46, .cls-47, .cls-48, .cls-49, .cls-50, .cls-51, .cls-52, .cls-53, .cls-54, .cls-55, .cls-56, .cls-57, .cls-58, .cls-59, .cls-60, .cls-61, .cls-62, .cls-63, .cls-64, .cls-65, .cls-66, .cls-67, .cls-68, .cls-69, .cls-70, .cls-71, .cls-72, .cls-73, .cls-74, .cls-75, .cls-76, .cls-77, .cls-78, .cls-79, .cls-80, .cls-81, .cls-82, .cls-83, .cls-84, .cls-85, .cls-86, .cls-87, .cls-88, .cls-89, .cls-90, .cls-91, .cls-92, .cls-93, .cls-94, .cls-95, .cls-96, .cls-97, .cls-98, .cls-99, .cls-100, .cls-101, .cls-102, .cls-103, .cls-104, .cls-105, .cls-106, .cls-107, .cls-108, .cls-109, .cls-110, .cls-111, .cls-112, .cls-113, .cls-114, .cls-115, .cls-116, .cls-117, .cls-118, .cls-119, .cls-120, .cls-121, .cls-122, .cls-123, .cls-124, .cls-125, .cls-126, .cls-127, .cls-128, .cls-129, .cls-130, .cls-131, .cls-132, .cls-133, .cls-134, .cls-135, .cls-136, .cls-137, .cls-138, .cls-139, .cls-140 {
        stroke-width: 0px;
      }

      .cls-2 {
        fill: url(#_未命名漸層_18-5);
      }

      .cls-3 {
        fill: url(#_未命名漸層_18-3);
      }

      .cls-4 {
        fill: url(#_未命名漸層_18-2);
      }

      .cls-5 {
        fill: url(#_未命名漸層_18-4);
      }

      .cls-6 {
        fill: url(#_未命名漸層_18-6);
      }

      .cls-7 {
        fill: url(#_未命名漸層_18-8);
      }

      .cls-8 {
        fill: url(#_未命名漸層_18-9);
      }

      .cls-9 {
        fill: url(#_未命名漸層_18-7);
      }

      .cls-10 {
        fill: url(#_未命名漸層_18-133);
      }

      .cls-11 {
        fill: url(#_未命名漸層_18-139);
      }

      .cls-12 {
        fill: url(#_未命名漸層_18-132);
      }

      .cls-13 {
        fill: url(#_未命名漸層_18-134);
      }

      .cls-14 {
        fill: url(#_未命名漸層_18-135);
      }

      .cls-15 {
        fill: url(#_未命名漸層_18-137);
      }

      .cls-16 {
        fill: url(#_未命名漸層_18-138);
      }

      .cls-17 {
        fill: url(#_未命名漸層_18-136);
      }

      .cls-18 {
        fill: url(#_未命名漸層_18-140);
      }

      .cls-19 {
        fill: url(#_未命名漸層_18-121);
      }

      .cls-20 {
        fill: url(#_未命名漸層_18-120);
      }

      .cls-21 {
        fill: url(#_未命名漸層_18-122);
      }

      .cls-22 {
        fill: url(#_未命名漸層_18-127);
      }

      .cls-23 {
        fill: url(#_未命名漸層_18-129);
      }

      .cls-24 {
        fill: url(#_未命名漸層_18-126);
      }

      .cls-25 {
        fill: url(#_未命名漸層_18-128);
      }

      .cls-26 {
        fill: url(#_未命名漸層_18-124);
      }

      .cls-27 {
        fill: url(#_未命名漸層_18-123);
      }

      .cls-28 {
        fill: url(#_未命名漸層_18-125);
      }

      .cls-29 {
        fill: url(#_未命名漸層_18-130);
      }

      .cls-30 {
        fill: url(#_未命名漸層_18-131);
      }

      .cls-31 {
        fill: url(#_未命名漸層_18-110);
      }

      .cls-32 {
        fill: url(#_未命名漸層_18-113);
      }

      .cls-33 {
        fill: url(#_未命名漸層_18-108);
      }

      .cls-34 {
        fill: url(#_未命名漸層_18-105);
      }

      .cls-35 {
        fill: url(#_未命名漸層_18-119);
      }

      .cls-36 {
        fill: url(#_未命名漸層_18-117);
      }

      .cls-37 {
        fill: url(#_未命名漸層_18-112);
      }

      .cls-38 {
        fill: url(#_未命名漸層_18-116);
      }

      .cls-39 {
        fill: url(#_未命名漸層_18-114);
      }

      .cls-40 {
        fill: url(#_未命名漸層_18-115);
      }

      .cls-41 {
        fill: url(#_未命名漸層_18-111);
      }

      .cls-42 {
        fill: url(#_未命名漸層_18-118);
      }

      .cls-43 {
        fill: url(#_未命名漸層_18-109);
      }

      .cls-44 {
        fill: url(#_未命名漸層_18-106);
      }

      .cls-45 {
        fill: url(#_未命名漸層_18-102);
      }

      .cls-46 {
        fill: url(#_未命名漸層_18-101);
      }

      .cls-47 {
        fill: url(#_未命名漸層_18-103);
      }

      .cls-48 {
        fill: url(#_未命名漸層_18-107);
      }

      .cls-49 {
        fill: url(#_未命名漸層_18-104);
      }

      .cls-50 {
        fill: url(#_未命名漸層_18-100);
      }

      .cls-51 {
        fill: url(#_未命名漸層_18-60);
      }

      .cls-52 {
        fill: url(#_未命名漸層_18-62);
      }

      .cls-53 {
        fill: url(#_未命名漸層_18-68);
      }

      .cls-54 {
        fill: url(#_未命名漸層_18-67);
      }

      .cls-55 {
        fill: url(#_未命名漸層_18-66);
      }

      .cls-56 {
        fill: url(#_未命名漸層_18-65);
      }

      .cls-57 {
        fill: url(#_未命名漸層_18-69);
      }

      .cls-58 {
        fill: url(#_未命名漸層_18-59);
      }

      .cls-59 {
        fill: url(#_未命名漸層_18-58);
      }

      .cls-60 {
        fill: url(#_未命名漸層_18-50);
      }

      .cls-61 {
        fill: url(#_未命名漸層_18-56);
      }

      .cls-62 {
        fill: url(#_未命名漸層_18-55);
      }

      .cls-63 {
        fill: url(#_未命名漸層_18-57);
      }

      .cls-64 {
        fill: url(#_未命名漸層_18-61);
      }

      .cls-65 {
        fill: url(#_未命名漸層_18-64);
      }

      .cls-66 {
        fill: url(#_未命名漸層_18-63);
      }

      .cls-67 {
        fill: url(#_未命名漸層_18-13);
      }

      .cls-68 {
        fill: url(#_未命名漸層_18-14);
      }

      .cls-69 {
        fill: url(#_未命名漸層_18-16);
      }

      .cls-70 {
        fill: url(#_未命名漸層_18-15);
      }

      .cls-71 {
        fill: url(#_未命名漸層_18-19);
      }

      .cls-72 {
        fill: url(#_未命名漸層_18-12);
      }

      .cls-73 {
        fill: url(#_未命名漸層_18-18);
      }

      .cls-74 {
        fill: url(#_未命名漸層_18-17);
      }

      .cls-75 {
        fill: url(#_未命名漸層_18-88);
      }

      .cls-76 {
        fill: url(#_未命名漸層_18-90);
      }

      .cls-77 {
        fill: url(#_未命名漸層_18-95);
      }

      .cls-78 {
        fill: url(#_未命名漸層_18-93);
      }

      .cls-79 {
        fill: url(#_未命名漸層_18-92);
      }

      .cls-80 {
        fill: url(#_未命名漸層_18-91);
      }

      .cls-81 {
        fill: url(#_未命名漸層_18-99);
      }

      .cls-82 {
        fill: url(#_未命名漸層_18-98);
      }

      .cls-83 {
        fill: url(#_未命名漸層_18-94);
      }

      .cls-84 {
        fill: url(#_未命名漸層_18-77);
      }

      .cls-85 {
        fill: url(#_未命名漸層_18-76);
      }

      .cls-86 {
        fill: url(#_未命名漸層_18-75);
      }

      .cls-87 {
        fill: url(#_未命名漸層_18-78);
      }

      .cls-88 {
        fill: url(#_未命名漸層_18-79);
      }

      .cls-89 {
        fill: url(#_未命名漸層_18-89);
      }

      .cls-90 {
        fill: url(#_未命名漸層_18-80);
      }

      .cls-91 {
        fill: url(#_未命名漸層_18-86);
      }

      .cls-92 {
        fill: url(#_未命名漸層_18-84);
      }

      .cls-93 {
        fill: url(#_未命名漸層_18-87);
      }

      .cls-94 {
        fill: url(#_未命名漸層_18-85);
      }

      .cls-95 {
        fill: url(#_未命名漸層_18-81);
      }

      .cls-96 {
        fill: url(#_未命名漸層_18-83);
      }

      .cls-97 {
        fill: url(#_未命名漸層_18-82);
      }

      .cls-98 {
        fill: url(#_未命名漸層_18-96);
      }

      .cls-99 {
        fill: url(#_未命名漸層_18-97);
      }

      .cls-100 {
        fill: url(#_未命名漸層_18-71);
      }

      .cls-101 {
        fill: url(#_未命名漸層_18-72);
      }

      .cls-102 {
        fill: url(#_未命名漸層_18-74);
      }

      .cls-103 {
        fill: url(#_未命名漸層_18-52);
      }

      .cls-104 {
        fill: url(#_未命名漸層_18-53);
      }

      .cls-105 {
        fill: url(#_未命名漸層_18-54);
      }

      .cls-106 {
        fill: url(#_未命名漸層_18-51);
      }

      .cls-107 {
        fill: url(#_未命名漸層_18-70);
      }

      .cls-108 {
        fill: url(#_未命名漸層_18-73);
      }

      .cls-109 {
        fill: url(#_未命名漸層_18-41);
      }

      .cls-110 {
        fill: url(#_未命名漸層_18-40);
      }

      .cls-111 {
        fill: url(#_未命名漸層_18-30);
      }

      .cls-112 {
        fill: url(#_未命名漸層_18-31);
      }

      .cls-113 {
        fill: url(#_未命名漸層_18-42);
      }

      .cls-114 {
        fill: url(#_未命名漸層_18-44);
      }

      .cls-115 {
        fill: url(#_未命名漸層_18-45);
      }

      .cls-116 {
        fill: url(#_未命名漸層_18-47);
      }

      .cls-117 {
        fill: url(#_未命名漸層_18-46);
      }

      .cls-118 {
        fill: url(#_未命名漸層_18-49);
      }

      .cls-119 {
        fill: url(#_未命名漸層_18-48);
      }

      .cls-120 {
        fill: url(#_未命名漸層_18-43);
      }

      .cls-121 {
        fill: url(#_未命名漸層_18-11);
      }

      .cls-122 {
        fill: url(#_未命名漸層_18-10);
      }

      .cls-123 {
        fill: url(#_未命名漸層_18-24);
      }

      .cls-124 {
        fill: url(#_未命名漸層_18-23);
      }

      .cls-125 {
        fill: url(#_未命名漸層_18-22);
      }

      .cls-126 {
        fill: url(#_未命名漸層_18-25);
      }

      .cls-127 {
        fill: url(#_未命名漸層_18-28);
      }

      .cls-128 {
        fill: url(#_未命名漸層_18-27);
      }

      .cls-129 {
        fill: url(#_未命名漸層_18-26);
      }

      .cls-130 {
        fill: url(#_未命名漸層_18-29);
      }

      .cls-131 {
        fill: url(#_未命名漸層_18-36);
      }

      .cls-132 {
        fill: url(#_未命名漸層_18-39);
      }

      .cls-133 {
        fill: url(#_未命名漸層_18-38);
      }

      .cls-134 {
        fill: url(#_未命名漸層_18-33);
      }

      .cls-135 {
        fill: url(#_未命名漸層_18-37);
      }

      .cls-136 {
        fill: url(#_未命名漸層_18-32);
      }

      .cls-137 {
        fill: url(#_未命名漸層_18-35);
      }

      .cls-138 {
        fill: url(#_未命名漸層_18-34);
      }

      .cls-139 {
        fill: url(#_未命名漸層_18-21);
      }

      .cls-140 {
        fill: url(#_未命名漸層_18-20);
      }
    </style>
    <linearGradient id="_未命名漸層_18" data-name="未命名漸層 18" x1="546.06" y1="1315.7" x2="1435.24" y2="1246.46" gradientUnits="userSpaceOnUse">
      <stop offset="0" stop-color="#fff"/>
      <stop offset=".09" stop-color="#fff" stop-opacity=".97"/>
      <stop offset=".22" stop-color="#fff" stop-opacity=".89"/>
      <stop offset=".38" stop-color="#fff" stop-opacity=".76"/>
      <stop offset=".56" stop-color="#fff" stop-opacity=".57"/>
      <stop offset=".75" stop-color="#fff" stop-opacity=".33"/>
      <stop offset=".97" stop-color="#fff" stop-opacity=".05"/>
      <stop offset="1" stop-color="#fff" stop-opacity="0"/>
    </linearGradient>
    <linearGradient id="_未命名漸層_18-2" data-name="未命名漸層 18" x1="543.04" y1="1276.91" x2="1432.22" y2="1207.67" xlink:href="#_未命名漸層_18"/>
    <linearGradient id="_未命名漸層_18-3" data-name="未命名漸層 18" x1="553.9" y1="1416.4" x2="1443.08" y2="1347.16" xlink:href="#_未命名漸層_18"/>
    <linearGradient id="_未命名漸層_18-4" data-name="未命名漸層 18" x1="854.12" y1="1414.33" x2="1108.65" y2="1394.51" xlink:href="#_未命名漸層_18"/>
    <linearGradient id="_未命名漸層_18-5" data-name="未命名漸層 18" x1="555.29" y1="1434.16" x2="1444.47" y2="1364.93" xlink:href="#_未命名漸層_18"/>
    <linearGradient id="_未命名漸層_18-6" data-name="未命名漸層 18" x1="565.03" y1="1559.27" x2="1454.21" y2="1490.03" xlink:href="#_未命名漸層_18"/>
    <linearGradient id="_未命名漸層_18-7" data-name="未命名漸層 18" x1="559.03" y1="1482.21" x2="1448.21" y2="1412.97" xlink:href="#_未命名漸層_18"/>
    <linearGradient id="_未命名漸層_18-8" data-name="未命名漸層 18" x1="562.79" y1="1530.48" x2="1451.97" y2="1461.24" xlink:href="#_未命名漸層_18"/>
    <linearGradient id="_未命名漸層_18-9" data-name="未命名漸層 18" x1="548.22" y1="1343.42" x2="1437.4" y2="1274.18" xlink:href="#_未命名漸層_18"/>
    <linearGradient id="_未命名漸層_18-10" data-name="未命名漸層 18" x1="539.36" y1="1229.65" x2="1428.54" y2="1160.41" xlink:href="#_未命名漸層_18"/>
    <linearGradient id="_未命名漸層_18-11" data-name="未命名漸層 18" x1="510.98" y1="1184.39" x2="510.98" y2="1184.39" xlink:href="#_未命名漸層_18"/>
    <linearGradient id="_未命名漸層_18-12" data-name="未命名漸層 18" x1="548.06" y1="1341.4" x2="1437.24" y2="1272.17" xlink:href="#_未命名漸層_18"/>
    <linearGradient id="_未命名漸層_18-13" data-name="未命名漸層 18" x1="556.21" y1="1445.97" x2="1445.39" y2="1376.73" xlink:href="#_未命名漸層_18"/>
    <linearGradient id="_未命名漸層_18-14" data-name="未命名漸層 18" x1="545.84" y1="1312.91" x2="1435.03" y2="1243.67" xlink:href="#_未命名漸層_18"/>
    <linearGradient id="_未命名漸層_18-15" data-name="未命名漸層 18" x1="533.79" y1="1158.08" x2="1422.97" y2="1088.84" xlink:href="#_未命名漸層_18"/>
    <linearGradient id="_未命名漸層_18-16" data-name="未命名漸層 18" x1="532.69" y1="1143.97" x2="1421.87" y2="1074.73" xlink:href="#_未命名漸層_18"/>
    <linearGradient id="_未命名漸層_18-17" data-name="未命名漸層 18" x1="536.21" y1="1189.18" x2="1425.39" y2="1119.94" xlink:href="#_未命名漸層_18"/>
    <linearGradient id="_未命名漸層_18-18" data-name="未命名漸層 18" x1="707.63" y1="1094.62" x2="730.74" y2="1092.82" xlink:href="#_未命名漸層_18"/>
    <linearGradient id="_未命名漸層_18-19" data-name="未命名漸層 18" x1="530.83" y1="1120.08" x2="1420.01" y2="1050.84" xlink:href="#_未命名漸層_18"/>
    <linearGradient id="_未命名漸層_18-20" data-name="未命名漸層 18" x1="535.88" y1="1184.91" x2="1425.06" y2="1115.67" xlink:href="#_未命名漸層_18"/>
    <linearGradient id="_未命名漸層_18-21" data-name="未命名漸層 18" x1="810.34" y1="1147.53" x2="818.81" y2="1146.87" xlink:href="#_未命名漸層_18"/>
    <linearGradient id="_未命名漸層_18-22" data-name="未命名漸層 18" x1="534.78" y1="1170.79" x2="1423.96" y2="1101.55" xlink:href="#_未命名漸層_18"/>
    <linearGradient id="_未命名漸層_18-23" data-name="未命名漸層 18" x1="787.93" y1="1198.07" x2="804.84" y2="1196.75" xlink:href="#_未命名漸層_18"/>
    <linearGradient id="_未命名漸層_18-24" data-name="未命名漸層 18" x1="535.61" y1="1181.43" x2="1424.79" y2="1112.19" xlink:href="#_未命名漸層_18"/>
    <linearGradient id="_未命名漸層_18-25" data-name="未命名漸層 18" x1="533.35" y1="1152.47" x2="1422.53" y2="1083.23" xlink:href="#_未命名漸層_18"/>
    <linearGradient id="_未命名漸層_18-26" data-name="未命名漸層 18" x1="770.7" y1="1140.82" x2="789.95" y2="1139.32" xlink:href="#_未命名漸層_18"/>
    <linearGradient id="_未命名漸層_18-27" data-name="未命名漸層 18" x1="533.88" y1="1159.26" x2="735.71" y2="1143.54" xlink:href="#_未命名漸層_18"/>
    <linearGradient id="_未命名漸層_18-28" data-name="未命名漸層 18" x1="532.6" y1="1142.87" x2="1421.78" y2="1073.63" xlink:href="#_未命名漸層_18"/>
    <linearGradient id="_未命名漸層_18-29" data-name="未命名漸層 18" x1="541.61" y1="1258.47" x2="1430.79" y2="1189.23" xlink:href="#_未命名漸層_18"/>
    <linearGradient id="_未命名漸層_18-30" data-name="未命名漸層 18" x1="539.3" y1="1228.87" x2="1428.48" y2="1159.63" xlink:href="#_未命名漸層_18"/>
    <linearGradient id="_未命名漸層_18-31" data-name="未命名漸層 18" x1="550.18" y1="1368.63" x2="1439.36" y2="1299.39" xlink:href="#_未命名漸層_18"/>
    <linearGradient id="_未命名漸層_18-32" data-name="未命名漸層 18" x1="546.03" y1="1315.27" x2="1435.21" y2="1246.03" xlink:href="#_未命名漸層_18"/>
    <linearGradient id="_未命名漸層_18-33" data-name="未命名漸層 18" x1="525.61" y1="1053.03" x2="577.14" y2="1049.02" xlink:href="#_未命名漸層_18"/>
    <linearGradient id="_未命名漸層_18-34" data-name="未命名漸層 18" x1="525.61" y1="1053.02" x2="724.32" y2="1037.54" xlink:href="#_未命名漸層_18"/>
    <linearGradient id="_未命名漸層_18-35" data-name="未命名漸層 18" x1="528.85" y1="1094.71" x2="1418.03" y2="1025.47" xlink:href="#_未命名漸層_18"/>
    <linearGradient id="_未命名漸層_18-36" data-name="未命名漸層 18" x1="558.2" y1="1471.55" x2="1447.38" y2="1402.31" xlink:href="#_未命名漸層_18"/>
    <linearGradient id="_未命名漸層_18-37" data-name="未命名漸層 18" x1="562.77" y1="1530.25" x2="1451.95" y2="1461.01" xlink:href="#_未命名漸層_18"/>
    <linearGradient id="_未命名漸層_18-38" data-name="未命名漸層 18" x1="563.06" y1="1534.04" x2="1036.04" y2="1497.21" xlink:href="#_未命名漸層_18"/>
    <linearGradient id="_未命名漸層_18-39" data-name="未命名漸層 18" x1="563.46" y1="1539.16" x2="1452.64" y2="1469.92" xlink:href="#_未命名漸層_18"/>
    <linearGradient id="_未命名漸層_18-40" data-name="未命名漸層 18" x1="562.81" y1="1530.81" x2="1451.99" y2="1461.58" xlink:href="#_未命名漸層_18"/>
    <linearGradient id="_未命名漸層_18-41" data-name="未命名漸層 18" x1="559.12" y1="1483.42" x2="1448.3" y2="1414.18" xlink:href="#_未命名漸層_18"/>
    <linearGradient id="_未命名漸層_18-42" data-name="未命名漸層 18" x1="701.76" y1="1472.73" x2="740.28" y2="1469.73" xlink:href="#_未命名漸層_18"/>
    <linearGradient id="_未命名漸層_18-43" data-name="未命名漸層 18" x1="559.75" y1="1491.45" x2="1448.93" y2="1422.21" xlink:href="#_未命名漸層_18"/>
    <linearGradient id="_未命名漸層_18-44" data-name="未命名漸層 18" x1="549.03" y1="1353.87" x2="1438.21" y2="1284.63" xlink:href="#_未命名漸層_18"/>
    <linearGradient id="_未命名漸層_18-45" data-name="未命名漸層 18" x1="510.49" y1="858.89" x2="1399.67" y2="789.65" xlink:href="#_未命名漸層_18"/>
    <linearGradient id="_未命名漸層_18-46" data-name="未命名漸層 18" x1="507.86" y1="825.08" x2="1397.04" y2="755.84" xlink:href="#_未命名漸層_18"/>
    <linearGradient id="_未命名漸層_18-47" data-name="未命名漸層 18" x1="1211.48" y1="770.41" x2="1271.66" y2="765.73" xlink:href="#_未命名漸層_18"/>
    <linearGradient id="_未命名漸層_18-48" data-name="未命名漸層 18" x1="484.98" y1="531.24" x2="1200.85" y2="475.5" xlink:href="#_未命名漸層_18"/>
    <linearGradient id="_未命名漸層_18-49" data-name="未命名漸層 18" x1="788.43" y1="507.58" x2="1019.9" y2="489.56" xlink:href="#_未命名漸層_18"/>
    <linearGradient id="_未命名漸層_18-50" data-name="未命名漸層 18" x1="489.55" y1="589.98" x2="1378.73" y2="520.74" xlink:href="#_未命名漸層_18"/>
    <linearGradient id="_未命名漸層_18-51" data-name="未命名漸層 18" x1="490.65" y1="604.03" x2="1379.83" y2="534.79" xlink:href="#_未命名漸層_18"/>
    <linearGradient id="_未命名漸層_18-52" data-name="未命名漸層 18" x1="490.56" y1="602.91" x2="1379.74" y2="533.67" xlink:href="#_未命名漸層_18"/>
    <linearGradient id="_未命名漸層_18-53" data-name="未命名漸層 18" x1="943.51" y1="690.5" x2="1064.9" y2="681.04" xlink:href="#_未命名漸層_18"/>
    <linearGradient id="_未命名漸層_18-54" data-name="未命名漸層 18" x1="491.26" y1="611.98" x2="1380.44" y2="542.74" xlink:href="#_未命名漸層_18"/>
    <linearGradient id="_未命名漸層_18-55" data-name="未命名漸層 18" x1="491.82" y1="619.15" x2="1381" y2="549.91" xlink:href="#_未命名漸層_18"/>
    <linearGradient id="_未命名漸層_18-56" data-name="未命名漸層 18" x1="492.5" y1="627.88" x2="1381.68" y2="558.64" xlink:href="#_未命名漸層_18"/>
    <linearGradient id="_未命名漸層_18-57" data-name="未命名漸層 18" x1="492.59" y1="629.05" x2="1381.77" y2="559.81" xlink:href="#_未命名漸層_18"/>
    <linearGradient id="_未命名漸層_18-58" data-name="未命名漸層 18" x1="502.83" y1="760.53" x2="1392.01" y2="691.29" xlink:href="#_未命名漸層_18"/>
    <linearGradient id="_未命名漸層_18-59" data-name="未命名漸層 18" x1="503.15" y1="764.61" x2="1392.33" y2="695.37" xlink:href="#_未命名漸層_18"/>
    <linearGradient id="_未命名漸層_18-60" data-name="未命名漸層 18" x1="504.89" y1="787.03" x2="1394.08" y2="717.79" xlink:href="#_未命名漸層_18"/>
    <linearGradient id="_未命名漸層_18-61" data-name="未命名漸層 18" x1="503.32" y1="766.76" x2="1392.5" y2="697.52" xlink:href="#_未命名漸層_18"/>
    <linearGradient id="_未命名漸層_18-62" data-name="未命名漸層 18" x1="493.71" y1="643.39" x2="1382.89" y2="574.15" xlink:href="#_未命名漸層_18"/>
    <linearGradient id="_未命名漸層_18-63" data-name="未命名漸層 18" x1="494.47" y1="653.16" x2="1383.65" y2="583.92" xlink:href="#_未命名漸層_18"/>
    <linearGradient id="_未命名漸層_18-64" data-name="未命名漸層 18" x1="503.77" y1="772.59" x2="1392.95" y2="703.35" xlink:href="#_未命名漸層_18"/>
    <linearGradient id="_未命名漸層_18-65" data-name="未命名漸層 18" x1="494.39" y1="652.17" x2="1383.57" y2="582.93" xlink:href="#_未命名漸層_18"/>
    <linearGradient id="_未命名漸層_18-66" data-name="未命名漸層 18" x1="494.24" y1="650.18" x2="1383.42" y2="580.94" xlink:href="#_未命名漸層_18"/>
    <linearGradient id="_未命名漸層_18-67" data-name="未命名漸層 18" x1="506.2" y1="803.81" x2="1395.38" y2="734.57" xlink:href="#_未命名漸層_18"/>
    <linearGradient id="_未命名漸層_18-68" data-name="未命名漸層 18" x1="475.83" y1="413.77" x2="1365.01" y2="344.53" xlink:href="#_未命名漸層_18"/>
    <linearGradient id="_未命名漸層_18-69" data-name="未命名漸層 18" x1="486.08" y1="545.37" x2="1375.26" y2="476.13" xlink:href="#_未命名漸層_18"/>
    <linearGradient id="_未命名漸層_18-70" data-name="未命名漸層 18" x1="528.78" y1="1093.75" x2="1417.96" y2="1024.51" xlink:href="#_未命名漸層_18"/>
    <linearGradient id="_未命名漸層_18-71" data-name="未命名漸層 18" x1="554.76" y1="1427.36" x2="1443.94" y2="1358.13" xlink:href="#_未命名漸層_18"/>
    <linearGradient id="_未命名漸層_18-72" data-name="未命名漸層 18" x1="552.62" y1="1399.92" x2="1441.8" y2="1330.68" xlink:href="#_未命名漸層_18"/>
    <linearGradient id="_未命名漸層_18-73" data-name="未命名漸層 18" x1="552.49" y1="1398.2" x2="1441.67" y2="1328.96" xlink:href="#_未命名漸層_18"/>
    <linearGradient id="_未命名漸層_18-74" data-name="未命名漸層 18" x1="540.92" y1="1249.68" x2="1430.1" y2="1180.44" xlink:href="#_未命名漸層_18"/>
    <linearGradient id="_未命名漸層_18-75" data-name="未命名漸層 18" x1="532.33" y1="1139.34" x2="1421.51" y2="1070.1" xlink:href="#_未命名漸層_18"/>
    <linearGradient id="_未命名漸層_18-76" data-name="未命名漸層 18" x1="524.18" y1="1034.74" x2="1413.36" y2="965.5" xlink:href="#_未命名漸層_18"/>
    <linearGradient id="_未命名漸層_18-77" data-name="未命名漸層 18" x1="1143.43" y1="1073.63" x2="1342.26" y2="1058.14" xlink:href="#_未命名漸層_18"/>
    <linearGradient id="_未命名漸層_18-78" data-name="未命名漸層 18" x1="525.49" y1="1051.47" x2="1414.67" y2="982.23" xlink:href="#_未命名漸層_18"/>
    <linearGradient id="_未命名漸層_18-79" data-name="未命名漸層 18" x1="525.68" y1="1053.98" x2="1414.86" y2="984.74" xlink:href="#_未命名漸層_18"/>
    <linearGradient id="_未命名漸層_18-80" data-name="未命名漸層 18" x1="539.72" y1="1234.23" x2="1428.9" y2="1164.99" xlink:href="#_未命名漸層_18"/>
    <linearGradient id="_未命名漸層_18-81" data-name="未命名漸層 18" x1="547.13" y1="1329.4" x2="1436.31" y2="1260.16" xlink:href="#_未命名漸層_18"/>
    <linearGradient id="_未命名漸層_18-82" data-name="未命名漸層 18" x1="539.83" y1="1235.67" x2="1429.01" y2="1166.43" xlink:href="#_未命名漸層_18"/>
    <linearGradient id="_未命名漸層_18-83" data-name="未命名漸層 18" x1="533.34" y1="1152.32" x2="1422.52" y2="1083.08" xlink:href="#_未命名漸層_18"/>
    <linearGradient id="_未命名漸層_18-84" data-name="未命名漸層 18" x1="517.83" y1="953.1" x2="1407.01" y2="883.86" xlink:href="#_未命名漸層_18"/>
    <linearGradient id="_未命名漸層_18-85" data-name="未命名漸層 18" x1="515.67" y1="925.46" x2="1404.86" y2="856.22" xlink:href="#_未命名漸層_18"/>
    <linearGradient id="_未命名漸層_18-86" data-name="未命名漸層 18" x1="513.1" y1="892.44" x2="1402.28" y2="823.21" xlink:href="#_未命名漸層_18"/>
    <linearGradient id="_未命名漸層_18-87" data-name="未命名漸層 18" x1="512.47" y1="884.33" x2="1401.65" y2="815.09" xlink:href="#_未命名漸層_18"/>
    <linearGradient id="_未命名漸層_18-88" data-name="未命名漸層 18" x1="515.92" y1="928.62" x2="1405.1" y2="859.38" xlink:href="#_未命名漸層_18"/>
    <linearGradient id="_未命名漸層_18-89" data-name="未命名漸層 18" x1="1036.89" y1="886.74" x2="1328.96" y2="864" xlink:href="#_未命名漸層_18"/>
    <linearGradient id="_未命名漸層_18-90" data-name="未命名漸層 18" x1="525.2" y1="1047.78" x2="1414.38" y2="978.54" xlink:href="#_未命名漸層_18"/>
    <linearGradient id="_未命名漸層_18-91" data-name="未命名漸層 18" x1="517.86" y1="953.55" x2="1407.04" y2="884.31" xlink:href="#_未命名漸層_18"/>
    <linearGradient id="_未命名漸層_18-92" data-name="未命名漸層 18" x1="531.43" y1="1127.75" x2="1420.61" y2="1058.51" xlink:href="#_未命名漸層_18"/>
    <linearGradient id="_未命名漸層_18-93" data-name="未命名漸層 18" x1="533.71" y1="1157.07" x2="1422.89" y2="1087.83" xlink:href="#_未命名漸層_18"/>
    <linearGradient id="_未命名漸層_18-94" data-name="未命名漸層 18" x1="541.11" y1="1252.07" x2="1430.29" y2="1182.84" xlink:href="#_未命名漸層_18"/>
    <linearGradient id="_未命名漸層_18-95" data-name="未命名漸層 18" x1="539.83" y1="1235.67" x2="1429.01" y2="1166.43" xlink:href="#_未命名漸層_18"/>
    <linearGradient id="_未命名漸層_18-96" data-name="未命名漸層 18" x1="524.14" y1="1034.15" x2="1413.32" y2="964.92" xlink:href="#_未命名漸層_18"/>
    <linearGradient id="_未命名漸層_18-97" data-name="未命名漸層 18" x1="511.73" y1="874.81" x2="1400.91" y2="805.57" xlink:href="#_未命名漸層_18"/>
    <linearGradient id="_未命名漸層_18-98" data-name="未命名漸層 18" x1="510.87" y1="863.79" x2="1400.05" y2="794.56" xlink:href="#_未命名漸層_18"/>
    <linearGradient id="_未命名漸層_18-99" data-name="未命名漸層 18" x1="509.58" y1="847.15" x2="1398.76" y2="777.91" xlink:href="#_未命名漸層_18"/>
    <linearGradient id="_未命名漸層_18-100" data-name="未命名漸層 18" x1="509.16" y1="841.85" x2="1398.34" y2="772.61" xlink:href="#_未命名漸層_18"/>
    <linearGradient id="_未命名漸層_18-101" data-name="未命名漸層 18" x1="519.28" y1="971.72" x2="1408.46" y2="902.49" xlink:href="#_未命名漸層_18"/>
    <linearGradient id="_未命名漸層_18-102" data-name="未命名漸層 18" x1="520.37" y1="985.83" x2="1409.56" y2="916.59" xlink:href="#_未命名漸層_18"/>
    <linearGradient id="_未命名漸層_18-103" data-name="未命名漸層 18" x1="531.58" y1="1129.74" x2="1420.76" y2="1060.5" xlink:href="#_未命名漸層_18"/>
    <linearGradient id="_未命名漸層_18-104" data-name="未命名漸層 18" x1="537.21" y1="1202.06" x2="1426.39" y2="1132.82" xlink:href="#_未命名漸層_18"/>
    <linearGradient id="_未命名漸層_18-105" data-name="未命名漸層 18" x1="521.69" y1="1002.73" x2="1410.87" y2="933.49" xlink:href="#_未命名漸層_18"/>
    <linearGradient id="_未命名漸層_18-106" data-name="未命名漸層 18" x1="523.32" y1="1023.68" x2="1412.5" y2="954.44" xlink:href="#_未命名漸層_18"/>
    <linearGradient id="_未命名漸層_18-107" data-name="未命名漸層 18" x1="538.44" y1="1217.86" x2="1427.62" y2="1148.62" xlink:href="#_未命名漸層_18"/>
    <linearGradient id="_未命名漸層_18-108" data-name="未命名漸層 18" x1="544.56" y1="1296.37" x2="1433.74" y2="1227.13" xlink:href="#_未命名漸層_18"/>
    <linearGradient id="_未命名漸層_18-109" data-name="未命名漸層 18" x1="532.61" y1="1143.01" x2="1421.8" y2="1073.77" xlink:href="#_未命名漸層_18"/>
    <linearGradient id="_未命名漸層_18-110" data-name="未命名漸層 18" x1="520.53" y1="987.77" x2="1409.71" y2="918.53" xlink:href="#_未命名漸層_18"/>
    <linearGradient id="_未命名漸層_18-111" data-name="未命名漸層 18" x1="520.04" y1="981.51" x2="1409.22" y2="912.27" xlink:href="#_未命名漸層_18"/>
    <linearGradient id="_未命名漸層_18-112" data-name="未命名漸層 18" x1="530.34" y1="1113.84" x2="1419.52" y2="1044.6" xlink:href="#_未命名漸層_18"/>
    <linearGradient id="_未命名漸層_18-113" data-name="未命名漸層 18" x1="515.13" y1="918.43" x2="1404.31" y2="849.19" xlink:href="#_未命名漸層_18"/>
    <linearGradient id="_未命名漸層_18-114" data-name="未命名漸層 18" x1="513.59" y1="898.64" x2="1402.77" y2="829.4" xlink:href="#_未命名漸層_18"/>
    <linearGradient id="_未命名漸層_18-115" data-name="未命名漸層 18" x1="513.95" y1="903.38" x2="1403.14" y2="834.14" xlink:href="#_未命名漸層_18"/>
    <linearGradient id="_未命名漸層_18-116" data-name="未命名漸層 18" x1="515.53" y1="923.6" x2="1404.71" y2="854.36" xlink:href="#_未命名漸層_18"/>
    <linearGradient id="_未命名漸層_18-117" data-name="未命名漸層 18" x1="517.35" y1="946.97" x2="1406.53" y2="877.73" xlink:href="#_未命名漸層_18"/>
    <linearGradient id="_未命名漸層_18-118" data-name="未命名漸層 18" x1="527.23" y1="1073.81" x2="1416.41" y2="1004.57" xlink:href="#_未命名漸層_18"/>
    <linearGradient id="_未命名漸層_18-119" data-name="未命名漸層 18" x1="532.25" y1="1138.29" x2="1421.43" y2="1069.05" xlink:href="#_未命名漸層_18"/>
    <linearGradient id="_未命名漸層_18-120" data-name="未命名漸層 18" x1="530.09" y1="1110.53" x2="1419.27" y2="1041.29" xlink:href="#_未命名漸層_18"/>
    <linearGradient id="_未命名漸層_18-121" data-name="未命名漸層 18" x1="545.73" y1="1311.48" x2="1434.91" y2="1242.24" xlink:href="#_未命名漸層_18"/>
    <linearGradient id="_未命名漸層_18-122" data-name="未命名漸層 18" x1="542.84" y1="1274.3" x2="1432.02" y2="1205.06" xlink:href="#_未命名漸層_18"/>
    <linearGradient id="_未命名漸層_18-123" data-name="未命名漸層 18" x1="539.96" y1="1237.28" x2="1429.14" y2="1168.04" xlink:href="#_未命名漸層_18"/>
    <linearGradient id="_未命名漸層_18-124" data-name="未命名漸層 18" x1="532" y1="1135.14" x2="1421.18" y2="1065.9" xlink:href="#_未命名漸層_18"/>
    <linearGradient id="_未命名漸層_18-125" data-name="未命名漸層 18" x1="553.66" y1="1413.27" x2="1442.84" y2="1344.03" xlink:href="#_未命名漸層_18"/>
    <linearGradient id="_未命名漸層_18-126" data-name="未命名漸層 18" x1="557.12" y1="1457.76" x2="1446.3" y2="1388.52" xlink:href="#_未命名漸層_18"/>
    <linearGradient id="_未命名漸層_18-127" data-name="未命名漸層 18" x1="543.68" y1="1285.11" x2="1432.86" y2="1215.87" xlink:href="#_未命名漸層_18"/>
    <linearGradient id="_未命名漸層_18-128" data-name="未命名漸層 18" x1="516.73" y1="939.04" x2="1405.91" y2="869.8" xlink:href="#_未命名漸層_18"/>
    <linearGradient id="_未命名漸層_18-129" data-name="未命名漸層 18" x1="509.26" y1="843.12" x2="1398.44" y2="773.88" xlink:href="#_未命名漸層_18"/>
    <linearGradient id="_未命名漸層_18-130" data-name="未命名漸層 18" x1="509.31" y1="843.7" x2="1398.49" y2="774.46" xlink:href="#_未命名漸層_18"/>
    <linearGradient id="_未命名漸層_18-131" data-name="未命名漸層 18" x1="509.08" y1="840.78" x2="1398.26" y2="771.54" xlink:href="#_未命名漸層_18"/>
    <linearGradient id="_未命名漸層_18-132" data-name="未命名漸層 18" x1="514.86" y1="915.06" x2="1404.05" y2="845.82" xlink:href="#_未命名漸層_18"/>
    <linearGradient id="_未命名漸層_18-133" data-name="未命名漸層 18" x1="470.96" y1="351.23" x2="1360.14" y2="281.99" xlink:href="#_未命名漸層_18"/>
    <linearGradient id="_未命名漸層_18-134" data-name="未命名漸層 18" x1="474.17" y1="392.52" x2="1363.36" y2="323.28" xlink:href="#_未命名漸層_18"/>
    <linearGradient id="_未命名漸層_18-135" data-name="未命名漸層 18" x1="475.81" y1="413.52" x2="1364.99" y2="344.28" xlink:href="#_未命名漸層_18"/>
    <linearGradient id="_未命名漸層_18-136" data-name="未命名漸層 18" x1="474.27" y1="393.79" x2="1363.46" y2="324.55" xlink:href="#_未命名漸層_18"/>
    <linearGradient id="_未命名漸層_18-137" data-name="未命名漸層 18" x1="479.55" y1="461.49" x2="1368.73" y2="392.25" xlink:href="#_未命名漸層_18"/>
    <linearGradient id="_未命名漸層_18-138" data-name="未命名漸層 18" x1="478.87" y1="452.79" x2="1368.05" y2="383.55" xlink:href="#_未命名漸層_18"/>
    <linearGradient id="_未命名漸層_18-139" data-name="未命名漸層 18" x1="479.01" y1="454.58" x2="1368.19" y2="385.34" xlink:href="#_未命名漸層_18"/>
    <linearGradient id="_未命名漸層_18-140" data-name="未命名漸層 18" x1="483.04" y1="506.42" x2="1372.23" y2="437.18" xlink:href="#_未命名漸層_18"/>
  </defs>
  <g>
    <path class="cls-1" d="m1005.59,1174.77c16.96-6.8,9.36-29.99-8.64-27.02-8.71.77-8.27,13.32.77,11.56-2.05.01-3.7-1.78-4.22-3.62.55-5.62,10.72-1.48,12.01,2.42-1.5,22.14-29.45-11.6-41.16-12.8-12.16-4.18-25.01,4.84-27.13,16.88,16.22-24.91,37.47,3.7,54.65,11.56-13.58,3.03-7.93,21.3,4.76,16.55,2.21-.43,3.16-5.84,1.46-5.63.02-.07.04-.1.08-.15.77,4.18-4.72,4.51-6.82,2.09-6.03-5.8,6.58-6.19,9.47-3.45,26.02,29.4-18.05,129.19-19.63,170.65-10.02-16.99-39.17,3.54-46.53-18.21-1.2,33.7-37.82,25.61-52.71,38.52.05-.64.08-1.27.11-1.91,14.68-10.07,49.72-6.16,46.66-32.33-6.43,19.78-34.19,12.17-46.69,26.07,3.9-41.17-51.03-146.51-18.89-168.31,0,0-.13-.03-.13-.03,2.38-.44,5.2.38,6.87,2.15,0,0,.05,0,.05,0,4.39,6.3-5.36,11.84-5.73,2.69-2.4,18.33,21.39,2.69,10.33-8.68,20.24-2.57,20.14-30.35,37.42-37.72,6.07-1.93,16.01.81,16.52,8.02,2.83-9.64-10.8-16.54-19.11-14.76-8.42,1.7-14.76,8.76-19.58,15.46-6.06,12.91-19.32,29.66-31.3,11.99-4.25-11.56,12.67-.51,6.54,5.55,6.5-3.95,1.92-13.19-3.26-16.14-15.76-4.55-14.55,18.47-4.18,23.61-39.65,31.61,11.98,109.89,13.08,153,8.4,27.93-13.1,64.34,11.62,86.12-8.59-14.81-2.98-33.03-.94-48.91,14.61-10.75,40.4.74,50.17-19.26,13.44,8.74,35.88,13.19,46.84,23.58.15-9.25-14.63-15.84-22.17-19.88,7.81-.23,16.65-1.65,22.98,3.7-1.01,13.52.81,27.21,8.31,38.68-16.17-53.74,60.26-207.26,18.13-232.05Zm-67.75,184.73c-1.76-.25-3.53-.37-5.32-.56.84-1.6,1.54-3.27,2.1-4.99.87,2.3,1.96,4.13,3.22,5.55Zm42.15,1.17c-.23,1.55-.42,3.1-.58,4.66-10.43-16.51-34.5-.98-43.43-17.38.18-1.43.26-2.88.24-4.32,6.44,16.69,25.13,9.26,38.18,11.7,2.29,1.16,4.2,3.09,5.59,5.33Z"/>
    <path class="cls-4" d="m934.57,1167.9c1.57-3.44,6.04-8.49,9.32-8.02,0,0,0,0,0,0-12.91,8.53,1.32,35.97,12.14,17.51.44-.97-.31-2.11-1.07-2.89-5.24-5.07-7.87,3.78-2.56,6.33-5.62.88-9.19-9.82-2.71-12.87,33.05-3.55,1.75,43.94-13.52,18.8.23,1.91-.09,4-.86,5.9,1.03,11.96,18.7,18.56,12.66,31.83,35.78,10.97,27.56,104.52-12.2,106.28,27.36-11.92,33.38-87.39,11.08-104.34-5.11,7.81-16.56,7.97-22.33.64-22.8,16.38-21.99,102.74,12.5,104.68-44.73,11.19-50.21-95.31-13.53-106.06-7.71-9.55,8.09-21.31,9.25-7.96-1.14-4.95-7.93-3.01-5.5,1.91,1.3,2.64,5.07,4.56,8.04,4.03,0,.03.54-.19,1.05-.48-.2.1-.32.17-.54.27,9.86-5.53-4.74-16.53-4.08-26.02-10.81,7.24-21.52-6.84-15.96-16.98,3.61-8.56,15.24-10.17,18.34-18.92,3.8,8.41-20.88,25.87-6.43,29.04,7.67-4.79-3.02-10.77-.19-3.58-6.34-4.3,3.52-9.16,6.78-4.48-1.64-4.89-1.72-10.42.33-14.6Z"/>
    <path class="cls-3" d="m808.4,1380.03c19.24,4.69,39.25,18.1,56.35,28.73-20.98-4.31-40.78-13.89-56.35-28.73Z"/>
    <path class="cls-5" d="m981.42,1404.41s-.02.02-.03.04c0-.02,0-.04,0-.06,0,0,.02.02.02.02Z"/>
    <path class="cls-2" d="m959.57,1396.88c-15.82,15.05-43.67,15.86-65.04,15.75,20.66-7.22,42.26-11.48,63.77-15.25.34-.44.76-.87,1.27-.5Z"/>
    <path class="cls-6" d="m852.63,1652.38c3.68-2.12,11.55-9.99,4.76-.83,3.66-.75,7.34-1.36,11.02-2.04-8.86-29.04-5.08-61.72-8.27-92.03-1.87-65.47,1.7-93.86,60.58-128.67-13.32,2.53-25.04,3.09-38.22,1.64,24.7-5.99,49.32-13.43,74.36-18.07,6.12-1.47,21.17-2.66,24.52-7.93.02.75-.17,1.51-.57,2.26,33.44,11.8,19.5,54.78,12.4,80.14-2.93,34.54-10.8,90.7,5.39,121.07-.31-.14-.57-.32-.87-.47.82,3.25-6.59,4.97-8.99,4.78-18.54,0-15.02-7.4-4.24-17.7-.64,3.63-1.57,7.21-2.89,10.64,3.95.97,11.43,4.68,14.98,2.15-26.79-26.46-14.16-72.39-14.57-106.64.98-28.44,22.25-58.27,5.41-85.58-1.54-2.15-6.92-10.73-8.62-4.91-.05-.29-.08-.63-.07-.97-1.05.97-2.39,1.94-3.97,2.89,12.93,3.65,18.98,25.03,9.06,34.21,3.69-9.59-3.22-27.77-15.54-26.02,3.42,6.59,9.59,11.23,14.1,17.04-7.94-4.55-21.64-7.95-22.57-18.66-6.09,2.12-12.82,4.06-19.29,5.71,23.69.48,47.21,19.37,44.98,44.91-.05-.03,0-.25-.04-.36,0,0,0,0,0,0-12.71-39.89-57.1-41.79-87.71-20.93.08-.04.18-.06.24-.11.71-.18.53.21.14.48-.06-.02.04-.12.05-.17-45.84,39.49-27.52,139.53-21.8,194.34,6.83,10.98,5.54,17-8.9,14.52-3.73-1.16-19.11,2.1-14.89-4.67Z"/>
    <path class="cls-9" d="m785.08,1426.56c-5.59,3.57-8.32,10-9.94,16.17-7.25-33.23,40-37.64,52.63-13.71,29.83,19.17,34.71,45.49,31.17,79.49-8.73-35.54-24.2-103.63-73.86-81.95Z"/>
    <path class="cls-7" d="m875.25,1541.29c.5-2.44,1.03-4.9,1.64-7.31.32,1.82.62,3.85.98,5.73,1.87-.3,3.78-.36,5.67-.5-8.56-23.56-10.57-52.01,2.05-73.72-4.4,26.05,3.67,51.96,5.07,77.6-1.6,3.06-5.28,1.82-7.87,1.03-2.21-1.23-7.06.17-7.54-2.83Z"/>
    <path class="cls-8" d="m678.02,1370.91c-3.06-24.65-4.84-50.39-1.3-75.1,0,0,0,0,0,0,7.55,24.36,4.79,50.24,1.3,75.09Z"/>
    <path class="cls-122" d="m510.94,1188.39c11.3-27.76,48.96-42.78,77.29-40.76-26.38,10.57-56.66,21.7-77.28,41.89,1.51,21.21-3.99,41.78-6.77,62.65-2.98,20.8-2.06,44.07-17.18,60.58,9.26-42.3,6.6-87.58,23.98-128.37-.03,1.33-.04,2.67-.04,4Z"/>
    <polygon class="cls-121" points="510.98 1184.38 510.98 1184.39 510.98 1184.39 510.98 1184.38"/>
    <path class="cls-72" d="m488.76,1321.04c-3.45,9.62,6.03,16.31,13.58,19.93,19.01,12.24-10.03,18.96,36.53,22.48.54,15.12-.2,30.49-4.78,45-2.24,2.54.01,3.98,2.47,3.63,0,0-.02.03,0,.02-.01,0,0,0-.02.01-.56-.34-1.06-.87-1.49-1.29,3.64-2.81,5.91-6.92,7.8-11.16.68,4.83,2.18,9.15,4.84,12.25-2.45.7-5.07,1.31-7.38,2.24,4.61.79,17.5,4.51,13.26-4.45-4.61-13.62-3.09-28.81-5.36-42.99.15.07.3.13.44.21-.15-.2-.33-.35-.48-.54-.02-.14-.03-.28-.04-.42-.04.08-.07.17-.11.25-2.57-3.22-5.76-5.55-9.19-7.47,0,0,0,.02,0,.03-5.87-3.15-12.59-4.94-18.83-7.18,0,0,0,0,0,0,.45-6.26-1.36-10.31-4.25-13.14,7.99-22.27,16.3-45.99,12.21-69.83-7.5,22.25-11.89,45.65-13,69.12-9.21-7.84-27.3-5.46-23.23-19.24.42.12.44.87.71,1.08.15-4.18-3.35-.57-3.67,1.46Zm52.93,43.14c2.13.62,4.19,1.41,6.18,2.37-.99,2.12-1.91,4.66-2.72,7.48-.42-1.61-.89-3.21-1.41-4.76-.62-1.68-1.3-3.41-2.05-5.1Z"/>
    <path class="cls-67" d="m584.78,1383.49c1.68,11.46,9.6,10.73,18.09,9.46-1.39,9.52,0,20.42,2.73,29.64.29-1.02.52-2.05.76-3.08-1.09,7.84-1.61,15.87-.02,23.66.5,7.4-12.48,31.08,1.11,28.8-1.01-.63-2.24-1.19-3.19-2,.18-.24.3-.51.47-.76,4.69,1.7,23.11,6.95,17.98-3.34-10.12-22.94-6.16-49.64-10.65-73.96,4.14-.06,7.9.81,10.54,4.15,10.46,21.91,30.75,3.35,46.91,4.01-.31.33-.62.67-.93.99,2.32-1.41,4.52-.74,7.33-.47.98,1.34,1.9,2.73,2.77,4.14.7,8.85,1.29,17.21-2.32,25.5-.49,10.08,3.74,20.01,1.11,30.15-24.47-4.54-31.72,21.53-41.58,37.9-3.09,2.22-23.81-2.45-9.69,2.82,27.16,16.47,26.4-38.16,51.18-40.12.05.55-.67,1.92.28,1.71,0-.06-.18-.07-.23-.12,10.96-15.73,11.9-40.73,1.91-56.75,4.09,8.97,13.76,12.06,23,11.34,16.89.31,19.51-12.36,31.64-13.74,11.96.99,12.53,12.15,30.76,5.39-17.36,53.98,35.48,115.06-1.83,165.52-5.14,7.83,6.41,10.55,12.19,9.38,11.25-.42,11.34-3.84,7.66-13.24-.27,2.52-.33,5.23-.73,7.77-3.36.01-6.69-.46-9.94-1.27,36.45-51.45-9.61-113.55-4.52-169.56,7.91-4.81,12.77-13.48,16.82-21.6,19.78,17.28,70.76,56.42,96.84,45.2-21.71-.66-38.39-18.27-57.35-27.06-12.66-7.04-26.37-12.14-39.12-18.88,8.96-24.16,36.03-4.19,54.02-9.07,4.54.07,20.74-6.95,19.44-11.61-23.31,18.78-63.4-21.29-80.51,12.15,3.22-30.45-1.13-61.77-7.42-91.51-2.38,31.72-1.34,63.96,5.57,95.04-18.28,39.18-23.4,8.65-48.73,14.64-46.84,33.24-40.55-4.94-55.56,3.33-17.29-7.99-20.48,1.99-35.74-2.07-5.01-7.18-10.8-14.48-20.46-14.57,6.99-30.97,9.12-64.05,2.22-95.12-5.69,31.32-3.89,63.38-2.91,95.02-6.34-.51-12.59,2.04-18.91,2-3.7-22.87-35.3-1.01-38.05-8.87-.09-14.03-14.24-11.37-9.97-9.22-.17-.17-.34-.42-.4-.66,2.83-.35,5.88,3.22,5.24,5.99-5.02,21.06,20.85,11.1,32.18,12.92Zm88.86,15.52c.79-.23,1.4.19,1.79.91-.6-.31-1.22-.64-1.79-.91Zm-64.75,54.22c1.48,4.86,2.65,10.09,6.06,14.02-3.3.44-6.62,1.7-9.95,1.5,2.89-4.58,4.1-10.07,3.88-15.52Zm-3.69-60.64c2.12-.31,4.24-.6,6.28-.67-1.28,6.77-2.83,13.48-3.98,20.28.6-6.64-.05-13.31-2.3-19.61Z"/>
    <path class="cls-68" d="m547.89,1346.7c-2.19-5.9,4.62-99.71,13.18-57.86-.56-1.62-1.48-3.12-2.69-4.34,1.54,21.23-4.04,41.99-10.49,62.2Z"/>
    <path class="cls-70" d="m620.62,1121.44c.2-.01.38-.05.58-.06-5.04-4.8-16.67-.69-23.92-2.32.1-.2.23-.38.44-.41-16.27,12.21-8.03,28.99,5.51,39.18-1.2,4.74-1.54,10.8-.27,16.06-1.59,3.14-3.63,5.97-5.09,9.19-.69.3-1.5.57-2.24.45,10.9,7.79,27.26-.77,3.65.65,1.95-1.36,3.95-3.63,5.14-6.1,1.93,4.01,5.22,6.94,10.38,7.37-9.75-6.1-6.4-23.92,2.65-29.24,6.07-3.72,9.13-10.79,8.44-17.78-.53-5.85-1.61-12.29-5.28-16.98Zm-15.25,31.8c-3.78-8.71-14.82-14.83-8.11-34.16,5.83,6.61,15.27,3.63,22.74,2.42,2.95,13.21-3.4,25.33-14.63,31.73Z"/>
    <path class="cls-69" d="m598.41,1136.13c6.38.09,12.89,2.49,19.23.98h0c-4.16,5.98-14.36,3.45-19.23-.98Z"/>
    <path class="cls-74" d="m730.05,1154.61c-3.81,3.83-16.04,1.73-21.64,2.65-5.37.18-33.12,3.05-20.89-7.97-2.65.24-5.3,2.08-5.92,4.66-.03-.2-.07-.4-.09-.6-5.68,12.76-3.46,30.21,6.02,40.86-.07-.03-.15-.06-.22-.09,6.35,11.28,27.06,14.55,32.89,1.14,10.39-8.69,15.1-22.7,15.04-36.05,5.91-8.01-9.14-13.96-16.12-11.16,4.16.71,8.41,3.26,10.94,6.56Zm-.25,9.05c-8.65,23.7-9.02,43.3-40.48,31.28-2.97-12.12-4.16-24.62-7.07-36.78,4.08,7.64,23.52,8.38,30.55,8.24,5.67-.21,11.77-.34,17-2.75Z"/>
    <polygon class="cls-73" points="719.19 1093.72 719.19 1093.72 719.19 1093.72 719.19 1093.72"/>
    <path class="cls-71" d="m742.26,1098.19s0-.01,0-.02h0c4.81-4.43,12.81,6.61,4.17,5.61-1.85-2.58-5.93-2.76-7.81-.13-3.44,2.73,4.71,10.52-2.04,9.44-4.89-2.13-3.04-8.47-.78-11.89-.65.23-1.28.62-1.88,1.09-.5-.64-.98-1.32-1.33-2.03.07-.26.12-.52.17-.79,2.62.88,5.45-2.65,3.2-4.85-1.47-10.11,11.13-1.95,5.92,1.3.62.43,1.6.54,2.18-.11,6.95-10.19-14.12-17.16-13.92-4.12-3.12-2.73-8.9-1.24-10.93,2.01,0,0,0,0,0,0,.03-.03.07-.06.11-.08h0c4.17-2.77,12,.09,7.36,5.45-5.44-.71-10.64,2.14-6.08,7.76-.07-.16-.2-.33-.23-.46.81,1.14.84,3.01-.88,2.96-3.61-1.8-6.33-7.88-11.15-4.13-.61-1.4.7-2.92,1.82-3.63,4.12-3.59-2.27-5.75-2.28-9.02l-.03-.04c.37-1.35,1.27-2.2,2.35-2.93,1.28.34,2.64.39,4,.1.68.29,1.34.67,1.92,1.06-.2-.53-.46-1-.75-1.41,2.65-.9,5.06-2.72,6.2-5.32,16.44,1.49,14.19-18.92,2.59-14.48,2.94-4.5-2.39-11.03-7.32-8.35-8.43-4.05-19.11,6.51-13.35,14.63-2.21,4.38-.26,9.33,3.28,12.04-3.02,1.64-5.13,5.24-3.31,9.99-2.3,2.01-3.31,4.63-3.32,7.24-1.22-2.18-4.42-4.38-6.65-2.3,4.14-.84,5.19,6.17,3.31,8.77,0,0,0,0-.01,0,.03-.05.07-.1.1-.15-.04.05-.08.1-.12.15-2.46-.22-4.64,2.22-4.26,4.63-1.43,1.86-3.6,2.48-5.63,1.15,4.78-2.33,1.3-9.94-3.61-7.74-.26-.14-.51-.29-.76-.46l.11.02c-1.94-2.44,1.6-6.51,3.51-9.21,9.7,5.61,20.15-4.89,13.88-14.53,7-8.95-5.23-17.4-11.57-8.59-2.93-12.25-16.18-7.89-13.99,3.7-8.58,6.67-4.55,21.98,7.29,19.59-5.03,3.47-8.15,9.71-3.27,14.8-4.19,11.9,15.75,16.16,20.52,5.88,4.81,9.48,2.6,21.2,4.17,31.5,5.09-8.3,7.19-26.67-3.42-32.72,1.48-2.62,2.3-5.63,2.2-8.52,1.81,2.77,4.85,4.75,8.6,4.68.96.75,2.02,1.37,3.11,1.89-7.51,8.56-5.24,22.85-.23,32.48,1.37-10.43-.43-21.46,2.47-31.61,5.16,1.8,11.68-.96,13.47-6.36,1.4,11.38,18.45,11.02,19.03-.54,16.02-2.99,3.53-24.95-6.12-13.4Zm-63.06-8.07c-.08.02-.17.03-.25,0-.48-1.4.96-2.83,1.63-3.98,3.27-.96,3.68-5.91.54-7.39-3.81-7.34,4.91-6.58,6.99-1.21-.09.34-.23.82-.15,1.13.09-.22.18-.44.31-.64.12.52.13.08.15-.19,2.49-3.7,11.99-1.29,7,3.06-4.1-1.23-6.87,4.37-3.32,6.86.51,1.17.83,2.45.83,3.72-.9.5-1.79-.05-2.29-.83-.12-6.9-10.66-7.39-11.46-.55Zm31.38-21.12c.59-1.64,2.22-2.23,3.83-2.41,2.07,1.67,3.98-.17,5.32-1.78,2.78-.88,4.28,2.83,3.77,5.13-.24.19-.51.36-.01.21-.13,1.14.03.62.39-.06,8.83-.76,5.58,11.04-1.71,6.18-1.1-2.53-4.34-3.76-6.78-2.39-.07-2.54-2.28-4.82-4.81-4.88Zm19.31,39.09c-.11-.97-.34-1.93-.64-2.84,1.2-.82,2.12-2,2.75-3.34.49.29,1,.51,1.52.68-1.58,1.37-2.89,3.42-3.64,5.5Z"/>
    <path class="cls-140" d="m819.2,1130.26c-3.65,32.11-9.53,22.11-18.19,38.7-9.3-13.45-15-21.66-8.33-38.45,4.16,4.19,23.63,4.58,25.08-.67-7.72-.28-15.57-.71-23.27-.07-2.83-.25-3.87-.73-1.96.63-17.18,18.19-9.6,28.92,8.07,41.33-.25,4.11.89,8.33,2.17,12.31-1.43,4.57-2.28,11.02-6.38,13.35,0,0,0,.01,0,.02.03.07.12-.08.17-.11,6.15,2.67,12.8,2.83,18.79-.34-.17-.08-.38-.1-.56-.15-7.93-4.1-8.3-25.75-.28-29.93,10.94-8.75,7.76-24.77,4.69-36.62Zm-7.46,66.04c-4.03-.35-8.13-.44-12.14.16,2.45-1.57,4.35-4,5.27-6.72,1.51,3.29,3.48,5.49,6.87,6.56Z"/>
    <path class="cls-139" d="m814.58,1147.2s0,0,0,0h0Z"/>
    <path class="cls-125" d="m803.35,1151.66c-3.98-.01-8.14-.67-11.83-1.98,7.5-2.46,15.55-.67,23.05-2.48-1.61,3.5-7.44,4.48-11.22,4.46Z"/>
    <path class="cls-124" d="m796.38,1197.41s0,0,0,0c0,0,0,0,0,0h0Z"/>
    <path class="cls-123" d="m855.22,1157.71c-10.95-2.03-21.81-6.01-31.82-11.1,20.19-.36,47.56,2.57,60.13,20.15-8.36-4.81-19.11-5.9-28.31-9.05Z"/>
    <path class="cls-126" d="m772.73,1140.22s.21,0,.21,0c-17.97.87-36.37-1.06-52.61-9.13,16.59-.73,45.68.9,59.97,8.98-2.47-.37-5.07.2-7.57.16Z"/>
    <polygon class="cls-129" points="780.33 1140.07 780.33 1140.07 780.33 1140.08 780.33 1140.07"/>
    <path class="cls-128" d="m780.33,1140.06s0,0,0,.01c0,0-.02,0-.03-.01,0,0,.02,0,.03,0Z"/>
    <path class="cls-127" d="m689.35,1133.34c.02.14-.36.21-.34.1.04-.02.08-.04.12-.07-19.73,3.17-39.74,5.04-59.74,4.36,18.01-9.7,40.97-12.04,59.97-4.4Z"/>
    <path class="cls-130" d="m569.58,1237.75c82.67,14.82,166.94,22.68,250.09,6.31-57.6,30.96-189.27,16.4-250.09-6.31Z"/>
    <path class="cls-111" d="m898.04,1179.24c12.23,10.43,13.94,27.89,10.04,42.66-5.11-13.62-5.95-28.4-10.17-42.28-.11.09-.11-.58.13-.38Z"/>
    <path class="cls-112" d="m906.88,1329.56c.84-.13,4.35-1.77,2.85.27-.08-.01-.02-.21-.05-.28-2.08,2.42-4.84,3.91-6.44,6.76,5.97,14.67-9.77,19.25-21.38,17.53,25.82-9.05,6.53-19.89,25.02-24.27Z"/>
    <path class="cls-136" d="m912.31,1265.62c4.58,13.3,5.6,27.96,3.97,41.95-6.01-13.02-7.96-28.02-3.97-41.95Z"/>
    <path class="cls-134" d="m521.01,1053.39s0,0,0,0c0,0,0,0,0,0Z"/>
    <path class="cls-138" d="m521.02,1053.39s.01-.02.02-.03c0,0,0,.02,0,.02,0,0,0,0-.01,0Z"/>
    <path class="cls-137" d="m634.61,1049.76c3.04-5.82-.03-16.67-7.27-17.6-6.49-.81-10.26,6.56-4.52,10.41.01.03.1.07.13.04h0c-2.9-3.52.19-8.73,4.25-5.26,1.41,2.87,1.81,9.21-2.27,9.06-9.68-1.05-16.87-8.84-26.17-11.21-11.25-4.17-25.79,4.7-26.23,15.11-1.4-3.34-4.3-6.4-8.38-8.27,3.37-2,6.54-4.45,7.86-8.23,1.27,1.13,5.05,4.56,5.99,3.12-3.63-3.52-3.96-8.77-6.41-12.81-2.47-2.23-6.23,1.03-4.56,3.84.11,4.98-1.87,9.44-4.77,13.32-25.22-9.51-36.62,29.3-44.11,12.4-2.7-7.48,3.62-7.67,2.9-.33,5.32-19.46-20-3.8-4.1,11.3-36.66,24.58,24.9,63.54,16.5,97.85,21.66-36.27-36.54-72.58-11.96-89.76,2.11-.46,4.44-.03,6.28,1.08h-.08c5.92,5.16-4.6,11.8-6.32,3.91,2.35,17.25,23.65-2.38,8.4-11.45,9.59-6.63,23.99-26.19,35.18-11.05-1.39,10.42-12.87,1.32-.64.37-11.41-4.71-11.92,11.93-.37,9.83,6.39-1.78,9.32-5.81,9.52-10.15.53,1.26,1.29,2.51,2.32,3.74,3.06,37.64-34.81,37.28-13.82,89.3.46-19.13,1.95-38.03,12.37-54.69,13.21-3.9,23.31,6.95,27.15,18.5-.14.06-.44-.09-.52,0,.21.14.43.39.71.33,4.12-18.52-20.14-34.91-24.68-52.13,4.69,5.33,16.63,5.64,18.54-2.39,2.29-6.71-9.58-11.34-9.7-3.2.82-3.96,7.08-2.3,5.23,1.55-2.84,3.23-8.59-.43-8.84-4.22,1.63-7.3,11.47-8.87,17.37-5.66,6.57,2.94,13.62,8.42,20.94,9.59.03,2.31.87,4.75,2.54,6.75-.04-.02-.11-.08-.11-.03,1.44,2.22-.56-6.5.39-6.51,2.06-.01,4.14-.44,6.23-1.41,24.84,21.18-12.86,56.38,3.35,80.69-1.43-4.66.16-10.27,1.06-15.05,7.91-21.39,26.78-54.67.65-70.69Zm-54.92,32.05c1.25,2.64,2.87,5.21,4.94,7.86-2.81-.88-5.78-.47-8.62.56,1.32-2.77,2.85-5.44,3.68-8.42Zm-2.82-21.47c-.04-.07-.07-.14-.11-.22.03.03.06.06.09.09,0,.04.01.08.02.13Z"/>
    <path class="cls-131" d="m728.6,1469.05c37.32-5.35,24.74,20.74,45.07,36.18-22.92-2.62-21.37-33.37-44.99-36.02.77,1.39,1.5,2.8,2.01,4.29-7.74-5.39-15.69-12.09-12.35-22.63-2.05,1.79-30.85,1.65-20.02-1.18,6.51-1.83,13.56-2.41,19.98-.08-.23-4.66-1.91-9.32-.57-13.86-7.23,4.77-16.37,3.91-23.81.78,7.78-2.23,16.3-1.36,24.26-2.14,6.02-7.62,6.04-24.13,15.17-26.92,0,0-.01,0-.02-.01-6.48,8.8.13,21.17-6.31,31.37,0,0,.07-.1.07-.1,3.31,13.76-6.94,18.93,1.5,30.33Z"/>
    <path class="cls-135" d="m798.09,1511.56c-3.05-2.26-6.64-4.23-9.92-5.86,22.44-3.38,18.32,16.44-1.42,13.56,3.88-2.43,8.34-4.07,11.34-7.7Z"/>
    <path class="cls-133" d="m771.63,1517.8s-.02.01-.01.01c-.02-.01-.03-.02-.05-.03.02,0,.04,0,.06,0,0,0,0,0,0,.01Z"/>
    <path class="cls-132" d="m713.32,1549.47c5.55-3.22,6.94-4.71,4.04-10.83-7.72-21.39,5.94-50.63,31.61-40.16,7.56,5.94,14.02,14.99,22.6,19.3-18.75-1.59-22.56-15.81-35.67-10.4-8.72,3.23-10.24,13.91-9.83,22.08,11.21,23.23-13.78,34.53-31.8,22.94,6.56,1.26,13.29.59,19.06-2.94Z"/>
    <path class="cls-110" d="m616.08,1496.11c-22.35,22.34,26.08,18.96,36.03,9.07,8.97-11.42,24.76-15.35,36.35-5.14,24.6,19.19-17.22,39.86,7.04,50.67.12-.07.05-.33.15-.37-12.15,5.46-16.08-13.23-12.72-22.36,2.38-9.65,7.42-15.09-3.71-21.8-15.34-6.59-13.94,7.35-30.86,13.09-17.43,11.68-66.33-5.39-32.28-23.15Z"/>
    <path class="cls-109" d="m721.01,1471.24s.03-.02.03,0c-11.72,8.67-29.72,9.3-39.41-2.77,12.68,4.45,26.14,3.09,39.37,2.78Z"/>
    <path class="cls-113" d="m721.02,1471.23s0,0,0,0h0s0,0,0,0Z"/>
    <path class="cls-120" d="m731.94,1481.88c.55-.07,1.1-.39,1.57-.55-19.55,12.89-53.19,13.57-67.2-8.36,19.94,11.12,43.52,9.82,65.63,8.92Z"/>
    <path class="cls-114" d="m847.77,1303.03c4.56,15.01,12.28,40.96,3.54,54.87-.8.25-.99-2.88-.19-1.02-2.99-17.74-5.63-35.83-3.35-53.85Z"/>
  </g>
  <g>
    <path class="cls-115" d="m719.79,638.87c3.92-2.22,6.67,6.05,8.59,8.56,7.73,13.55,9.68,31.81-.09,44.7-1.61-2.72-2.97-5.64-4-8.8-2.17,31.66,34.44,53.62,63.14,46.26,52.58-20.34,46.14,25.4,98.92,3.59,26.98-12.33,46.16,16.24,68.23,27.03-3.7,25.81-5.5,53.19,2.89,78.16-.58-.06-1.17-.13-1.74-.19.71.52,1.45,1.04,2.2,1.54.1.27.17.55.27.82.01-.21.03-.41.04-.62,10.76,7.14,24.87,11.84,37.59,9.32,1.28-.15,3.92-2.23,1.36-2.57-.04.15.46.31.42.56-13.19-2.03-25.59-8.64-39.27-8.77,1.97-25.62,3.77-51.45-.6-76.94,7.3,2.67,15,2.98,23.46-1.27,35.54-24.01,50.38,28.11,86.13,15.63-6.96,27.1-5.68,55.55-1.3,82.97,7.46-26.79,6.69-55.88,1.93-83.17,56.3-32.01,61.64,24.81,109.93,9.13-3.07,29.82-6.79,62.23,5.03,90.53.72-30.24,3.61-61.18-4.8-90.62,10.04-2.91,17.37-12.52,27.66-14.23,21.22,4.33,36.38,26.88,59.73,25.54-4.86,25.52-8.83,54.89-.47,79.78,3.98-26.38,6.77-53.4.63-79.78,65.94-24.78,69.16,13.11,126.18,20.52-3.75,81.27-.48,163.66,4.03,244.21,1.8,12.98,61.84,18.63,75.75,31.78-12.32-18.75-46.65-30.17-68.17-33.72-5.81-41.78-1.81-85.51-5.42-128.02-.94-38.02,3.17-77.05-6.1-114.25,18.79,2.17,32.38-11.93,48.55-17.85,15.63-.44,26.73,16.04,42.81,15.21,1.49-.01,5.32-.49,3.66-2.63-.09.2.19.58.05.85-11.19-.32-19.09-11.95-27.84-18.01-30.07-22.44-48.62,29.21-90.45,6.48-22.27-9.02-42.68-25.86-67.93-24.5,47.12-21.41,74.29,24.16,115.56,14.38,42.5-26.39,38.14-6,76,1.63-10.95-6.65-18.05-13.21-24.33-18.03,2.74-12.2,5.96-35.84-2.54-43.35,1.06,13.79-3.9,28.23.88,42.11-6.62-4.85-12.6-7.51-21.66-5.94,3.32-11.87,4.37-24.46-.57-36.02-2.15,11.96-4.5,24.66-3.94,37.08-5.6,1.63-12.3,4.64-20.78,9.41-31.77,17.52-66.11-27.52-103.86-16.16,3.61-13.64,1.32-27.89-4.55-40.67-3.18,11.61.52,28.77,2.85,41.02-19.5,5.87-38.99,12.08-59.51,7.61,10.85,6.02,23.54,11.66,35.74,9.14-33.04,17.66-49.69-4.34-77.52-17.67-23.52-5.9-35.93,26.98-65.41,13.66-65.35-51.14-75.79,20.31-120.23-21.69-29.93-25.28-45.68,4.88-64.79-.84-15.55-6.77-26.98-19.91-42.17-27.32-24.73-16.66-51.86,14.99-76.46-.75-45.46-31.03-73.48,26.18-114.87-31,13.44-6.35,18.22-23.35,12.99-36.65,26.97,3.26,54.01,8.47,81.32,9.96-.39,8.4-2.72,16.76-4.36,25.2-3.61.07-7.15.73-10.66,1.63,5.19-8.08.37-18.28-4.24-26.24-1.53,9.02,3.19,17.95,1.72,26.93-22.73,8.43-46.14,1.49-67.31-7.91,20.38,24.54,50.84,25.13,79.07,16.51-.07,1.23-.15,2.47-.12,3.71.74-1.3,1.5-2.67,2.25-4.08,12-.54,20.71,7.82,30.22,13.69,27.06,14.02,33.12.87,56.91,1.89,18.34,1.49,31.43,19.23,50.44,16.63-.04.06-.21.13-.19.2-18.11-7.45-33.84-30.93-57.69-27.46,3.47-11.27,5.21-23.82-1.17-33.76,4.89.44,9.77.88,14.66,1.31-1.81,10.16-2.23,20.57,1.22,30.54,2.59-9.75,3.99-20.36,1.62-30.28,112.89,5.39,229.5,29.27,338.96,33.56-51.98-15.18-106.86-17.1-160.24-25.12,65.91,5.93,131.92,10.74,197.93,15.54-.04.04-.08.07-.1.11-19.79-1.47-39.63-1.41-59.44-.58,40.7,7.7,82.77,11.81,124.16,12.41,4-2.73,5.29-4.99,4.62-6.84,25.48,1.92,50.96,3.89,76.42,5.99-.1,0-.19-.02-.28-.02,15.94.81,31.97,4.77,47.53,3.51,20.54-14.19-48.83-14.95-55.45-16.64-66.87-3.52-133.8-16.11-200.82-11.77,28.42,6.41,57.87,5.81,86.81,8.4-67.28-3.58-134.53-7.86-201.57-14.73.11.01.21.02.32.04-7.25-.65-14.5-1.39-21.75-2.1,35.29-31.85,64.78-69.53,96.36-104.94,19.66-24.2,43.55-47.17,52.76-77.74-.14-.32-.55-.02-.61.28.07.02.18-.17.3-.18-47.36,63.3-102.42,120.67-151.29,182.34-119.86-9.4-239.84-36.45-360.04-35.04-3.86-3.24-8.17-5.54-10.11-2.14Zm104.28,52.76c3.34-8.57,4.86-17.76.4-25.45,23.27,2.24,46.56,4.38,69.84,6.47,2.49,11.31-.6,23.04.75,34.41-34.82,12.89-41.31-8.8-70.38-15.34-.21-.04-.41-.05-.62-.08Zm-93.05-49.65c92.03,17.45,187.05,18.62,279.79,32.82-68.44-4.93-136.64-12.29-204.86-19.45-21.07-1.95-44.01-6.5-64.48.33-1.15-2.79-2.7-5.42-4.76-7.73-1.01-1.25-3.19-3.71-5.7-5.96Z"/>
    <path class="cls-117" d="m1241.57,768.06c-.04-.08-.09-.15-.14-.22.06.04.12.08.18.12,0,.03-.06.08-.04.1Z"/>
    <path class="cls-116" d="m1241.57,768.07s0,0,0-.01c0,0,0,0,0,0,0,0,0,0,0,0Z"/>
    <path class="cls-119" d="m904.13,498.53s.03.03.04.05c-.03.03-.06.06-.08.1.01-.05.03-.09.04-.14Z"/>
    <path class="cls-118" d="m904.16,498.58s.01-.02.02-.03c0,0,0,0,0,.01.01.02-.02.03-.03.01Z"/>
    <path class="cls-60" d="m838.04,568.74c-35.9,23.8-71.54,51.17-113.9,62.01,60.28-42.51,132.7-74.03,179.94-132.07-8.71,33.2-40.38,50.83-66.04,70.06Z"/>
    <path class="cls-106" d="m868.12,600.2c35.63-28.76,65.65-63.29,100.35-93.05-26.01,45.31-105.63,117.64-156.3,131.52,17.41-14.44,38.08-24.57,55.95-38.47Z"/>
    <path class="cls-103" d="m917.94,633.78c23.55-20.69,49.66-38.62,72.7-59.97,25.49-23.62,42.63-54.24,66.55-79.18-25.77,60.51-79.27,112.69-139.25,139.15Z"/>
    <path class="cls-104" d="m1004.22,685.77s0,.01,0,.02c0-.01,0-.03,0-.04,0,0,.01.01.02.02Z"/>
    <path class="cls-105" d="m963.76,576.35c19.92-24.81,42.86-46.96,67.58-66.94-10.71,22.12-30.29,37.5-46.41,55.4-24.02,28.89-49.75,57.2-82.95,75.7,18.21-23.59,42.69-41.12,61.78-64.16Z"/>
    <path class="cls-62" d="m1026.57,606.2c36.5-34.51,66.87-74.39,99.11-112.6-12.03,34.59-39.04,61.47-62.84,88.42-26.15,25.03-47.24,55.65-78.4,74.96,13.05-17.58,27.9-34.05,42.12-50.77Z"/>
    <path class="cls-61" d="m1003.86,663.46c13.89-24.74,36.67-42,55.31-62.74,26.57-33.26,50.92-71.35,83.09-98.82-37.17,60-82.5,117.62-138.4,161.56Z"/>
    <path class="cls-63" d="m1205.71,507.76c7.11-6.23,13.46-14.41,21.23-19.4-18.08,33.93-47.44,60.45-71.8,89.98-26.18,29.83-47.6,64.69-79.54,88.82,38.69-56.55,85.78-107.3,130.11-159.4Z"/>
    <path class="cls-59" d="m1084.14,695.69c3.67,12.45,6.61,25.74,4.74,38.78-5.69-11.63-9.37-26.76-4.74-38.78Z"/>
    <path class="cls-58" d="m1115.75,698.5c.52-.4,1.53-1.2,2.15-.62-5.82,11.09-1.74,26.07-4.82,38.35-5.26-11.7-7.72-28,2.67-37.72Z"/>
    <path class="cls-51" d="m1429.22,719.47c21.85,1.36,43.55,4.74,64.58,10.63-81.07-1.76-163.29-9.3-243.57-20.96,59.08-7.12,119.64,7.31,178.99,10.33Z"/>
    <path class="cls-64" d="m1277.45,706.5c-.16,0-.32,0-.48,0,.16,0,.32,0,.48,0Z"/>
    <path class="cls-52" d="m1222.86,619.05c39.97-38.11,70.26-84.37,105.21-126.49-18.16,48.3-56.51,84.83-91.09,121.81-20.67,21.38-40.38,44.17-64.3,62.03,14.03-21.22,32.64-39.01,50.18-57.35Z"/>
    <path class="cls-66" d="m1189.28,681.12c55.3-55.41,103.64-117.08,154.7-176.17-13.61,34.6-42.79,61.02-65.15,90.21-27.06,31.19-53.73,64.44-89.56,85.96Z"/>
    <path class="cls-65" d="m1209.85,713.25c.13,11.51,3.76,22.66,4.86,34.07,11.02,3.78,21.44,11,26.73,20.51-42.89-29.99-59.67,5.05-95.98-6.1-79.97-36.8-61.54,9.98-117.34-15.51-14.31-9.17-30.93-15.42-48.16-13.77-2.12-.03-11.56,3.16-6.49.26,4.66-3.33,10.01-5.5,15.62-6.63-2.68-14.59,1.47-29.95,1-44.06,9.66,11.23,4.53,31.17-.82,44.03,5.5-1.09,11.24-1.19,16.81-.41-5.44-12.5-6.83-27.04-1.88-39.85,3.07,13.01,5.07,26.77,5.08,40.41,36.75,14.01,38.24,24.88,79.58,9.47,34.75-1.19,65.69,31.38,100.24,10.49-3.06-11.71-4.91-25.01-1.58-36.64,4.41,11.66,5.74,24.33,2.39,36.42,6.9-2.06,14.2-1.77,21.2.28-5.43-10.33-8.04-22.74-1.28-32.96Z"/>
    <path class="cls-56" d="m1342.11,631.35c44.96-43.59,75.7-98.07,112.03-148.36-26.3,71.09-101.27,152.14-159.83,201.32,13.46-19.67,31.41-35.77,47.8-52.97Z"/>
    <path class="cls-55" d="m1477.71,489.29c-12.3,35.72-43.44,61.5-65.1,91.68-26.52,30.19-48.86,65.17-82.23,88.41,48.06-60.52,98.09-120.37,147.33-180.09Z"/>
    <path class="cls-54" d="m1335.76,757.18c-4.41-11.3-4.4-23.69-3.69-35.64,6.9,10.37,6.46,23.89,3.69,35.64Z"/>
    <path class="cls-53" d="m1337.76,348.71c-142.23,17.64-284.97,36.49-427.91,45.28,111.77-27.25,229.68-21.54,343.06-41.99,85.52-6.99,169.6-31,255.4-31.88-54.5,17.99-114.35,16.61-170.56,28.59Z"/>
    <path class="cls-57" d="m1348.09,472.71c-128.41,6.24-256.25,21.07-384.71,26.78-17.78,26.17-43.57,46.45-67.12,67.3-25.26,24.91-50.32,51.56-83.73,65.65,49.16-44.02,95.96-91.02,147.08-132.78-33.82,1.71-60.92,5.57-52.55-37.92,1.83-20.39-3.36-42.35,2.68-61.85,19.67,73.13-12.86,92.58,33.92,90.39,189.69-1.7,378.93-35.21,568.35-30.47-53.51,12.48-109.39,8.89-163.91,12.9Z"/>
    <path class="cls-107" d="m1159.83,804.07c13.15,159.27,10.17,321.16,3.34,480.83-3.52-73.86,3.66-148.14.98-222.15,2.52-86.15-14.14-173.21-4.32-258.67Z"/>
    <path class="cls-100" d="m1166.6,1390.61c61.51-16.56,124.58-27.85,186.39-43.24-30.73,21.83-70.68,24.86-106.94,33.16-24.34,1.29-84.04,27.81-101.27,12.41,6.87,4.54,14.88-.37,21.82-2.33Z"/>
    <path class="cls-101" d="m1085.7,1376.06c18.82,10.09,42.41,11.39,59.18,25.09-59.74-6.75-114.75-38.86-155.73-82.57,33.95,16,62.25,41.96,96.55,57.47Z"/>
    <path class="cls-108" d="m1153.68,1389.92c-5.36-25.55-2.71-52.43,4.64-77.42,3.45,25.73,2.71,52.37-4.64,77.42Z"/>
    <path class="cls-102" d="m1246.64,1184.73c-1.48,32.22,2.26,65.5-5.31,97-.19.08-.1-.52-.03-.16-.25-1.2-.41-2.4-.63-3.61-16.18,14.03-42.91,9.06-62.63,7.94,19.35-10.25,42.47-4.18,62.42-9.13-6.23-56.7-4.38-115.5,3.17-171.99,5.48,26.23,4.24,53.3,3.01,79.95Z"/>
    <path class="cls-86" d="m1243.27,1076.58c1.52,4.8,1.05,10.09-.62,14.84-2.1-4.65-1.3-10.21.62-14.84Z"/>
    <path class="cls-85" d="m1246.02,986.29c.63,26.58,1.36,53.24-3.17,79.56-6.96-24.67-5.12-50.97-5.96-76.43.95-32.59-2.39-65.88,6.12-97.72,4.83,31.1,3.61,63.1,3.01,94.59Z"/>
    <path class="cls-84" d="m1242.86,1065.9s0,0-.01-.01c0-.01,0-.02,0-.04,0,.02.01.05.02.07,0,0,0-.02-.01-.02Z"/>
    <path class="cls-87" d="m1266.14,901.4c2.98,57.19,1.92,115.14-.06,172.39,13.88-6.55,29.55-9.19,43.98-13.62-9.7,12.63-28.72,16.53-44.16,15.33-.39,3.61-.85,7.22-1.43,10.82-7.48-28.94-6.28-59.1-6.05-88.78-.33-32.18-2.21-65.13,7.72-96.14Z"/>
    <path class="cls-88" d="m1325.71,979.61c-1.8,30.73.17,61.84-10.18,91.37-3.6-51.93.02-107.58,8.09-157.64,5.95,21.6,3.78,44.24,2.09,66.27Z"/>
    <path class="cls-90" d="m1317.86,1089.74c10.11,32.32,6.39,67.43,7.09,100.99.06,22.49-.16,45.25-7.35,66.82-3.98-55.59-4.29-112.22.26-167.81Z"/>
    <path class="cls-95" d="m1262.35,1277.3c-3.2-.76-3.49-4.53-4-7.22,2.72,4.77,5.79,3.36,10.19,1.83,15.08-3.99,30.79-5.15,46.12-7.73-13.81,12.04-34.34,15.68-52.31,13.12Z"/>
    <path class="cls-97" d="m1261.88,1093.24c4.23,57.04,7,115.66-1.12,172.49-8.09-35.01-4.33-72.18-4.46-108.08.73-21.32-1.96-44.11,5.57-64.41Z"/>
    <path class="cls-96" d="m1264.38,1099.86c16.62-9.4,36.12-14.42,55.19-13.03.01.02-.02.02-.03,0-16.88,8.97-35.97,14.1-55.16,13.03Z"/>
    <path class="cls-92" d="m1269.01,900.12c14.47-10.08,31.29-12.84,48.2-14.87-11.97,11.09-32.13,14.19-48.2,14.87Z"/>
    <path class="cls-94" d="m1319.63,862.16c-17.69-.77-34.67,14.58-53.75,8.94,16.03-4.67,38.37-20.85,53.75-8.94Z"/>
    <path class="cls-91" d="m1325.68,861.04c-3.45-21.06-3.74-43.52,1.79-63.89,5.69,20.56,5.71,43.77-1.79,63.89Z"/>
    <path class="cls-93" d="m1235.7,865.16c-.95-24.37-4.62-50.66,3.09-74.53,4.52,17.9,7.33,59.22-3.09,74.53Z"/>
    <path class="cls-75" d="m1234.17,867.99c-9.8,15.57-37.16,11.72-53.2,8.36,16.54-7.06,37.28-2.1,53.2-8.36Z"/>
    <path class="cls-89" d="m1182.93,875.39s0-.04,0-.06c.01.02.02.04.04.06-.01,0-.03,0-.04,0Z"/>
    <path class="cls-76" d="m1174.25,913.32c3.63,55.56,7.99,111.58,7.4,167.27-11.14-24.68-9.68-53.36-10.95-79.99-.93-28.95-6.9-59.38,3.55-87.27Z"/>
    <path class="cls-80" d="m1190.28,898.37c15.16-3.91,35.65-4,48.85.86-20.95,6.32-43.26,3.83-64.27,6.93,2.8-5.17,10.26-5.9,15.42-7.79Z"/>
    <path class="cls-79" d="m1208.7,1070.9c10.28-3.11,21.05-2.37,31.59-2.72,0,0,0-.01,0-.02-.49-.66.17-.28.36.08-17.29,9.82-38.99,13.39-58.89,13.98,8.35-5.01,17.56-8.73,26.94-11.32Z"/>
    <path class="cls-78" d="m1187.33,1106.02c16.24-9.15,39.67-6.32,56.52-2.22-18.44,6.5-37.49,3.57-56.52,2.22Z"/>
    <path class="cls-83" d="m1172.43,1297.88c-6.42-31.44-2.44-64.06-1.56-95.91,1.19-24.01-4.98-75.78,7.41-94.47,1.36,63.08,5.54,127.7-5.85,190.38Z"/>
    <path class="cls-77" d="m1141.63,1170.38c-1.24,35.6-3.81,71.26-9.66,106.26-7.83-24.87-.88-52.57-.58-78.26,2.65-32.12.13-64.61,6.65-96.37,4.64,22.34,4.21,45.6,3.59,68.37Z"/>
    <path class="cls-98" d="m1145.04,990.26c-.55,25.86-.82,52.27-8.53,77.16-3.25-53.76-3.26-109.59,7.64-162.51,4.78,28.27,1.18,56.92.89,85.35Z"/>
    <path class="cls-99" d="m1138.39,869.58s0,.02,0,.03c-5.78-28.39-7.91-58.54-1.78-87.06,5.96,28.5,8.45,58.48,1.78,87.03Z"/>
    <path class="cls-82" d="m1081.96,811.16c1.02-12.03,1.19-29.65,3.98-38.75,5.82,30.21,8.58,62.69.98,92.79,0,0-.35.57-.49.29,0-.04.11.02.15-.06-1.3-18.04-5.45-36.05-4.61-54.28Z"/>
    <path class="cls-81" d="m1018.17,768.37c5.02,25.83,5.05,52.82-1.61,78.42,0,0,.02,0,.03,0,.04,0-.01.06-.04.07-5.48-25.61-5-53.06,1.62-78.48Z"/>
    <path class="cls-50" d="m1004.44,848.44c-.1.28-.36.8-.56.34.03-.04.09.06.13.08.01,0,.03-.01.04-.02-5.61-29.87-6.86-60.94-2.25-91.01,6.46,29.56,8.37,60.78,2.64,90.61Z"/>
    <path class="cls-46" d="m921.73,929.08c2.06-63.2-7.87-126.85.82-189.67,9.17,58.5,5.17,118.83,6.77,177.97-1.45,74.45,5.75,150.67-9.03,224.03-4.96-70.07,5.81-141.76,1.44-212.33Z"/>
    <path class="cls-45" d="m1007.36,962.79c.52,21.21-.75,42.75-5.9,63.35-5.38-51.28-3.75-104.31,1.01-155.64,7.22,30.21,5.22,61.5,4.89,92.29Z"/>
    <path class="cls-47" d="m1001.53,1139.6c.05-.03.02.05-.01.06-5.21-30.75-2.63-62.4,1.27-93.13,7.97,30.32,5.66,62.77-1.26,93.07Z"/>
    <path class="cls-49" d="m1070.04,1241.63c-8.64-19.6-5.33-45.37-6.8-67.16-.45-31.76-2.43-64.03,6.42-94.93,3,53.7,4.06,108.42.05,162.05.1.14.26,0,.33.04Z"/>
    <path class="cls-34" d="m1068.88,902.04c4.55,42.53,4.24,86.57-2.85,128.78-6.54-9.36-4.25-188.54,2.85-128.78Z"/>
    <path class="cls-44" d="m1085.43,886.07c12.27,55.54,10.29,114.07,9.54,170.6,8.63-2.14,38.69,15.17,37.54,8.82,2.1,13.6-37.15-4.45-42.65-9.23,1.4.08,2.8.19,4.21.32-5.32-8.84-5.98-32.13-6.84-41.87.34-42.93-7.07-85.8-1.8-128.63Z"/>
    <path class="cls-48" d="m1086.46,1143.14c-.57-15.74.37-31.47,2.81-47.02,10.41,51.73,4.95,105.73-.11,157.71-10.66-33.46.33-75.33-2.7-110.69Z"/>
    <path class="cls-33" d="m1089.37,1254.07c-.07-.05-.14-.1-.21-.15,0-.03,0-.06,0-.09.16.08.31.19.49.2,0-.07-.2.08-.28.05Z"/>
    <path class="cls-43" d="m1021.94,1067.02c4.79,25.19,2.07,51.1-3.35,76.03-6.06-24.48-2.98-51.81,3.35-76.03Z"/>
    <path class="cls-31" d="m1019.26,1006.92c-.65,3.62-.69,7.66-2.32,10.96-7.04-45.54-3.75-92.99,5.86-137.98,4.87,42.09-.42,84.92-3.55,127.02Z"/>
    <path class="cls-41" d="m950.88,899.33c-.05-4.47,5.64-42.06,6.05-25.7,2.26,43.7,8.43,88.81-1.44,132.06,14.08,1.2,26.32,9.16,39.47,12.84.99-.79,1.78-2.82,1.15-3.94,7.78,20.61-38.64-3.63-43.83-9.32.98.11,1.96.24,2.93.39-4.63-34.96-4.26-71.06-4.34-106.33Z"/>
    <path class="cls-37" d="m949.47,1079.67c.17-14.87,1.47-29.76,4.74-44.28-.82-.52-1.66-1.02-2.46-1.59.91.06,1.85.14,2.78.21.23-.98.44-1.95.68-2.92.14,1,.24,2,.37,3.01,13.65,2.73,40.37,1.53,45.48,17.04.02.02.07-.03.06.02-2.88-3.93-7.69-4.17-12.34-4.32-11.44-1.18-22.9-4.42-32.91-10.36,3.58,30.9,2.23,64.83-4.66,94.27-2.55-16.92-3.32-34-1.74-51.07Z"/>
    <path class="cls-32" d="m1116.51,870.76c6.08-.28,19.05,8.21,19.22-2.04,9.1,19.46-44.51,8.08-46.94-3.32,8.23,4.51,18.61,3.62,27.72,5.36Z"/>
    <path class="cls-39" d="m1064.69,857.87c3.71,2.78-4.21,4.85-6.25,5.09-13.58,2.05-25.97-5.46-38.2-10.16,13.62-3.81,30.09,6.24,43.95,6-.34-.41-.9-.57-1.44-.58.45-.39,1.34-.53,1.95-.34Z"/>
    <path class="cls-40" d="m977.7,861.06c5.92.45,21.48,4.09,21.71,11.23-11.75-6.35-28.14-3.91-41.01-8.83-2.87-1.3,17.27-3.11,19.3-2.39Z"/>
    <path class="cls-38" d="m1064.78,888.14c-15.5-3.01-32.16-3.64-46.67-10.92,14.93-1.62,34.96-.8,46.67,10.92Z"/>
    <path class="cls-36" d="m1123.06,906.67c-12.18-3.1-24.38-8-34.7-15.16,17.64,2.01,38.46,6.79,51.86,17.96-.05-.02.04-.09.04-.14,0-.02,0-.03-.01-.05-5.59-1.18-11.58-1.07-17.19-2.61Z"/>
    <path class="cls-42" d="m1069.24,1051.21c-7.86,2.23-57.98-13.71-56.06-22.5,3.68-16.72,2.1-16.94,5.04-.24,17.23,3.4,32.92,11.26,49.53,16.27.3-4.48,1.56-9.13,1.06-13.54,1.73,5.27,8.58,17.72.43,20.02Z"/>
    <path class="cls-35" d="m1092.18,1087.93c-1.23,2.48-2.26,5.05-3.58,7.5-6.65-29.09,41.41-.64,48.69,7.54,0-.01,0-.03-.01-.04-15.51-3.21-30.2-9.65-45.11-15Z"/>
    <path class="cls-20" d="m1064.36,1077.3c-15.19-2.84-30.49-6.66-43.61-15.24-.3.84-.69,1.79-1.11,2.49-4.34-9.96,10.37-2.81,15.41-2.57,10.87,4.24,32.43,5.36,33.59,19.62-1.11-1.71-1.92-3.86-4.27-4.29Z"/>
    <path class="cls-19" d="m1127.8,1277.45c-15.25.38-28.73-9.84-39.62-19.52,14.41,2.91,26.92,11.08,39.75,17.97-.11-.22-.36-.47-.38-.67,1.79.44,2.58,1.91.24,2.22Z"/>
    <path class="cls-21" d="m1062.79,1245.98c-15.58-2.21-32.38-10.46-43.7-21.07,9.26,3.1,19.69,4.42,28.39,9.41,3.19.91,17.77,12.6,19.04,9.43,1.4,1.39-2.17,2.61-3.73,2.24Z"/>
    <path class="cls-27" d="m995.15,1207.17c1,13.25-30.33-7.59-34.62-12.01,9.8-1.91,35.83,18.43,34.62,12.01Z"/>
    <path class="cls-26" d="m1351,1335.12s.01,0,.02,0h0c.06-.06.04.03,0,.06-10.96-62.3.28-128.28-4.08-191.84-2.63-111.77-9.96-224.56,4.38-335.8,2.44,53.58-4.74,107.12-3.75,160.76-1.3,122.11,15.85,245.15,3.36,366.76.03.02.05.05.08.07Z"/>
    <path class="cls-28" d="m1364.55,1350.17s-.03-.07-.05-.11c.06.05.13.09.2.14-.05-.01-.1-.02-.14-.03Z"/>
    <path class="cls-24" d="m1555,1424.74c-31.35-6.07-59.91-21.42-89.95-31.8-32.8-12.75-74-22.04-100.35-42.74,64.63,19.98,130.3,43.06,190.31,74.54Z"/>
    <path class="cls-22" d="m1409.04,1142.47c-9.65,53.29-2.36,108.76-12.33,162.02-6.95-55.04-3.9-112.68,3.03-167.4,8.18-15.4,64.15,6.08,75.53,14.77-21.54-3.87-44.19-7.38-66.23-9.39Z"/>
    <path class="cls-25" d="m825.62,952.92c.77-72.7-.95-147.68,5.23-219.78,13.23,56.67.91,116.2,2.61,173.9-1.68,62.99,5.24,126.87-5.71,189.24-6.4-47.35.13-95.65-2.14-143.36Z"/>
    <path class="cls-23" d="m889.26,872.04c-9.64-4.89-26.51,2.23-29.35-11.4-1.52-19.15-.05-38.73,1.63-57.86,1.24-11.84,4.35-23.62,1.23-35.35-6.59-22.02,14.55-15.51,25.05-6.57,4.71,3.08-14.59-1.89-17.59-.51-3.67,28.73-.14,57.41-1.23,86.51-2.27,24.12,1.38,10.01,20.24,25.06-4.37-35.48-2.62-71.75,2.62-106.99,7.61,36.07,5.18,75.14-2.14,111.16-.19-1.35-.3-2.71-.46-4.06Z"/>
    <path class="cls-29" d="m899.92,757.54c-13.48-.08-25.42-8.36-38.45-8.59,10.68-9.15,28.69,1.05,38.6,7.66.09-.5.15-1,.24-1.49,6.83,40.63,8.27,91.44-.32,128.36-4.42-41.51-4.98-84.44-.07-125.94Z"/>
    <path class="cls-30" d="m858.55,752.07c.89,40.26-2.07,83.57-8.93,123.7-5.77-40.61-3.96-84.49,8.93-123.7Z"/>
    <path class="cls-12" d="m887.87,888.2c5.29.67,4.1-1.5,6.67-4.67.62-.31,0,.18.05.5-.77,21.63-33.61,2.87-43.48-3.09,12.8-.81,24.45,5.23,36.76,7.26Z"/>
  </g>
  <g>
    <path class="cls-10" d="m798.01,358.55c7.74,15,12.15,40.36,33.89,38.52,4.37-.39,10.74-2.33,12-6.94-26.4,13.83-30.61-28.05-41.16-43.17-13.49-19.76-33.95-70.44-62.68-57.32.57-1.59,1.19-3.2,1.64-4.82,30.61,5.11,61.88,9.6,93,9.51-31.62,2.26-25.95,61.35.54,66.6,11.01-.3,16.66-14.81,12.74-23.94-4.63-8.62-19.75-3.74-15.72,6.05-.71-4.85,6.18-8.65,9.36-4.47l.02-.04c1.53,3.15-.64,6.64-2.15,9.39-5.09,7.26-9.03-1.58-11.36-6.03-5.07-10.93-9.16-28.75,3.16-36.26,43.63-7.04,28.79,70.03,10.02,88.46,11.46-3.84,19.08-17.13,23.86-31.08.07,4.03.16,8.06.25,12.08,11.03-32.43,12.9-69.36,6.29-102.81-1.77,14.73-4.99,29.58-5.74,44.54-4.1-12.48-15.5-22.43-28.36-22.6,7.7,1.1,22.96-7.61,28.26-1.93,1.67-2.71-4.95-4.57-6.95-4.85-39.11-.12-77.71-8.33-116.79-7.86-1.92-7.36-11.54-34.38-18.2-16.23-3.38,16.05-2.6,14.33,5.48,27.34-4.64,23.36-9.07,38.53-1.46,62.15-.06.08-.22-.03-.22.04,2.63-7.75.63-18.73,3.69-27.3,6.33,15.2,28.57,8.25,24.55-7.72-1.41-6.01-11.25-17.36-16.62-9.38,12.76-39.72,51.42,36.69,58.65,50.07Zm-66.99-79.24c-.37,0-.74.02-1.1.03-.16-.87-.24-1.75-.1-2.65.41.85.86,1.72,1.2,2.61Zm.49,2.56c-.02.54-.11,1.08-.34,1.63-.23-.64-.46-1.29-.68-1.95.34.1.68.21,1.03.31Zm7.34,30.5c.33,2.08,1.68,3.76,3.27,5.06-5.65-19.22,15.44,4.63,1.67,7.15l.05-.11c-4.72-1.91-5.36-7.63-5-12.09Z"/>
    <path class="cls-13" d="m730.08,349.4s-.04-.14-.08-.16c11.21,18.82,33.1,28.23,48.81,42.92-20.84-5.69-47.52-18.07-48.73-42.76Z"/>
    <path class="cls-14" d="m679.16,396.52c33-6.56,67.61-17.74,99.6-.19-33.14-5.22-67.12,6.27-99.6.19Z"/>
    <path class="cls-17" d="m712.98,373.29c-10.14,9.54-22.64,17.7-35.72,22.45-3.32,0-1.04-.25.36-1.32,14.2-15.56,31.88-27.85,50-38.1-3.2,6.79-9.89,11.27-14.63,16.97Z"/>
    <path class="cls-15" d="m759.83,435c4.06-12.57,8.89-32.11,22.2-36.92-15.45,22.41-13.51,58.86-30.19,82.06,2.55-14.97,3.81-30.41,8-45.14Z"/>
    <path class="cls-16" d="m731.7,469.69c-2.46-24.39.84-49.42,4.44-73.54,6.06,24.26,3.6,49.95-4.44,73.54Z"/>
    <path class="cls-11" d="m698.86,480.23c-10.13-27.1-11.01-57.42-22.2-83.81,19.26,13.37,25.49,61.91,22.2,83.81Z"/>
    <path class="cls-18" d="m700.63,480.39c-1.02-.02-2.04-.05-3.07-.13.81.59,1.69,1.11,2.6,1.59.03,9.34,12.45,12.09,20.11,13.67,2.27,7.94,14.03,8.68,16.06.25,7.9-1.18,15.88-4.85,18.07-12.99.28-1.2.28-3.72-1.6-3.13.13.15.51.22.71.38-.37,11.74-46.26,8.41-51.39,2.72,13.49,6.93,26.86-1.48,39.17-5.16,3.19-.22,8.33,1.91,10.51-.89-1.83,1.09-6.83-2.58-8.91-3.36-11.56-5.42-27.39,9.47-41.41,7.07-.03-.45.15-1.1.16-1.49-.45.47-.77.96-1.02,1.47Zm23.08,15.57c3.69.32,7.09.4,10.73.05-3.07,2.53-7.46,2.24-10.73-.05Z"/>
  </g>
</svg>