<?xml version="1.0" encoding="utf-8"?>
<!-- Generator: Adobe Illustrator 27.9.0, SVG Export Plug-In . SVG Version: 6.00 Build 0)  -->
<svg version="1.1" id="圖層_1" xmlns="http://www.w3.org/2000/svg" xmlns:xlink="http://www.w3.org/1999/xlink" x="0px" y="0px"
	 viewBox="0 0 178 151.4" style="enable-background:new 0 0 178 151.4;" xml:space="preserve">
<style type="text/css">
	.st0{fill:none;stroke:#FFFFFF;stroke-width:0.9492;stroke-miterlimit:10;}
	.st1{fill:none;stroke:#FFFFFF;stroke-width:1.8065;stroke-linecap:round;stroke-linejoin:round;stroke-miterlimit:10;}
	.st2{fill:none;stroke:#FFFFFF;stroke-width:0.9032;stroke-linecap:round;stroke-linejoin:round;stroke-miterlimit:10;}
</style>
<g id="BACKGROUND">
</g>
<g id="OBJECTS">
	<g>
		<g>
			<path class="st0" d="M138.3,56.4C164.4,39,172.5,24,172.5,24c-2.8,10.7-10.3,24.2-10.3,24.2l5.4-0.1
				c-10.3,21.8-30.6,29.4-30.6,29.4l2.8,3.7c-5,3.6-10.8,4.9-16.1,5c-9.8,0.2-18.1-3.6-18.9-3.9h-0.1c-1.5-2.1-3.4-3.5-5.3-4.5
				c1-0.5,2.1-1.2,2.9-2l0,0c11.8-5.1,21.7-10.4,30.1-15.7C134.5,58.9,136.5,57.7,138.3,56.4z"/>
			<path class="st0" d="M134.5,36.4C148,29.2,172.5,24,172.5,24s-8.3,15.1-34.3,32.6c-1.8,1.2-3.8,2.5-5.8,3.7c0,0-1.6-8.2,0.9-18.1
				L134.5,36.4z"/>
			<path class="st0" d="M133.3,32.1l1.1,4.2l-1,5.7c-2.6,10.1-0.9,18.1-0.9,18.1c-8.4,5.2-18.3,10.5-30.1,15.7
				c4.9-4.5,7.4-12.6,7.4-12.6c-5.5-0.1-9.7,0.8-12.8,1.9c0.7-1.6,1.1-3.3,1.4-5c0-0.1,0.1-0.1,0-0.2c3.1-12.7,13.5-20.1,13.5-20.1
				l3.3,4.6C120.9,35.8,133.3,32.1,133.3,32.1z"/>
			<path class="st0" d="M123.7,86.2c6.3,4.3,10.6,12.5,10.6,12.5s-16.9,0.9-29.5-5.1c-0.1-1-0.2-1.6-0.2-1.6l5.2,0.9
				c-1-4.7-2.8-8.1-4.9-10.6C105.6,82.6,114.1,86.4,123.7,86.2z"/>
			<path class="st0" d="M83,68.4C65.7,35.2,70.4,6.6,70.8,4.8c0-0.1,0-0.1,0-0.1S80.6,31,89.6,44.8l5.7-7.8c0,0,5.1,11.6,3.1,23
				c0,0.1,0,0.1,0,0.2c-0.3,1.7-0.8,3.3-1.4,5l0,0c-8.4,3.2-9,9.6-9.1,10.3c0,0,0,0-0.1,0c-0.2-0.2-0.7-0.5-1.3-1l0,0
				C85.2,72.5,84.1,70.4,83,68.4z"/>
			<path class="st0" d="M104.9,93.5c12.6,6.1,29.5,5.1,29.5,5.1c-15.8,5.2-29.1,0-29.1,0l0,0C105.1,96.5,104.9,94.8,104.9,93.5z"/>
			<path class="st0" d="M109.8,63.3c0,0-13.8,4.9-21.9,12.3c0.1-0.9,0.7-7.1,9.1-10.3l0,0C100.1,63.9,104.3,63.2,109.8,63.3z"/>
			<path class="st0" d="M87.9,75.5c8.2-7.3,21.9-12.3,21.9-12.3s-2.5,8.1-7.4,12.6l0,0c-0.9,0.9-1.9,1.5-2.9,2
				c-2.7,1.2-5.8,1.3-9.5-0.9C89.3,76.6,88.6,76.2,87.9,75.5C87.9,75.6,87.9,75.6,87.9,75.5z"/>
			<path class="st0" d="M104.9,93.5c0.2,1.1,0.3,2.9,0.4,5.1c0.3,6.5-0.3,16.7-5.3,24.2c0,0,0.3-21.9-6.2-38.2
				c-0.3-0.9-0.7-1.6-1-2.5c-0.9-1.9-1.8-3.6-2.8-5.2c3.7,2.2,6.8,2.1,9.5,0.9c1.9,1,3.8,2.4,5.5,4.5c0,0,0,0,0.1,0
				c2.1,2.5,3.9,5.9,4.9,10.6l-5.2-0.9C104.7,92,104.8,92.6,104.9,93.5z"/>
			<path class="st0" d="M92.8,82.2c0.4,0.8,0.8,1.6,1,2.5c6.5,16.2,6.2,38.2,6.2,38.2s-5.1-10.6-11.3-20.5c-0.7-1-1.3-2.1-2-3.1
				l-4.4,6c0,0-3.3-7.5-2.8-15.5c0-0.1,0-0.2,0-0.3c0.1-1.3,0.4-2.8,0.8-4.2c3-2,5.9-5.1,7.5-9.9c0.8,0.6,1.4,1,2.1,1.4
				C91,78.6,91.9,80.4,92.8,82.2z"/>
			<path class="st0" d="M87.8,75.5C87.9,75.6,87.9,75.6,87.8,75.5c-1.5,4.8-4.4,7.9-7.4,9.9c-6,3.9-12.8,3.7-12.8,3.7l0.7-4.6
				C63,85.4,54,84.7,54,84.7S69.8,73,87.8,75.5z"/>
			<path class="st0" d="M83,68.4c1,2,2.2,4.1,3.4,6.2c-2.6-1.7-8.2-4.7-15-3.2c-0.8-0.4-1.4-0.9-2.2-1.4c0,0-0.1-0.1-0.3-0.2
				C62.8,65,57.6,56.5,58.2,41.3l6.7,1.2c0,0-4.1-15,5.7-37.7C70.4,6.6,65.7,35.2,83,68.4z"/>
			<path class="st0" d="M86.4,74.6c0.7,0.5,1.1,0.9,1.3,1C69.8,73.1,54,84.8,54,84.8c2.8-4.1,5.8-7.1,8.5-9.2l0,0
				c0.8-0.6,1.5-1,2.2-1.5c2.3-1.4,4.6-2.2,6.6-2.7C78.4,69.9,84,72.9,86.4,74.6L86.4,74.6z"/>
			<path class="st0" d="M79.9,113.6c1.1-2.8,2-5.5,2.4-8.3l4.4-6c0.7,1,1.3,2.1,2,3.1c-0.2,24.2-33.2,44.2-33.2,44.2
				S73.1,130.4,79.9,113.6z"/>
			<path class="st0" d="M44.4,85c5.6-3.7,11.6-7,18.1-9.6c-2.8,2.1-5.7,5.1-8.5,9.2c0,0,9.1,0.8,14.2-0.2L67.5,89
				c0,0,6.8,0.3,12.8-3.7c-0.4,1.3-0.7,2.8-0.8,4.2c0,0.1,0,0.2,0,0.3C78.2,99.6,66.1,110,66.1,110l-3.3-4.6
				c-2.8,4.3-7.2,7.3-11,9.3c-3.9,2.1-7,3-7,3l-1.1-4.2C30,120.8,5.5,126,5.5,126l0,0c0.4-0.7,10.3-17.1,27.2-31.9
				C36.3,90.9,40.2,87.8,44.4,85z"/>
			<path class="st0" d="M32.7,94c-17.1,14.8-26.9,31.2-27.2,31.9c2.8-10.7,10.3-24.2,10.3-24.2l-5.4,0.1
				C20.6,80,40.9,72.3,40.9,72.3l-2.8-3.7c13.7-9.9,28.9-0.5,30.9,0.9c0.2,0.1,0.3,0.2,0.3,0.2c0.8,0.6,1.4,1,2.2,1.4
				c-2.1,0.5-4.4,1.2-6.6,2.7c-0.8,0.5-1.4,0.9-2.2,1.5l0,0c-6.5,2.6-12.6,5.9-18.1,9.6C40.2,87.8,36.3,90.9,32.7,94z"/>
			<path class="st0" d="M79.9,113.6c-6.8,16.8-24.4,33.1-24.4,33.1c1-6.7,1.1-22,1.1-22l-5.9,2.3l0.9-12.1l0,0c3.8-2,8.3-5,11-9.3
				l3.3,4.6c0,0,12.1-10.3,13.5-20.2c-0.7,8,2.8,15.5,2.8,15.5C81.9,108,81,110.7,79.9,113.6z"/>
		</g>
		<g>
			<path class="st1" d="M70.8,4.8c0,0,9.8,26.3,18.8,40.1l5.7-7.8c0,0,5.1,11.6,3.1,23"/>
			<path class="st1" d="M69.1,69.6c-6.2-4.7-11.4-13.2-10.7-28.4l6.7,1.2c0,0-4.1-15,5.7-37.7"/>
			<path class="st1" d="M71.4,71.2c-0.8-0.4-1.4-0.9-2.2-1.4"/>
			<path class="st1" d="M98.4,60.1c-0.3,1.7-0.8,3.3-1.4,5"/>
			<path class="st1" d="M99.4,77.9c1.9,1,3.8,2.4,5.5,4.5"/>
			<path class="st1" d="M79.6,89.6c0.1-1.3,0.4-2.8,0.8-4.2"/>
			<path class="st1" d="M104.9,82.3c2.1,2.5,3.9,5.9,4.9,10.6l-5.2-0.9c0,0,0.1,0.6,0.2,1.6c0.2,1.1,0.3,2.9,0.4,5.1
				c0.3,6.5-0.3,16.7-5.3,24.2c0,0-5.1-10.6-11.3-20.5c-0.7-1-1.3-2.1-2-3.1l-4.4,6c0,0-3.3-7.5-2.8-15.5"/>
			<path class="st1" d="M98.4,60.3c0-0.1,0-0.1,0-0.2s0.1-0.1,0-0.2c3.1-12.7,13.5-20.1,13.5-20.1l3.3,4.6c5.6-8.6,18-12.3,18-12.3
				l1.1,4.2c13.6-7.2,38.1-12.4,38.1-12.4C169.6,34.5,162.2,48,162.2,48l5.4-0.1C157.3,69.7,137,77.3,137,77.3l2.8,3.7
				c-5,3.6-10.8,4.9-16.1,5c-9.8,0.2-18.1-3.6-18.9-3.9h-0.1"/>
			<path class="st1" d="M5.5,126c2.8-10.7,10.3-24.2,10.3-24.2l-5.4,0.1c10.3-21.8,30.6-29.5,30.6-29.5l-2.8-3.7
				c13.7-9.9,28.9-0.5,30.9,0.9c0.2,0.1,0.3,0.2,0.3,0.2"/>
			<path class="st1" d="M79.6,89.6c0,0.1,0,0.2,0,0.3c-1.4,9.9-13.5,20.2-13.5,20.2l-3.3-4.6c-2.8,4.3-7.2,7.3-11,9.3
				c-3.9,2.1-7,3-7,3l-1.1-4.2C30,120.8,5.5,126,5.5,126"/>
			<path class="st1" d="M86.4,74.6c0.7,0.5,1.1,0.9,1.3,1c0.1,0.1,0.1,0.1,0.1,0.1c-1.6,4.7-4.5,7.9-7.5,9.9
				c-6,3.9-12.8,3.7-12.8,3.7l0.7-4.6C63,85.6,54,84.9,54,84.9c2.8-4.1,5.8-7.1,8.5-9.2"/>
			<path class="st1" d="M62.6,75.4c0.8-0.6,1.5-1,2.2-1.5c2.3-1.4,4.6-2.2,6.6-2.7c6.9-1.3,12.5,1.6,15,3.2"/>
			<path class="st1" d="M102.4,75.9c-0.9,0.9-1.9,1.5-2.9,2c-2.7,1.2-5.8,1.3-9.5-0.9c-0.7-0.4-1.3-0.9-2.1-1.4c0,0,0,0,0-0.1
				c0.1-0.9,0.7-7.1,9.1-10.3l0,0c3.1-1.2,7.3-2,12.8-1.9C109.8,63.3,107.3,71.3,102.4,75.9"/>
			<path class="st2" d="M5.5,126L5.5,126c0.5-0.8,10.3-17.1,27.2-32c3.6-3.1,7.5-6.2,11.7-9c5.6-3.7,11.6-7,18.1-9.6l0,0"/>
			<path class="st2" d="M172.5,24c0,0-8.3,15.1-34.3,32.6c-1.8,1.2-3.8,2.5-5.8,3.7c-8.4,5.2-18.3,10.5-30.1,15.7l0,0"/>
			<path class="st2" d="M70.8,4.8L70.8,4.8C70.4,6.6,65.7,35.2,83,68.4c1,2,2.2,4.1,3.4,6.2l0,0"/>
			<path class="st2" d="M100,122.9c0,0,0.3-21.9-6.2-38.2c-0.3-0.9-0.7-1.6-1-2.5c-0.9-1.9-1.8-3.6-2.8-5.2"/>
			<path class="st2" d="M54,84.7c0,0,15.8-11.7,33.8-9.2c0,0,0,0,0.1,0"/>
			<path class="st2" d="M109.8,63.3c0,0-13.8,4.9-21.9,12.3"/>
			<path class="st1" d="M51.7,114.8l-0.9,12.1l5.9-2.3c0,0-0.2,15.3-1.1,22c0,0,32.9-20,33.2-44.2"/>
			<path class="st1" d="M105.2,98.7c0,0,13.4,5.3,29.1,0c0,0-4.3-8.3-10.6-12.5"/>
			<path class="st2" d="M55.5,146.6c0,0,17.5-16.2,24.4-33.1c1.1-2.8,2-5.5,2.4-8.3"/>
			<path class="st2" d="M134.4,98.7c0,0-16.9,0.9-29.5-5.1l0,0"/>
			<path class="st2" d="M47,72.3c0,0,8.9-1.9,17.8,1.6"/>
			<path class="st2" d="M20.2,99.1c0,0,6.5-4.1,12.4-5"/>
			<path class="st2" d="M44.4,108.3c0,0,4.1-13.9,0-23.3"/>
			<path class="st2" d="M61.3,121.9c0,0,8.3-5.6,18.6-8.4l0,0"/>
			<path class="st2" d="M110.9,71.9c0,0,8.8,5.6,21.3,4.8"/>
			<path class="st2" d="M138.3,56.4c0,0,10.3-0.1,19.6-5.2"/>
			<path class="st2" d="M132.5,60.2c0,0-1.6-8.2,0.9-18.1"/>
			<path class="st2" d="M67.5,47.6c0,0,3.7,8.4,11.3,11.9"/>
			<path class="st2" d="M83,68.4L83,68.4c0.4-0.4,6.9-7,6.4-17.5"/>
			<path class="st2" d="M88.4,95.1c0,0,0.9-8.4,4.4-12.9l0,0"/>
			<path class="st2" d="M93.8,84.7c0,0,4.6,1.2,7.8,5"/>
		</g>
	</g>
</g>
<g id="TEXTS">
</g>
</svg>
