<?xml version="1.0" encoding="utf-8"?>
<!-- Generator: Adobe Illustrator 27.9.0, SVG Export Plug-In . SVG Version: 6.00 Build 0)  -->
<svg version="1.1" xmlns="http://www.w3.org/2000/svg" xmlns:xlink="http://www.w3.org/1999/xlink" x="0px" y="0px"
	 viewBox="0 0 143.8 147.6" style="enable-background:new 0 0 143.8 147.6;" xml:space="preserve">
<style type="text/css">
	.st0{fill:#F3F0E7;}
	.st1{clip-path:url(#SVGID_00000146469079145321060470000004006423110887343006_);}
	.st2{fill:none;stroke:#7B6117;stroke-width:3.7752;stroke-linecap:round;stroke-linejoin:round;stroke-miterlimit:10;}
	.st3{fill:#599942;}
	.st4{fill:#FF494B;}
	.st5{fill:none;stroke:#7B6117;stroke-width:0.9516;stroke-linecap:round;stroke-linejoin:round;stroke-miterlimit:10;}
	.st6{fill:none;stroke:#7B6117;stroke-width:1.9032;stroke-linecap:round;stroke-linejoin:round;stroke-miterlimit:10;}
	.st7{fill:#FF7D1D;}
	.st8{fill:#FFBF29;}
	.st9{fill:none;stroke:#7B6117;stroke-width:0.9516;stroke-miterlimit:10;}
	.st10{fill:none;stroke:#7B6117;stroke-width:1.9032;stroke-miterlimit:10;}
</style>
<g id="BACKGROUND">
</g>
<g id="OBJECTS">
	<g>
		<g>
			<path class="st0" d="M142.9,70.5C142.9,70.5,142.9,70.5,142.9,70.5c0,0-7.2-0.4-16.1-0.3c-1.3,0-2.5,0-3.7-0.1
				c-2.5-0.1-4.7-0.3-6.6-0.7c-6.1-1-9.5-2.6-9.8-2.8c0,0,0,0,0,0c-2.1-1.6-4.4-3.1-6.9-4.6c0.4,0,5,0.6,11.2,0.3c0.1,0,0.2,0,0.3,0
				C130.3,61.8,142.2,70,142.9,70.5z"/>
			<path class="st0" d="M122.8,60.8c15.2,1.1,19.8,9.2,20.1,9.7c-0.6-0.5-12.6-8.7-31.6-8.1C114.8,62.3,118.8,61.8,122.8,60.8z"/>
			<path class="st0" d="M132,21.4c0,0,2,13.8-21,28.6c-4.3,2.7-9.4,5.5-15.5,8.3c-0.6-0.6-1.3-1.3-2.1-2.2C122,39,132,21.4,132,21.4
				z"/>
			<path class="st0" d="M132,21.4c0,0-10,17.6-38.6,34.8c-0.5-0.6-1.1-1.2-1.6-1.8c0,0,0.4-1.2,1.3-3.1c1.2-2.5,3.3-6.3,6.6-10.5
				C105.9,33.1,116.1,24.5,132,21.4z"/>
			<path class="st0" d="M130.6,80C130.6,80,130.6,80,130.6,80c-0.5-0.5-7.8-8.1-14.1-10.5c1.9,0.3,4.2,0.6,6.6,0.7
				C127.6,73.5,130.6,80,130.6,80z"/>
			<path class="st0" d="M122.8,60.8c-4,1-8,1.5-11.5,1.6c-0.1,0-0.2,0-0.3,0c-6.2,0.3-10.8-0.3-11.2-0.3c0,0,0,0,0,0
				S98.2,61,96,58.8c28,0,43.8-7.7,43.8-7.7C135.3,56.3,129,59.2,122.8,60.8z"/>
			<path class="st0" d="M116.4,69.5c6.3,2.4,13.7,10,14.1,10.5c-9.7-1.5-17-7-17.9-7.6c-1.7-2-3.7-3.8-6-5.6
				C106.9,66.8,110.3,68.5,116.4,69.5z"/>
			<path class="st0" d="M139.7,51.1c0,0-15.7,7.7-43.8,7.7c-0.2-0.1-0.3-0.3-0.5-0.5c6.1-2.7,11.2-5.5,15.5-8.3
				C123.1,46.6,139.7,51.1,139.7,51.1z"/>
			<path class="st4" d="M112.6,72.3c10.2,11.7,10.3,26.6-2.8,43.8c-12.7,16.7-35.5,24.4-61.9,28.8C28,148.2,9.7,148.6,3.3,131
				c-6.8-18.9,2.5-30.8,7.9-60.9c7.6-42.4,50.6-41.4,68.3-30c0,0,0,0,0,0c2.7,1.7,4.8,3.7,6.2,5.8c0.1,0.1,0.1,0.2,0.1,0.2
				c1.2,1.9,2.3,3.7,3.5,5.2c0.8,1.1,1.6,2.1,2.4,3c0.6,0.7,1.1,1.3,1.6,1.8c0.7,0.8,1.4,1.5,2.1,2.2c0.2,0.2,0.3,0.3,0.5,0.5
				c2.2,2.2,3.7,3.3,3.7,3.3s0,0,0,0c2.5,1.4,4.8,3,6.9,4.6c0,0,0,0,0,0C108.9,68.5,110.9,70.3,112.6,72.3z M97.6,85.4
				c-1.2,3.6,6.1,0.3,4.3-2.1c-0.5-0.6-1.3-1-2.1-0.8C99.2,82.7,98.3,83.4,97.6,85.4z M98.4,109.8c-1.2,3.6,6.1,0.3,4.4-2.1
				c-0.5-0.7-1.3-1-2.1-0.8C100,107.1,99.1,107.8,98.4,109.8z M76.4,61.5c-1.2,3.6,6.1,0.3,4.3-2.1c-0.5-0.7-1.3-1-2.1-0.8
				C77.9,58.8,77,59.5,76.4,61.5z M74.5,89.1c-1.2,3.6,6.1,0.3,4.4-2.1c-0.5-0.6-1.3-1-2.1-0.8C76,86.4,75.1,87.1,74.5,89.1z
				 M73.1,109.6c-1.2,3.6,6.1,0.3,4.4-2.1c-0.5-0.6-1.3-1-2.1-0.8C74.7,106.9,73.8,107.6,73.1,109.6z M49.6,47
				c-1.2,3.6,6.1,0.3,4.3-2.1c-0.5-0.7-1.3-1-2.1-0.8C51.1,44.3,50.2,45,49.6,47z M55.3,130.4c-2.4,2.9,5.6,2.5,4.8-0.4
				c-0.2-0.8-0.9-1.4-1.7-1.5C57.7,128.4,56.6,128.8,55.3,130.4z M44.9,76.4c-1.2,3.6,6.1,0.3,4.3-2.1c-0.5-0.6-1.3-1-2.1-0.8
				C46.5,73.7,45.6,74.5,44.9,76.4z M48.2,107.7c-0.1-0.8-0.7-1.5-1.5-1.6c-0.7-0.1-1.9,0.1-3.3,1.5
				C40.6,110.3,48.6,110.7,48.2,107.7z M24.5,60.6c0.1,3.8,5.9-1.7,3.4-3.4c-0.7-0.5-1.5-0.5-2.2,0C25,57.6,24.4,58.5,24.5,60.6z
				 M20.5,94.2c-1.2,3.6,6.1,0.3,4.3-2.1c-0.5-0.7-1.3-1-2.1-0.8C22.1,91.5,21.2,92.2,20.5,94.2z M18.8,124.5
				c-1.2,3.6,6.1,0.3,4.4-2.1c-0.5-0.7-1.3-1-2.1-0.8C20.3,121.9,19.5,122.6,18.8,124.5z"/>
			<path class="st0" d="M100,9.9c0,0,5.2,19.7-0.2,30.9c-3.3,4.1-5.4,7.9-6.6,10.5C91.5,33.6,100,9.9,100,9.9z"/>
			<path class="st0" d="M100,9.9c0,0-8.4,23.7-6.8,41.4c-0.9,1.9-1.3,3.1-1.3,3.1c-0.8-0.9-1.6-1.9-2.4-3c0,0-1.3-5.7-0.6-13.9
				c0.3-3.4,1-7.3,2.3-11.4C92.9,20.9,95.6,15.3,100,9.9z"/>
			<path class="st0" d="M102,83.2c1.7,2.4-5.5,5.8-4.3,2.1c0.7-2,1.5-2.7,2.3-2.9C100.7,82.2,101.5,82.6,102,83.2z"/>
			<path class="st0" d="M74.1,1c0,0,15,7.2,17.1,25.2c-1.3,4.1-2,7.9-2.3,11.4C85.9,12.1,74.8,1.6,74.1,1C74.1,1,74.1,1,74.1,1z"/>
			<path class="st0" d="M102.8,107.6c1.7,2.4-5.5,5.7-4.4,2.1c0.7-2,1.5-2.7,2.3-2.9C101.5,106.7,102.3,107,102.8,107.6z"/>
			<path class="st0" d="M74.1,1c0.7,0.6,11.7,11.1,14.7,36.5c-0.8,8.2,0.6,13.9,0.6,13.9c-1.2-1.6-2.3-3.3-3.5-5.2
				c0,0,0-0.1-0.1-0.2c-0.4-0.8-2.3-4.3-4.1-11c-0.6-2.1-1.2-4.6-1.7-7.4l0,0c-0.3-1.5-0.6-3.1-0.8-4.8C77,8.5,74.3,1.6,74.1,1z"/>
			<path class="st0" d="M81.6,34.9c1.8,6.7,3.7,10.2,4.1,11c-1.3-2.1-3.4-4.1-6.2-5.8c0,0,0,0,0,0c-0.9-0.6-15-10.8-19.2-19.2
				c0,0,0,0,0,0C61.3,21.3,74.9,28,81.6,34.9z"/>
			<path class="st0" d="M80,27.6c0.5,2.8,1.1,5.2,1.7,7.4c-6.7-6.9-20.4-13.6-21.2-14C61.2,20.9,73.6,21.6,80,27.6L80,27.6z"/>
			<path class="st0" d="M80.7,59.4c1.8,2.4-5.5,5.7-4.3,2.1c0.7-2,1.5-2.7,2.3-2.9C79.4,58.4,80.2,58.7,80.7,59.4z"/>
			<path class="st0" d="M78.8,87c1.7,2.4-5.5,5.8-4.4,2.1c0.7-2,1.5-2.7,2.3-2.9C77.5,86,78.3,86.4,78.8,87z"/>
			<path class="st0" d="M77.5,107.4c1.7,2.4-5.5,5.8-4.4,2.1c0.7-2,1.5-2.7,2.3-2.9C76.1,106.5,77,106.8,77.5,107.4z"/>
			<path class="st0" d="M53.9,44.9c1.7,2.4-5.5,5.7-4.3,2.1c0.7-2,1.5-2.7,2.3-2.9C52.6,43.9,53.4,44.2,53.9,44.9z"/>
			<path class="st0" d="M60.1,130c0.8,2.9-7.2,3.4-4.8,0.4c1.3-1.6,2.4-2,3.1-1.9C59.2,128.6,59.9,129.2,60.1,130z"/>
			<path class="st0" d="M49.3,74.3c1.7,2.4-5.5,5.8-4.3,2.1c0.6-2,1.5-2.7,2.3-2.9C48,73.3,48.8,73.7,49.3,74.3z"/>
			<path class="st0" d="M46.7,106.1c0.8,0.2,1.4,0.8,1.5,1.6c0.4,3-7.5,2.6-4.8-0.1C44.8,106.1,45.9,105.9,46.7,106.1z"/>
			<path class="st0" d="M27.9,57.2c2.5,1.7-3.3,7.2-3.4,3.4c0-2.1,0.6-3,1.2-3.5C26.3,56.6,27.2,56.7,27.9,57.2z"/>
			<path class="st0" d="M24.9,92c1.7,2.4-5.5,5.7-4.3,2.1c0.7-2,1.5-2.7,2.3-2.9C23.6,91,24.4,91.4,24.9,92z"/>
			<path class="st0" d="M23.2,122.4c1.7,2.4-5.5,5.7-4.4,2.1c0.7-2,1.5-2.7,2.3-2.9C21.8,121.4,22.7,121.8,23.2,122.4z"/>
		</g>
		<g>
			<path class="st6" d="M106.6,66.7c-2.1-1.6-4.4-3.1-6.9-4.6"/>
			<path class="st6" d="M79.6,40.1c-17.8-11.4-60.7-12.4-68.3,30c-5.4,30.2-14.7,42-7.9,60.9c6.3,17.6,24.6,17.1,44.5,13.9
				c26.5-4.3,49.3-12.1,61.9-28.8c13.1-17.2,13.1-32.2,2.8-43.8c-1.7-2-3.7-3.8-6-5.6"/>
			<path class="st6" d="M85.8,45.9c-1.3-2.1-3.4-4.1-6.2-5.8"/>
			<path class="st6" d="M99.7,62.1c0,0-1.5-1.1-3.7-3.3c-0.2-0.1-0.3-0.3-0.5-0.5c-0.6-0.6-1.3-1.3-2.1-2.2
				c-0.5-0.6-1.1-1.2-1.6-1.8c-0.8-0.9-1.6-1.9-2.4-3c-1.2-1.6-2.3-3.3-3.5-5.2"/>
			<path class="st6" d="M91.8,54.3c0,0,0.4-1.2,1.3-3.1c1.2-2.5,3.3-6.3,6.6-10.5c6.1-7.7,16.3-16.3,32.2-19.4c0,0,2,13.8-21,28.6
				c-4.3,2.7-9.4,5.5-15.5,8.3l0,0"/>
			<path class="st6" d="M89.4,51.3c0,0-1.3-5.7-0.6-13.9c0.3-3.4,1-7.3,2.3-11.4c1.7-5.3,4.4-10.8,8.8-16.2c0,0,5.2,19.7-0.2,30.9"
				/>
			<path class="st6" d="M74.1,1c0,0,15,7.2,17.1,25.2"/>
			<path class="st6" d="M80,27.6c-0.3-1.5-0.6-3.1-0.8-4.8C77,8.5,74.3,1.6,74.1,1"/>
			<path class="st6" d="M85.9,46.1c0,0,0-0.1-0.1-0.2c-0.4-0.8-2.3-4.3-4.1-11c-0.6-2.1-1.2-4.6-1.7-7.4"/>
			<path class="st6" d="M60.4,20.9c0.8,0,13.1,0.7,19.5,6.7l0,0"/>
			<path class="st6" d="M79.6,40.1C79.6,40.1,79.6,40.1,79.6,40.1c-0.9-0.7-15-10.8-19.2-19.2"/>
			<path class="st6" d="M111.2,62.4c3.5-0.2,7.5-0.6,11.5-1.6c6.2-1.6,12.5-4.5,16.9-9.7c0,0-16.6-4.5-28.8-1.1"/>
			<path class="st6" d="M99.7,62.1C99.7,62.1,99.7,62.1,99.7,62.1c0.4,0,5,0.7,11.3,0.4"/>
			<path class="st6" d="M142.9,70.5c-0.3-0.5-4.8-8.6-20.1-9.7c0,0,0,0,0,0"/>
			<path class="st6" d="M106.6,66.7C106.6,66.7,106.6,66.7,106.6,66.7c0.3,0.2,3.8,1.8,9.9,2.8c1.9,0.3,4.2,0.6,6.6,0.7
				c1.2,0.1,2.4,0.1,3.7,0.1c8.9-0.1,16.1,0.3,16.1,0.3"/>
			<path class="st6" d="M130.6,80c0,0-3-6.4-7.5-9.9"/>
			<path class="st6" d="M112.5,72.2C112.5,72.2,112.6,72.3,112.5,72.2c1,0.7,8.3,6.2,18,7.7"/>
			<path class="st6" d="M24.9,92c-0.5-0.7-1.3-1-2.1-0.8c-0.7,0.2-1.6,0.9-2.3,2.9C19.3,97.8,26.6,94.5,24.9,92z"/>
			<path class="st6" d="M102.8,107.6c-0.5-0.7-1.3-1-2.1-0.8c-0.7,0.2-1.6,0.9-2.3,2.9C97.3,113.4,104.5,110.1,102.8,107.6z"/>
			<path class="st6" d="M53.9,44.9c-0.5-0.7-1.3-1-2.1-0.8c-0.7,0.2-1.6,0.9-2.3,2.9C48.3,50.6,55.6,47.3,53.9,44.9z"/>
			<path class="st6" d="M77.5,107.4c-0.5-0.6-1.3-1-2.1-0.8c-0.7,0.2-1.6,0.9-2.3,2.9C71.9,113.2,79.2,109.9,77.5,107.4z"/>
			<path class="st6" d="M78.8,87c-0.5-0.6-1.3-1-2.1-0.8c-0.7,0.2-1.6,0.9-2.3,2.9C73.3,92.8,80.6,89.4,78.8,87z"/>
			<path class="st6" d="M102,83.2c-0.5-0.6-1.3-1-2.1-0.8c-0.7,0.2-1.6,0.9-2.3,2.9C96.5,89,103.7,85.7,102,83.2z"/>
			<path class="st6" d="M80.7,59.4c-0.5-0.7-1.3-1-2.1-0.8c-0.7,0.2-1.6,0.9-2.3,2.9C75.2,65.1,82.5,61.8,80.7,59.4z"/>
			<path class="st6" d="M49.3,74.3c-0.5-0.6-1.3-1-2.1-0.8c-0.7,0.2-1.6,0.9-2.3,2.9C43.7,80.1,51,76.7,49.3,74.3z"/>
			<path class="st6" d="M48.2,107.7c-0.1-0.8-0.7-1.5-1.5-1.6c-0.7-0.1-1.9,0.1-3.3,1.5C40.6,110.3,48.6,110.7,48.2,107.7z"/>
			<path class="st6" d="M60.1,130c-0.2-0.8-0.9-1.4-1.7-1.5c-0.7-0.1-1.8,0.3-3.1,1.9C52.8,133.3,60.8,132.9,60.1,130z"/>
			<path class="st6" d="M23.2,122.4c-0.5-0.7-1.3-1-2.1-0.8c-0.7,0.2-1.6,0.9-2.3,2.9C17.6,128.2,24.9,124.9,23.2,122.4z"/>
			<path class="st6" d="M27.9,57.2c-0.7-0.5-1.5-0.5-2.2,0c-0.6,0.4-1.2,1.4-1.2,3.5C24.5,64.4,30.3,58.9,27.9,57.2z"/>
			<path class="st5" d="M100,9.9c0,0-8.4,23.7-6.8,41.4"/>
			<path class="st5" d="M74.1,1C74.1,1,74.1,1,74.1,1c0.7,0.6,11.8,11.2,14.8,36.5"/>
			<path class="st5" d="M60.4,20.9C60.4,20.9,60.4,20.9,60.4,20.9c0.9,0.4,14.5,7.1,21.2,14.1"/>
			<path class="st5" d="M132,21.4c0,0-10,17.6-38.6,34.8"/>
			<path class="st5" d="M139.7,51.1c0,0-15.7,7.7-43.8,7.7l0,0"/>
			<path class="st5" d="M142.9,70.5C142.9,70.5,142.9,70.5,142.9,70.5c-0.7-0.5-12.6-8.7-31.6-8.1c-0.1,0-0.2,0-0.3,0"/>
			<path class="st5" d="M130.6,80C130.6,80,130.6,80,130.6,80c-0.5-0.5-7.8-8.1-14.1-10.5"/>
			<path class="st5" d="M5.3,114.9c0,0-0.2-4.5,1.9-11.9c2-7.4,6.9-20.6,7.9-31.3"/>
			<path class="st5" d="M5.5,119.6c0,0,0.1,4.7,1.4,8.6"/>
			<path class="st5" d="M15.5,68.1c0,0,0.5-3.5,1.6-6.6"/>
			<path class="st5" d="M12.3,97.3c0,0-2,4.5-2.7,10.8"/>
		</g>
	</g>
</g>
<g id="TEXTS">
</g>
</svg>
