<?xml version="1.0" encoding="utf-8"?>
<!-- Generator: Adobe Illustrator 27.9.0, SVG Export Plug-In . SVG Version: 6.00 Build 0)  -->
<svg version="1.1" id="圖層_1" xmlns="http://www.w3.org/2000/svg" xmlns:xlink="http://www.w3.org/1999/xlink" x="0px" y="0px"
	 viewBox="0 0 149 208.7" style="enable-background:new 0 0 149 208.7;" xml:space="preserve">
<style type="text/css">
	.st0{fill:none;}
	.st1{fill:none;stroke:#FFFFFF;stroke-miterlimit:10;}
	.st2{fill:none;stroke:#FFFFFF;stroke-width:1.9032;stroke-linecap:round;stroke-linejoin:round;stroke-miterlimit:10;}
	.st3{fill:none;stroke:#FFFFFF;stroke-width:0.9516;stroke-linecap:round;stroke-linejoin:round;stroke-miterlimit:10;}
</style>
<g>
	<g id="BACKGROUND">
	</g>
	<g id="OBJECTS">
		<g>
			<g>
				<path class="st0" d="M60.9,48.7C87.4,50.9,99.2,65,97.8,81c-0.9,10.5-7.2,19.2-18.8,23.3c-2.4,0.8-4.9,1.5-7.7,1.9
					c-4.5,0.7-9.7,0.9-15.3,0.4c-26.5-2.3-46.8-17-45.5-33.1c0.8-10,9.9-18.1,23.1-22.2c1.7-0.6,3.6-1,5.5-1.4
					C45.7,48.5,53.1,48,60.9,48.7z"/>
				<path class="st1" d="M79,104.3c22.1,31,46.3,66.7,69,103.4c-27.9-34.3-54.3-69.8-76.7-101.5C74.1,105.8,76.6,105.2,79,104.3z"/>
				<path class="st1" d="M1,1c0,0,15.3,18.8,38.1,49c-1.9,0.4-3.7,0.9-5.5,1.4C13.2,20.9,1,1,1,1z"/>
			</g>
			<g>
				<path class="st2" d="M33.6,51.4C13.2,20.9,1,1,1,1s15.3,18.8,38.1,49"/>
				<path class="st2" d="M79,104.3c22.1,31,46.3,66.7,69,103.4c-27.9-34.3-54.3-69.8-76.7-101.5"/>
				<path class="st2" d="M39.1,50c6.6-1.4,14.1-1.9,21.8-1.3C87.4,50.9,99.2,65,97.8,81c-0.9,10.5-7.2,19.2-18.8,23.3
					c-2.4,0.8-4.9,1.5-7.7,1.9c-4.5,0.7-9.7,0.9-15.3,0.4c-26.5-2.3-46.8-17-45.5-33.1c0.8-10,9.9-18.1,23.1-22.2
					C35.4,50.8,37.2,50.4,39.1,50z"/>
				<path class="st2" d="M19,82.8c0,0,0.4-0.3,1.1-0.9c1.9-1.8,5.4-6.5,0.9-14"/>
				<path class="st2" d="M20,82c0,0-2.6-2.4-2.3-8.6"/>
				<path class="st3" d="M52.9,100.8c0,0,20,3.4,33.5-6.7"/>
				<path class="st3" d="M61.6,97.1c0,0,10.8-0.2,17.1-3.8"/>
			</g>
		</g>
		<g>
			<g>
				<path class="st1" d="M42.9,171c0,0-10.3,17.2-28.3,21.9c-0.1,0-0.1,0-0.1,0C22.8,172.8,42.9,171,42.9,171z"/>
				<path class="st1" d="M16.3,193.3L16.3,193.3c-0.9-0.2-1.5-0.4-1.7-0.4c17.9-4.7,28.3-21.9,28.3-21.9c-1.1,5-2.6,9-4.4,12.1l0,0
					c-0.5,0.8-1,1.6-1.5,2.3c-1.6,2.2-3.4,3.9-5.2,5.1C25.8,194.5,19.4,194,16.3,193.3z"/>
			</g>
			<g>
				<path class="st2" d="M16.3,193.3c-0.9-0.2-1.4-0.4-1.7-0.4c-0.1,0-0.1,0-0.1,0c7.3-19.3,28.4-21.8,28.4-21.8
					c-1.1,5-2.6,9-4.4,12.1"/>
				<path class="st2" d="M38.5,183.1c-0.5,0.8-1,1.6-1.5,2.3c-1.6,2.2-3.4,3.9-5.2,5.1c-6,4-12.4,3.4-15.4,2.8"/>
				<path class="st3" d="M42.9,171c0,0-10.3,17.2-28.3,21.9c0,0,0,0-0.1,0"/>
			</g>
		</g>
	</g>
	<g id="TEXTS">
	</g>
</g>
</svg>
