<?xml version="1.0" encoding="utf-8"?>
<!-- Generator: Adobe Illustrator 27.9.0, SVG Export Plug-In . SVG Version: 6.00 Build 0)  -->
<svg version="1.1" id="圖層_1" xmlns="http://www.w3.org/2000/svg" xmlns:xlink="http://www.w3.org/1999/xlink" x="0px" y="0px"
	 viewBox="0 0 227.9 185.2" style="enable-background:new 0 0 227.9 185.2;" xml:space="preserve">
<style type="text/css">
	.st0{fill:none;stroke:#FFFFFF;stroke-miterlimit:10;}
	.st1{fill:#FFFFFF;}
	.st2{fill:none;stroke:#FFFFFF;stroke-width:0.9516;stroke-linecap:round;stroke-linejoin:round;stroke-miterlimit:10;}
	.st3{fill:none;stroke:#FFFFFF;stroke-width:1.9032;stroke-linecap:round;stroke-linejoin:round;stroke-miterlimit:10;}
</style>
<g id="BACKGROUND">
</g>
<g id="OBJECTS">
	<g>
		<g>
			<path class="st0" d="M197.5,9.3L210,1.9c34.1,57.8,15,132.2-42.7,166.3c-57.8,34.1-132.2,15-166.3-42.7l12.5-7.4
				c30.1,50.8,95.6,67.7,146.4,37.6C210.7,125.7,227.6,60.1,197.5,9.3z"/>
			<path class="st0" d="M191,13.2l6.6-3.9c30.1,50.8,13.2,116.4-37.6,146.4c-51,30.1-116.5,13.2-146.5-37.6l6.6-3.9
				c6.9,11.6,15.7,21.3,25.9,28.9c15.8,11.8,34.7,18.6,54.2,19.7c18.9,1,38.3-3.3,55.8-13.7s30.7-25.3,38.9-42.3
				c8.5-17.6,11.7-37.5,8.9-57C202,37.3,197.8,24.8,191,13.2z"/>
			<path class="st1" d="M105.5,63.7L191,13.2c6.9,11.6,11.1,24.1,12.9,36.7l0,0L105.5,63.7z"/>
			<path class="st1" d="M203.8,49.8L203.8,49.8c2.8,19.5-0.4,39.4-8.9,57l-89.4-43.1L203.8,49.8z"/>
			<path class="st1" d="M105.5,63.7l89.4,43.1c-8.2,17.1-21.4,32-38.9,42.3L105.5,63.7z"/>
			<path class="st1" d="M105.5,63.7l50.5,85.5c-17.5,10.4-36.9,14.7-55.8,13.7L105.5,63.7z"/>
			<path class="st1" d="M105.5,63.7l-5.3,99.1c-19.5-1.1-38.4-7.9-54.2-19.7L105.5,63.7z"/>
			<path class="st1" d="M105.5,63.7L46,143.1c-10.2-7.6-19-17.3-25.9-28.9L105.5,63.7z"/>
		</g>
		<g>
			<path class="st2" d="M191,13.2c6.9,11.6,11.1,24.1,12.9,36.7c2.8,19.6-0.4,39.4-8.9,57c-8.2,17.1-21.4,32-38.9,42.3
				c-17.5,10.4-36.9,14.7-55.8,13.7c-19.5-1.1-38.4-7.9-54.2-19.7c-10.2-7.6-19-17.3-25.9-28.9"/>
			<path class="st2" d="M133,174.6c-40.4,10.1-83.7-2.7-112.1-33.8"/>
			<path class="st2" d="M197.5,9.3c30.1,50.8,13.2,116.4-37.6,146.4C109,185.8,43.5,168.9,13.5,118.1"/>
			<path class="st3" d="M197.5,9.3L210,1.9c34.1,57.8,15,132.2-42.7,166.3c-57.8,34.1-132.2,15-166.3-42.7l12.5-7.4l6.6-3.9
				l85.4-50.5L191,13.2L197.5,9.3z"/>
			<polyline class="st2" points="46,143.1 105.5,63.7 156,149.2 			"/>
			<line class="st2" x1="100.2" y1="162.8" x2="105.5" y2="63.7"/>
			<line class="st2" x1="203.8" y1="49.8" x2="105.5" y2="63.7"/>
			<line class="st2" x1="194.9" y1="106.8" x2="105.5" y2="63.7"/>
			<line class="st2" x1="94.2" y1="145.5" x2="100.3" y2="96.9"/>
			<line class="st2" x1="71.6" y1="135" x2="80.4" y2="119.7"/>
			<line class="st2" x1="68.5" y1="139.1" x2="64.9" y2="145.3"/>
			<line class="st2" x1="48.8" y1="116.8" x2="72.1" y2="96.4"/>
			<line class="st2" x1="51.2" y1="105.3" x2="60.5" y2="99"/>
			<line class="st2" x1="122.5" y1="83.8" x2="152.2" y2="125.8"/>
			<line class="st2" x1="142.8" y1="91" x2="154.5" y2="98"/>
			<line class="st2" x1="141.7" y1="69.4" x2="189.6" y2="73.9"/>
			<line class="st2" x1="174.4" y1="62.6" x2="197.8" y2="60.5"/>
			<line class="st2" x1="150.4" y1="45.8" x2="186.8" y2="28.6"/>
			<line class="st2" x1="123.5" y1="115.2" x2="134.5" y2="150.2"/>
			<line class="st2" x1="182.6" y1="108.6" x2="187.4" y2="111.3"/>
		</g>
	</g>
	<g>
		<g>
			<path class="st0" d="M87.8,4.2c0,0-10.3,17.2-28.3,21.9c-0.1,0-0.1,0-0.1,0C67.6,6,87.8,4.2,87.8,4.2z"/>
			<path class="st0" d="M61.2,26.6L61.2,26.6c-0.9-0.2-1.5-0.4-1.7-0.4c17.9-4.8,28.3-22,28.3-22c-1.1,5-2.6,9-4.4,12.1l0,0
				c-0.5,0.8-1,1.6-1.5,2.3c-1.6,2.2-3.4,3.9-5.2,5.1C70.7,27.8,64.2,27.2,61.2,26.6z"/>
		</g>
		<g>
			<path class="st3" d="M61.2,26.5c-0.9-0.2-1.4-0.4-1.7-0.4c-0.1,0-0.1,0-0.1,0C66.7,6.8,87.8,4.2,87.8,4.2c-1.1,5-2.6,9-4.4,12.1"
				/>
			<path class="st3" d="M83.3,16.3c-0.5,0.8-1,1.6-1.5,2.3c-1.6,2.2-3.4,3.9-5.2,5.1c-6,4-12.4,3.4-15.4,2.8"/>
			<path class="st2" d="M87.8,4.2c0,0-10.3,17.2-28.3,21.9c0,0,0,0-0.1,0"/>
		</g>
	</g>
</g>
<g id="TEXTS">
</g>
</svg>
