<?xml version="1.0" encoding="utf-8"?>
<!-- Generator: Adobe Illustrator 27.9.0, SVG Export Plug-In . SVG Version: 6.00 Build 0)  -->
<svg version="1.1" xmlns="http://www.w3.org/2000/svg" xmlns:xlink="http://www.w3.org/1999/xlink" x="0px" y="0px"
	 viewBox="0 0 377.9 395.1" style="enable-background:new 0 0 377.9 395.1;" xml:space="preserve">
<style type="text/css">
	.st0{fill:#F3F0E7;}
	.st1{clip-path:url(#SVGID_00000166656142169986782680000014106732528156488069_);}
	.st2{fill:none;stroke:#7B6117;stroke-width:3.7752;stroke-linecap:round;stroke-linejoin:round;stroke-miterlimit:10;}
	.st3{fill:#599942;}
	.st4{fill:#FF494B;}
	.st5{fill:none;stroke:#7B6117;stroke-width:0.9516;stroke-linecap:round;stroke-linejoin:round;stroke-miterlimit:10;}
	.st6{fill:none;stroke:#7B6117;stroke-width:1.9032;stroke-linecap:round;stroke-linejoin:round;stroke-miterlimit:10;}
	.st7{fill:#FF7D1D;}
	.st8{fill:#FFBF29;}
	.st9{fill:none;stroke:#7B6117;stroke-width:0.9516;stroke-miterlimit:10;}
	.st10{fill:none;stroke:#7B6117;stroke-width:1.9032;stroke-miterlimit:10;}
</style>
<g id="BACKGROUND">
</g>
<g id="OBJECTS">
	<g>
		<g>
			<path class="st0" d="M178.5,83.5c-1,0.1-2.1,0.2-3.3,0.2c-0.3-0.9-0.5-1.8-0.8-2.7c0,0-2.2,1.4-4.9,2.3l0,0
				c-5-0.3-12.7,0.9-16.8,7.1c-9.3-1.5-14.5-1.8-14.8-0.9c-4.3,30.1,6.3,74.6,93,98.2c86.7,23.6,118.4-9.3,130-37.4
				c0.8-3-48-20.5-109.6-37.2c-13.2-3.6-25.7-6.8-37.5-9.7c0.3-5.6-1.5-8.6-2-10.1l1.4-4.6c12.8,4,26.8,8.1,41.5,12.1
				c45.1,12.3,85.1,20.5,106.3,22.2c9.7,0.8,15.4,0.3,16-1.8l0,0c0,0,2.3,112.1-139.9,77.7c-2.8-0.7-5.7-1.4-8.6-2.2
				c-2.9-0.8-5.8-1.6-8.5-2.5c-140-42.5-81.1-138-81.1-138c-0.6,2.1,4.1,5.5,12.9,9.6c8,3.9,19.5,8.5,33.4,13.4l-1.1,3
				C184.1,82.3,182,83.1,178.5,83.5z"/>
			<path class="st0" d="M376.9,121.2c-0.6,2.1-6.3,2.6-16,1.8c-21.2-1.8-61.1-9.9-106.3-22.2c-14.7-4-28.6-8.1-41.5-12.1
				c-10.1-3.2-19.5-6.3-28-9.3c-13.9-4.9-25.4-9.5-33.4-13.4c-8.7-4.2-13.4-7.6-12.9-9.6c0.8-3.1,12.7-2.8,31.9,0.2l0,0
				c0,1.5,0.1,3,0.2,4.5c-10.9-1.7-17.3-2.1-17.6-0.9c-0.3,1,4.1,3.2,11.9,6.2c17.2,6.7,51,18.9,90.7,29.8
				c39.7,10.8,75,17.4,93.2,20.4c8.3,1.4,13.2,1.7,13.4,0.7c0.9-3.2-44.8-20.2-102.6-35.9c-34.8-9.5-66.2-16.4-85.7-19.6
				c-0.1-1.5-0.2-3-0.2-4.6c22.3,3.6,53.2,10.5,87.2,19.8C326.9,94.7,378.7,114.5,376.9,121.2z"/>
			<path class="st0" d="M360.8,150.3c-0.3,0.9-5.4,0.5-14.2-1.1c-19.3-3.5-56.8-10.8-99.1-22.4c-13-3.5-25.3-7.2-36.8-10.7l1.1-3.5
				c1.3-3.7,1.9-6.7,2-9.3c11.8,2.9,24.3,6.1,37.5,9.7C312.8,129.9,361.7,147.3,360.8,150.3z"/>
			<path class="st7" d="M346.6,149.2c8.8,1.6,14,2,14.2,1.1c-11.6,28.1-43.3,61-130,37.4c-86.6-23.6-97.2-68.1-93-98.2
				c-0.3,0.9,4.4,3.2,12.8,6.3L150,98c-0.3,2.7-0.2,5.9,0.4,9.7c2.5,14.1,15.6,25.6,33,24.9c9.1-0.3,19-5.3,24.8-13.9l0.9-3
				c0.5,0.1,1,0.3,1.5,0.4c11.5,3.5,23.8,7.2,36.8,10.7C289.8,138.4,327.3,145.7,346.6,149.2z M323.5,165.7c2.2-1.2,3-3.8,1.8-6
				c-1.1-2.2-3.8-3-6-1.8c-2.2,1.1-3,3.8-1.8,6C318.7,166.1,321.3,166.9,323.5,165.7z M302.2,160c0.8-0.4,1.1-1.4,0.7-2.2
				c-0.4-0.8-1.4-1.1-2.2-0.7c-0.8,0.4-1.1,1.4-0.7,2.3C300.4,160.2,301.4,160.5,302.2,160z M266.8,164.7c1,0.2,1.9-0.5,2-1.4
				c0.1-1-0.5-1.9-1.5-2c-1-0.2-1.9,0.5-2,1.4C265.2,163.7,265.9,164.6,266.8,164.7z M248.1,179.8c2.2-1.2,3-3.8,1.8-6
				c-1.1-2.2-3.8-3-6-1.8c-2.1,1.1-3,3.8-1.8,6C243.2,180.1,245.9,180.9,248.1,179.8z M226.3,143.8c2.2-1.1,3-3.8,1.8-6
				c-1.1-2.1-3.8-3-6-1.8c-2.2,1.2-3,3.8-1.8,6C221.5,144.1,224.1,145,226.3,143.8z M199.1,150.2c1,0.2,1.9-0.5,2.1-1.5
				c0.2-1-0.5-1.9-1.5-2.1c-1-0.2-1.9,0.5-2.1,1.5C197.5,149.1,198.1,150,199.1,150.2z"/>
			<path class="st0" d="M174.2,61.5c19.6,3.3,50.9,10.2,85.7,19.6c57.8,15.8,103.4,32.7,102.6,35.9c-0.3,1-5.1,0.7-13.4-0.7
				c-18.2-3-53.5-9.6-93.2-20.4c-39.7-10.8-73.4-23.1-90.7-29.8c-7.9-3-12.2-5.2-11.9-6.2c0.3-1.2,6.7-0.8,17.6,0.9
				c-0.1-1.5-0.2-3.1-0.2-4.5l0,0c-0.4-26.3,12-42.5,21.5-51c9.5-8,11.4-3,11.4-3c2.4,6-8.3,5.4-11.3,8.1
				C177.2,24,173.7,42.1,174,57C174,58.5,174.1,60.1,174.2,61.5z"/>
			<path class="st0" d="M325.3,159.8c1.2,2.2,0.3,4.8-1.8,6c-2.1,1.1-4.8,0.3-6-1.8c-1.2-2.2-0.3-4.9,1.8-6
				C321.5,156.8,324.2,157.6,325.3,159.8z"/>
			<path class="st0" d="M247.8,369.1l-1.8,6.5c0,0-30.8,1-64.1-8.1l0,0c-33.4-9.1-59.3-25.6-59.3-25.6l1.8-6.5
				c0,0,26.9,14.7,59.9,23.7l0,0C217.1,368.1,247.8,369.1,247.8,369.1z"/>
			<path class="st0" d="M302.9,157.8c0.4,0.8,0.1,1.8-0.7,2.2c-0.8,0.4-1.8,0.1-2.2-0.7c-0.4-0.8-0.1-1.8,0.7-2.3
				C301.4,156.7,302.4,157,302.9,157.8z"/>
			<path class="st0" d="M247.8,369.1c0,0-30.6-1-63.6-10l0,0c-33-9-59.9-23.7-59.9-23.7c64.4,7,95.6-141.2,95.6-141.2
				c2.8,0.8,5.6,1.7,8.5,2.5c2.9,0.8,5.8,1.5,8.6,2.2C237.1,198.9,188.7,342.4,247.8,369.1z"/>
			<path class="st0" d="M268.9,163.3c-0.2,1-1.1,1.6-2,1.4c-1-0.1-1.6-1.1-1.4-2c0.1-1,1.1-1.6,2-1.4
				C268.4,161.4,269,162.3,268.9,163.3z"/>
			<path class="st0" d="M249.9,173.8c1.1,2.1,0.3,4.8-1.8,6c-2.1,1.1-4.8,0.3-6-1.8c-1.1-2.2-0.3-4.8,1.8-6
				C246.1,170.8,248.8,171.6,249.9,173.8z"/>
			<path class="st0" d="M228.1,137.8c1.2,2.2,0.3,4.9-1.8,6c-2.1,1.1-4.8,0.3-6-1.8c-1.2-2.2-0.3-4.8,1.8-6
				C224.3,134.9,227,135.7,228.1,137.8z"/>
			<path class="st0" d="M152.7,90.4c4.1-6.2,11.7-7.4,16.8-7.1l0,0c0.5,0,0.9,0.1,1.3,0.1c1.6,0.2,3,0.2,4.3,0.2
				c1.2,0,2.3-0.1,3.3-0.2c3.5-0.4,5.6-1.1,5.6-1.1l1.1-3c8.5,3,17.9,6.1,28,9.3l-1.4,4.6c0.5,1.5,2.3,4.6,2,10.1
				c-0.1,2.5-0.7,5.6-2,9.3l-1.1,3.5c-0.5-0.2-1-0.3-1.5-0.4c-25.3-7.9-46-15.2-58.5-19.9c-8.4-3.1-13.1-5.3-12.8-6.3
				C138.2,88.6,143.3,88.9,152.7,90.4z"/>
			<path class="st0" d="M201.2,148.7c-0.1,1-1.1,1.6-2.1,1.5c-1-0.2-1.7-1.1-1.5-2.1c0.2-1,1.1-1.7,2.1-1.5
				C200.7,146.8,201.4,147.7,201.2,148.7z"/>
			<path class="st0" d="M209.2,115.7l-0.9,3c-5.8,8.6-15.7,13.5-24.8,13.9c-17.4,0.7-30.6-10.8-33-24.9c-0.6-3.8-0.7-7-0.4-9.7
				l0.7-2.2C163.3,100.5,184,107.8,209.2,115.7z"/>
			<path class="st0" d="M174.4,80.9c0.2,0.9,0.5,1.7,0.8,2.7c-1.3,0-2.8-0.1-4.3-0.2c-0.4,0-0.9-0.1-1.3-0.1
				C172.2,82.4,174.4,80.9,174.4,80.9z"/>
		</g>
		<g>
			<path class="st6" d="M219.9,194.2c0,0-31.2,148.2-95.6,141.2l-1.8,6.5c0,0,26,16.5,59.3,25.6"/>
			<path class="st5" d="M124.3,335.5c0,0,26.9,14.7,59.9,23.7"/>
			<path class="st6" d="M237.1,198.9c0,0-48.3,143.5,10.7,170.2l-1.8,6.5c0,0-30.8,1-64.1-8.1"/>
			<path class="st5" d="M247.8,369.1c0,0-30.6-1-63.6-10"/>
			<path class="st5" d="M213.8,103.4c11.8,2.9,24.3,6.1,37.5,9.7c61.6,16.8,110.4,34.3,109.6,37.2c-0.3,0.9-5.4,0.5-14.2-1.1
				c-19.3-3.5-56.8-10.8-99.1-22.4c-13-3.5-25.3-7.2-36.8-10.7c-0.5-0.2-1-0.3-1.5-0.4c-25.3-7.9-46-15.2-58.5-19.9
				c-8.4-3.1-13.1-5.3-12.8-6.3c0.3-1,5.4-0.6,14.8,0.9"/>
			<path class="st5" d="M174.2,61.5L174.2,61.5c19.6,3.3,50.9,10.2,85.7,19.7c57.8,15.8,103.4,32.7,102.6,35.9
				c-0.3,1-5.1,0.7-13.4-0.7c-18.2-3-53.5-9.6-93.2-20.4c-39.7-10.8-73.4-23.1-90.7-29.8c-7.9-3-12.2-5.2-11.9-6.2
				c0.3-1.2,6.7-0.8,17.6,0.9l0,0"/>
			<path class="st6" d="M174,57c22.3,3.6,53.2,10.5,87.2,19.8c65.7,17.9,117.6,37.8,115.8,44.4c-0.6,2.1-6.3,2.6-16,1.8
				c-21.2-1.8-61.1-9.9-106.3-22.2c-14.7-4-28.6-8.1-41.5-12.1c-10.1-3.2-19.5-6.3-28-9.3c-13.9-4.9-25.4-9.5-33.4-13.4
				c-8.7-4.2-13.4-7.6-12.9-9.6c0.8-3.1,12.7-2.8,31.9,0.2"/>
			<path class="st5" d="M360.9,150.2C360.9,150.3,360.9,150.3,360.9,150.2c-11.6,28.2-43.3,61.1-130,37.5
				c-86.6-23.6-97.2-68.1-93-98.2"/>
			<path class="st6" d="M376.9,121.2c0,0,2.3,112.1-139.9,77.7c-2.8-0.7-5.7-1.4-8.6-2.2c-2.9-0.8-5.8-1.6-8.5-2.5
				c-140-42.5-81.1-138-81.1-138"/>
			<path class="st6" d="M211.8,112.6c1.3-3.7,1.9-6.7,2-9.3c0.3-5.6-1.5-8.6-2-10.1"/>
			<path class="st6" d="M150,98c-0.3,2.7-0.2,5.9,0.4,9.7c2.5,14.1,15.6,25.6,33,24.9c9.1-0.3,19-5.3,24.8-13.9"/>
			<path class="st6" d="M169.4,83.3c-5-0.3-12.7,0.9-16.8,7.1c-0.6,0.8-1,1.8-1.5,2.8"/>
			<path class="st6" d="M184.1,82.3c0,0-2.1,0.8-5.6,1.1c-1,0.1-2.1,0.2-3.3,0.2c-1.3,0-2.8-0.1-4.3-0.2c-0.4,0-0.9-0.1-1.3-0.1"/>
			<path class="st6" d="M173.8,78.7c0.2,0.8,0.4,1.5,0.6,2.3c0.2,0.9,0.5,1.7,0.8,2.7l0,0"/>
			<path class="st6" d="M174.7,66.4c-0.2-1.6-0.4-3.2-0.5-4.9c-0.1-1.5-0.2-3-0.2-4.6c-0.3-14.9,3.2-33,18.3-46.4
				c3.1-2.7,13.7-2.1,11.3-8.1c0,0-2-4.9-11.4,3c-9.5,8.4-21.9,24.7-21.5,51l0,0c0,1.5,0.1,3,0.2,4.5c0.1,1.5,0.2,3,0.4,4.5"/>
			<path class="st6" d="M178.5,83.5c0,0-0.4-0.9-1-3.4"/>
			<path class="st6" d="M174.4,80.9c0,0-2.2,1.4-4.9,2.3l0,0"/>
			<path class="st5" d="M228.1,137.8c1.2,2.2,0.3,4.9-1.8,6c-2.1,1.1-4.8,0.3-6-1.8c-1.2-2.2-0.3-4.8,1.8-6
				C224.3,134.9,227,135.7,228.1,137.8z"/>
			<path class="st5" d="M302.9,157.8c0.4,0.8,0.1,1.8-0.7,2.2c-0.8,0.4-1.8,0.1-2.2-0.7c-0.4-0.8-0.1-1.8,0.7-2.3
				C301.4,156.7,302.4,157,302.9,157.8z"/>
			<path class="st5" d="M268.9,163.3c-0.2,1-1.1,1.6-2,1.4c-1-0.1-1.6-1.1-1.4-2c0.1-1,1.1-1.6,2-1.4
				C268.4,161.4,269,162.3,268.9,163.3z"/>
			<path class="st5" d="M201.2,148.7c-0.1,1-1.1,1.6-2.1,1.5c-1-0.2-1.7-1.1-1.5-2.1c0.2-1,1.1-1.7,2.1-1.5
				C200.7,146.8,201.4,147.7,201.2,148.7z"/>
			<path class="st5" d="M325.3,159.8c1.2,2.2,0.3,4.8-1.8,6c-2.1,1.1-4.8,0.3-6-1.8c-1.2-2.2-0.3-4.9,1.8-6
				C321.5,156.8,324.2,157.6,325.3,159.8z"/>
			<path class="st5" d="M249.9,173.8c1.1,2.1,0.3,4.8-1.8,6c-2.1,1.1-4.8,0.3-6-1.8c-1.1-2.2-0.3-4.8,1.8-6
				C246.1,170.8,248.8,171.6,249.9,173.8z"/>
			<path class="st5" d="M197.6,280.5c0,0-21,44.8-47.1,56.3"/>
			<path class="st5" d="M162.5,336.1c0,0,17.3-11.2,32.1-39.9"/>
			<path class="st5" d="M215.3,331.5c0,0,3.5,18.6,11.9,26.7"/>
			<path class="st5" d="M212.8,340.5c0,0,2.5,9.7,7.6,15.9"/>
		</g>
	</g>
	<g>
		<g>
			<path class="st0" d="M290.8,258c0,0,16.1,17,15.7,38.5c-0.1,0.1-0.1,0.1-0.1,0.1c-5.8-1.2-9.9-4.1-12.7-7.4
				c-5.5-6.5-6.2-14.6-6.2-14.6l5.5,0.2C291.2,268.9,290.8,258,290.8,258z"/>
			<path class="st0" d="M307.5,294.8L307.5,294.8c-0.5,0.9-0.9,1.5-1,1.7c0.3-21.6-15.7-38.5-15.7-38.5c5.3,2.8,9.3,5.8,12.2,8.7
				l0,0c0.8,0.8,1.5,1.6,2.1,2.4c2,2.5,3.3,5,4.1,7.4C311.8,284.6,309.2,291.6,307.5,294.8z"/>
		</g>
		<g>
			<path class="st6" d="M307.5,294.9c-0.5,0.9-0.8,1.5-1,1.7c-0.1,0.1-0.1,0.1-0.1,0.1c-5.8-1.2-9.9-4.1-12.7-7.4
				c-5.5-6.5-6.2-14.6-6.2-14.6l5.5,0.2c-1.8-6-2.2-16.8-2.2-16.8c5.3,2.8,9.3,5.8,12.2,8.7"/>
			<path class="st6" d="M303,266.8c0.8,0.8,1.5,1.6,2.1,2.4c2,2.5,3.3,5,4.1,7.4c2.6,7.9,0,15-1.7,18.2"/>
			<path class="st5" d="M290.8,258c0,0,16.1,17,15.7,38.5c0,0,0,0.1,0,0.1"/>
		</g>
	</g>
	<g>
		<g>
			<path class="st0" d="M116.6,199.5l3-6.5c0,0,8,22.9,6.7,43.6l0,0c-8.8-9.5-18.1-18.2-27.4-26.1c-7.1-24.9-30.6-48.1-30.6-48.1
				S98.4,169.2,116.6,199.5z"/>
			<path class="st0" d="M119.7,193c0,0,15,22.6,21.4,60.7c-4.7-6-9.7-11.7-14.7-17.1l0,0C127.7,215.9,119.7,193,119.7,193z"/>
			<path class="st0" d="M126.3,236.6c5.1,5.4,10,11.1,14.7,17.1c0,0-32.6,17.2-65.8-0.2C76.2,253.3,107.1,248.9,126.3,236.6z"/>
			<path class="st0" d="M68.3,162.4c0,0,23.5,23.2,30.6,48.1l0,0c-48.6-41.4-98.8-61.2-100.8-62c1.8,0.2,48.7,6.4,71.5,21.9
				L68.3,162.4z"/>
			<path class="st0" d="M99,210.5c9.3,7.9,18.5,16.6,27.4,26.1c-19.2,12.3-50.2,16.8-51.1,16.9c0,0,0,0,0,0l4.4-3.3
				c0,0-25.7-10-45.6-36.2c0,0,0,0,0,0C35.1,214.2,71.3,223.2,99,210.5L99,210.5z"/>
			<path class="st0" d="M-1.8,148.5c2,0.8,52.2,20.7,100.8,62c-27.7,12.7-63.8,3.8-65,3.5l5.8-1.3C39.8,212.6,15.3,166.1-1.8,148.5
				C-1.9,148.4-1.8,148.4-1.8,148.5z"/>
		</g>
		<g>
			<path class="st6" d="M-1.8,148.5c1.8,0.2,48.7,6.4,71.5,21.9l-1.3-7.9c0,0,30.1,6.8,48.3,37.1l3-6.5c0,0,15,22.6,21.4,60.7
				c0,0-32.6,17.2-65.8-0.2"/>
			<path class="st6" d="M34,214l5.8-1.3c0,0-24.6-46.5-41.7-64.2"/>
			<path class="st6" d="M75.2,253.5l4.4-3.3c0,0-25.7-10-45.6-36.2"/>
			<path class="st5" d="M99,210.5c9.3,7.9,18.5,16.6,27.4,26.1c5.1,5.4,10,11.1,14.7,17.1"/>
			<path class="st5" d="M-1.9,148.4C-1.9,148.4-1.8,148.4-1.9,148.4c2.1,0.8,52.2,20.7,100.8,62.1"/>
			<path class="st5" d="M34,214C34,214,34,214,34,214c1.2,0.3,37.3,9.3,65-3.5l0,0"/>
			<path class="st5" d="M126.4,236.6L126.4,236.6c-19.2,12.3-50.2,16.8-51.1,16.9c0,0,0,0,0,0"/>
			<path class="st5" d="M119.7,193c0,0,8,22.9,6.7,43.6"/>
			<path class="st5" d="M68.3,162.4c0,0,23.5,23.2,30.6,48.1"/>
			<path class="st5" d="M64.7,221.8c0,0,17.3,0,31.3-5.9"/>
			<path class="st5" d="M77.3,224.7c0,0,10.3-1.7,16.7-4.6"/>
			<path class="st5" d="M36.2,184.2c0,0,13.1,2.9,23.1,3.2"/>
			<path class="st5" d="M47.2,189.7c0,0,12.7,2,19.3,1.6"/>
			<path class="st5" d="M108,249.5c0,0,10.9-3.4,18.3-7.8"/>
			<path class="st5" d="M118,249.7c0,0,7.1-3.1,10.4-5.1"/>
		</g>
	</g>
	<g>
		<g>
			<path class="st0" d="M73.9,379.2c0,0-20-2-31.9-16.2c0-0.1,0-0.1,0-0.1C63.7,361.7,73.9,379.2,73.9,379.2z"/>
			<path class="st0" d="M42.4,364.8L42.4,364.8c-0.2-0.9-0.3-1.5-0.3-1.7c11.9,14.2,31.9,16.2,31.9,16.2c-5,1.2-9.2,1.5-12.8,1.2
				l0,0c-1-0.1-1.9-0.2-2.7-0.4c-2.7-0.5-5-1.4-6.8-2.5C45.3,373.8,43.1,367.8,42.4,364.8z"/>
		</g>
		<g>
			<path class="st6" d="M42.4,364.7c-0.2-0.8-0.3-1.5-0.3-1.7c0-0.1,0-0.1,0-0.1c20.6-1.7,31.9,16.3,31.9,16.3
				c-5,1.2-9.2,1.5-12.8,1.2"/>
			<path class="st6" d="M61.1,380.4c-1-0.1-1.9-0.2-2.7-0.4c-2.7-0.5-5-1.4-6.8-2.5c-6.2-3.7-8.4-9.7-9.1-12.8"/>
			<path class="st5" d="M73.9,379.2c0,0-20-2-31.9-16.2c0,0,0,0,0-0.1"/>
		</g>
	</g>
</g>
<g id="TEXTS">
</g>
</svg>
