<?xml version="1.0" encoding="utf-8"?>
<!-- Generator: Adobe Illustrator 27.9.0, SVG Export Plug-In . SVG Version: 6.00 Build 0)  -->
<svg version="1.1" id="圖層_1" xmlns="http://www.w3.org/2000/svg" xmlns:xlink="http://www.w3.org/1999/xlink" x="0px" y="0px"
	 viewBox="0 0 84.7 173.7" style="enable-background:new 0 0 84.7 173.7;" xml:space="preserve">
<style type="text/css">
	.st0{fill:none;stroke:#FFFFFF;stroke-miterlimit:10;}
	.st1{fill:none;stroke:#FFFFFF;stroke-width:1.9032;stroke-linecap:round;stroke-linejoin:round;stroke-miterlimit:10;}
	.st2{fill:none;stroke:#FFFFFF;stroke-width:0.9516;stroke-linecap:round;stroke-linejoin:round;stroke-miterlimit:10;}
</style>
<g id="BACKGROUND">
</g>
<g id="OBJECTS">
	<g>
		<g>
			<path class="st0" d="M66.8,130l7.2,0.4c0,0-18.3,15.9-38,22.4l0,0c5.5-11.7,10.2-23.5,14.1-35.1c20.5-15.9,33.3-46.3,33.3-46.3
				S88.1,101.8,66.8,130z"/>
			<path class="st0" d="M74,130.4c0,0-15.5,22.3-48.4,42.4c3.8-6.6,7.3-13.3,10.4-20l0,0C55.7,146.3,74,130.4,74,130.4z"/>
			<path class="st0" d="M36,152.7c-3.2,6.7-6.6,13.4-10.4,20c0,0-28.1-23.9-24.3-61.2C1.8,112.4,17.4,139.5,36,152.7z"/>
			<path class="st0" d="M83.3,71.3c0,0-12.8,30.4-33.3,46.3l0,0C70.4,57.1,70.2,3.2,70.2,1c0.5,1.8,12.1,47.6,6.2,74.5L83.3,71.3z"
				/>
			<path class="st0" d="M50.1,117.6c-3.9,11.6-8.5,23.4-14.1,35.1c-18.6-13.3-34.2-40.4-34.7-41.2l0,0l4.7,2.8
				c0,0-0.3-27.5,16.7-55.8l0,0C22.9,59.7,27.9,96.7,50.1,117.6L50.1,117.6z"/>
			<path class="st0" d="M70.2,1c0,2.2,0.2,56.1-20.2,116.6c-22.1-21-27.2-57.9-27.3-59l3.4,4.9C26.1,63.5,60.2,23.4,70.2,1L70.2,1z"
				/>
		</g>
		<g>
			<path class="st1" d="M70.2,1c0.5,1.8,12.1,47.6,6.2,74.5l6.9-4.2c0,0,4.8,30.4-16.5,58.6l7.2,0.4c0,0-15.5,22.3-48.4,42.4
				c0,0-28.1-23.9-24.3-61.2"/>
			<path class="st1" d="M22.7,58.6l3.4,4.9c0,0,34-40.1,44.1-62.6"/>
			<path class="st1" d="M1.3,111.5l4.7,2.8c0,0-0.3-27.5,16.7-55.8"/>
			<path class="st2" d="M50.1,117.6c-3.9,11.6-8.5,23.4-14.1,35.1c-3.2,6.7-6.6,13.4-10.4,20"/>
			<path class="st2" d="M70.2,1L70.2,1c0,2.2,0.2,56.2-20.2,116.7"/>
			<path class="st2" d="M22.7,58.6L22.7,58.6c0.2,1.2,5.2,38.1,27.3,59.1l0,0"/>
			<path class="st2" d="M36,152.7L36,152.7c-18.6-13.3-34.2-40.4-34.7-41.2l0,0"/>
			<path class="st2" d="M74,130.4c0,0-18.3,15.9-38,22.4"/>
			<path class="st2" d="M83.3,71.3c0,0-12.8,30.4-33.3,46.3"/>
			<path class="st2" d="M26.8,90c0,0,6.4,16.1,17.2,26.9"/>
			<path class="st2" d="M28.9,102.8c0,0,5.4,8.9,10.5,13.8"/>
			<path class="st2" d="M51.1,49.6c0,0,2.2,13.3,5.6,22.6"/>
			<path class="st2" d="M50.1,61.8c0,0,2.9,12.5,5.6,18.5"/>
			<path class="st2" d="M17.2,140.5c0,0,7.2,8.8,14,14.1"/>
			<path class="st2" d="M20.7,149.9c0,0,5.5,5.4,8.6,7.8"/>
		</g>
	</g>
</g>
<g id="TEXTS">
</g>
</svg>
