<?xml version="1.0" encoding="utf-8"?>
<!-- Generator: Adobe Illustrator 27.9.0, SVG Export Plug-In . SVG Version: 6.00 Build 0)  -->
<svg version="1.1" id="圖層_1" xmlns="http://www.w3.org/2000/svg" xmlns:xlink="http://www.w3.org/1999/xlink" x="0px" y="0px"
	 viewBox="0 0 82.3 165.7" style="enable-background:new 0 0 82.3 165.7;" xml:space="preserve">
<style type="text/css">
	.st0{fill:none;stroke:#FFFFFF;stroke-miterlimit:10;}
	.st1{fill:none;stroke:#FFFFFF;stroke-width:1.9032;stroke-linecap:round;stroke-linejoin:round;stroke-miterlimit:10;}
	.st2{fill:none;stroke:#FFFFFF;stroke-width:0.9516;stroke-linecap:round;stroke-linejoin:round;stroke-miterlimit:10;}
</style>
<g id="BACKGROUND">
</g>
<g id="OBJECTS">
	<g>
		<g>
			<path class="st0" d="M38.3,97.3c0.6,3.5,1.2,5.6,1.2,5.6c-1.3-0.1-2.8-0.3-4.3-0.6c-0.2-1.2-0.5-2.5-0.7-3.7
				C25.2,45.5,49.2,17.9,65.8,5.7c12.8-8.9,14.8-2.5,14.8-2.5C82.9,11,69.5,9,65.4,12.1C31.3,37,35.6,81.6,38.3,97.3z"/>
			<path class="st0" d="M39.4,102.9c0,0-0.5-2-1.2-5.6c19-10.3,43.7-5.1,43.1,28.9c-0.5,25.6-22.9,39.6-41.5,38.5
				c-22-1.2-37.2-17.2-38.7-35.3c-2.3-29.1,19-30.2,28.5-28.2c1.9,0.4,3.8,0.7,5.5,1C36.7,102.5,38.1,102.7,39.4,102.9z"/>
			<path class="st0" d="M34.4,98.6c0.2,1.2,0.4,2.4,0.7,3.7c-1.7-0.3-3.5-0.6-5.5-1C31.2,100.5,34.4,98.6,34.4,98.6z"/>
		</g>
		<g>
			<path class="st1" d="M47.2,103.4c0,0-3.1,0-7.8-0.5c-1.3-0.1-2.8-0.3-4.3-0.6c-1.7-0.3-3.5-0.6-5.5-1
				c-9.5-2.1-30.9-0.9-28.5,28.2c1.4,18.1,16.6,34.1,38.7,35.3c18.6,1,41.1-13,41.5-38.5c0.7-34.1-24-39.3-43-29l0,0"/>
			<path class="st1" d="M39.4,102.9c0,0-0.5-2-1.2-5.6c-2.7-15.6-7-60.3,27.1-85.2c4.1-3,17.5-1.1,15.2-8.9c0,0-1.9-6.4-14.8,2.5
				C49.2,17.9,25.2,45.5,34.4,98.6c0.2,1.2,0.4,2.4,0.7,3.7"/>
			<path class="st1" d="M34.4,98.6c0,0-3.3,1.9-4.8,2.7"/>
			<path class="st2" d="M28.5,105.7c0,0-18.4-5-22.6,16.2"/>
			<path class="st2" d="M12.3,117.6c0,0,0.4-7.2,10.2-8.2"/>
			<path class="st2" d="M24,154.8c0,0,12,7.6,27.7,3.7"/>
			<path class="st2" d="M31,153.2c0,0,5.7,2.6,13.1,2.2"/>
		</g>
	</g>
</g>
<g id="TEXTS">
</g>
</svg>
