<?xml version="1.0" encoding="utf-8"?>
<!-- Generator: Adobe Illustrator 27.9.0, SVG Export Plug-In . SVG Version: 6.00 Build 0)  -->
<svg version="1.1" xmlns="http://www.w3.org/2000/svg" xmlns:xlink="http://www.w3.org/1999/xlink" x="0px" y="0px"
	 viewBox="0 0 312.4 413.7" style="enable-background:new 0 0 312.4 413.7;" xml:space="preserve">
<style type="text/css">
	.st0{fill:#F3F0E7;}
	.st1{clip-path:url(#SVGID_00000178908927929677574290000007075074335420406164_);}
	.st2{fill:none;stroke:#7B6117;stroke-width:3.7752;stroke-linecap:round;stroke-linejoin:round;stroke-miterlimit:10;}
	.st3{fill:#599942;}
	.st4{fill:#FF494B;}
	.st5{fill:none;stroke:#7B6117;stroke-width:0.9516;stroke-linecap:round;stroke-linejoin:round;stroke-miterlimit:10;}
	.st6{fill:none;stroke:#7B6117;stroke-width:1.9032;stroke-linecap:round;stroke-linejoin:round;stroke-miterlimit:10;}
	.st7{fill:#FF7D1D;}
	.st8{fill:#FFBF29;}
	.st9{fill:none;stroke:#7B6117;stroke-width:0.9516;stroke-miterlimit:10;}
	.st10{fill:none;stroke:#7B6117;stroke-width:1.9032;stroke-miterlimit:10;}
</style>
<g id="BACKGROUND">
</g>
<g id="OBJECTS">
	<g>
		<g>
			<path class="st0" d="M232,147.3c0,0,16.5-7.6,32.3-1.9c0,0.1,0.1,0.1,0.1,0.1C248,156.3,232,147.3,232,147.3z"/>
			<path class="st0" d="M263.3,144.2L263.3,144.2c0.6,0.6,0.9,1,1,1.2c-15.8-5.6-32.3,1.9-32.3,1.9c3.4-3.2,6.5-5.4,9.5-6.8l0,0
				c0.8-0.4,1.6-0.7,2.3-1c2.3-0.8,4.5-1.2,6.5-1.2C256.8,138.5,261.3,142.2,263.3,144.2z"/>
		</g>
		<g>
			<path class="st6" d="M263.3,144.2c0.5,0.6,0.9,1,1,1.2c0,0.1,0.1,0.1,0.1,0.1c-15.3,10.7-32.3,1.9-32.3,1.9
				c3.4-3.2,6.5-5.4,9.5-6.8"/>
			<path class="st6" d="M241.5,140.6c0.8-0.4,1.6-0.7,2.3-1c2.3-0.8,4.5-1.2,6.5-1.2c6.5,0.1,11,3.8,13,5.8"/>
			<path class="st5" d="M232,147.3c0,0,16.5-7.6,32.3-1.9c0,0,0,0,0.1,0"/>
		</g>
	</g>
	<g>
		<g>
			<g>
				<path class="st0" d="M118.9,129.7c2.4,1.1,3.5,3.9,2.5,6.3c-1.1,2.4-3.9,3.5-6.3,2.5c-2.4-1.1-3.5-3.9-2.5-6.3
					C113.6,129.8,116.5,128.7,118.9,129.7z"/>
				<path class="st0" d="M187.8,165.4c1.1,0.5,1.7,1.9,1.2,3c-0.5,1.1-1.9,1.7-3,1.2c-1.1-0.5-1.7-1.8-1.2-3
					C185.3,165.4,186.6,164.9,187.8,165.4z"/>
				<path class="st0" d="M167.3,146.8c1,0.4,1.4,1.6,1,2.6c-0.4,1-1.6,1.4-2.6,1c-1-0.4-1.4-1.6-1-2.6S166.3,146.4,167.3,146.8z"/>
				<path class="st0" d="M120.5,147.8c0.9,0.4,1.3,1.5,0.9,2.4c-0.4,0.9-1.5,1.3-2.4,0.9c-0.9-0.4-1.3-1.5-0.9-2.4
					C118.5,147.8,119.6,147.4,120.5,147.8z"/>
				<path class="st0" d="M101.1,180.1c1,0.4,1.4,1.6,1,2.5c-0.4,1-1.6,1.4-2.5,1c-1-0.4-1.4-1.6-1-2.5
					C99,180.1,100.2,179.6,101.1,180.1z"/>
				<path class="st0" d="M125.4,170.1c3.3,1.4,4.8,5.3,3.3,8.5c-1.4,3.3-5.3,4.8-8.5,3.3c-3.3-1.4-4.8-5.3-3.3-8.5
					C118.4,170.1,122.2,168.6,125.4,170.1z"/>
				<path class="st0" d="M50.9,290.7c2.2,1,3.3,3.6,2.3,5.8c-1,2.2-3.6,3.3-5.8,2.3c-2.2-1-3.3-3.6-2.3-5.8
					C46.1,290.7,48.7,289.7,50.9,290.7z"/>
				<path class="st0" d="M56.4,282.4c0.8,0.4,1.2,1.3,0.8,2.2c-0.4,0.8-1.3,1.2-2.2,0.9c-0.8-0.4-1.2-1.3-0.8-2.2
					C54.6,282.3,55.6,282,56.4,282.4z"/>
				<path class="st0" d="M73,233.1c0.7,0.3,1,1.1,0.7,1.8c-0.3,0.7-1.1,1-1.8,0.7c-0.7-0.3-1-1.1-0.7-1.8
					C71.5,233.1,72.3,232.8,73,233.1z"/>
				<path class="st0" d="M154,312c1.3,0.6,1.9,2.1,1.3,3.5c-0.6,1.3-2.1,1.9-3.5,1.4c-1.3-0.6-1.9-2.1-1.4-3.5
					C151.1,312,152.6,311.4,154,312z"/>
				<path class="st0" d="M146.6,234.1c1,0.5,1.5,1.7,1,2.7c-0.5,1-1.7,1.5-2.7,1c-1-0.5-1.5-1.7-1-2.7
					C144.3,234.1,145.5,233.7,146.6,234.1z"/>
				<path class="st0" d="M135.4,239.4c2.3,1,3.3,3.7,2.3,6c-1,2.3-3.7,3.3-6,2.3c-2.3-1-3.3-3.7-2.3-6
					C130.5,239.5,133.1,238.4,135.4,239.4z"/>
				<path class="st0" d="M59.9,264c1,0.4,1.4,1.6,1,2.5c-0.4,1-1.6,1.4-2.5,1c-1-0.4-1.4-1.6-1-2.5C57.8,264,59,263.6,59.9,264z"/>
				<path class="st0" d="M264.6,102.2c4.7,3.2,7.2,5.5,6.8,6.4c-0.4,0.9-4,0.4-9.9-1.3c-2.9-0.8-6.4-1.8-10.3-3.1l0.8-2.6l3.2-5.3
					l0,0l2.3-3.8l44.5-72c1.5,0,3,0.2,4.3,0.8c2.2,1,4,2.7,5,4.9l-44.5,72.1L264.6,102.2z"/>
				<path class="st0" d="M255.3,96.4L255.3,96.4l-3.2,5.3l-0.8,2.6c-13.8-4.3-33.6-11.1-54.9-20.4C169,71.8,146.5,58.7,135,51.6
					c-5.2-3.2-8-5.5-7.6-6.4c1.3-3,35.3,7.3,75.1,24.8C224,79.4,242.8,89,255.3,96.4z"/>
				<path class="st0" d="M130.8,402.9l-4,9.1c-1.2,2.7-33-1.5-67.7-16.8C24.4,379.8-0.2,359.2,1,356.5l4-9.1
					c7.4,8.1,29.9,24,58.9,36.8C92.9,397.1,119.8,402.9,130.8,402.9L130.8,402.9z"/>
				<path class="st8" d="M244.6,163.1l-96.7,190.8c-1.7,3.9-31.8,0.4-64.4-14c-32.6-14.4-55.5-34.2-53.8-38.1l75.6-200.1l0,0
					c-1.2,4.1,28.4,20.9,66.5,37.7c17.1,7.5,33.1,13.9,45.7,18.2c0.3,0.1,0.6,0.2,1,0.3c3.6,1.2,6.8,2.2,9.8,3.1
					C237.7,163.7,243.7,164.6,244.6,163.1z M155.3,315.5c0.6-1.3,0-2.9-1.3-3.5c-1.3-0.6-2.9,0-3.5,1.3c-0.6,1.3,0,2.9,1.4,3.5
					C153.2,317.4,154.7,316.8,155.3,315.5z M188.9,168.4c0.5-1.1,0-2.5-1.2-3c-1.1-0.5-2.5,0-3,1.2c-0.5,1.1,0,2.5,1.2,3
					C187.1,170,188.4,169.5,188.9,168.4z M147.6,236.8c0.5-1,0-2.2-1-2.7c-1-0.5-2.2,0-2.7,1c-0.5,1,0,2.2,1,2.7
					C145.9,238.3,147.1,237.8,147.6,236.8z M137.8,245.4c1-2.3,0-5-2.3-6c-2.3-1-5,0-6,2.3c-1,2.3,0,5,2.3,6
					C134.1,248.8,136.8,247.7,137.8,245.4z M168.3,149.4c0.4-1,0-2.1-1-2.6c-1-0.4-2.1,0-2.6,1s0,2.1,1,2.6
					C166.7,150.9,167.9,150.4,168.3,149.4z M128.7,178.6c1.4-3.3,0-7.1-3.3-8.5c-3.3-1.4-7.1,0-8.5,3.3c-1.4,3.3,0,7.1,3.3,8.5
					C123.5,183.4,127.3,181.9,128.7,178.6z M121.4,150.1c0.4-0.9,0-2-0.9-2.4c-0.9-0.4-2,0-2.4,0.9c-0.4,0.9,0,2,0.9,2.4
					C120,151.4,121,151,121.4,150.1z M53.2,296.5c1-2.2,0-4.9-2.3-5.8c-2.2-1-4.9,0-5.8,2.3c-1,2.2,0,4.9,2.3,5.8
					C49.6,299.8,52.2,298.7,53.2,296.5z M57.2,284.5c0.4-0.8,0-1.8-0.8-2.2c-0.8-0.4-1.8,0-2.2,0.8c-0.4,0.8,0,1.8,0.8,2.2
					C55.9,285.7,56.9,285.3,57.2,284.5z M102.1,182.6c0.4-1,0-2.1-1-2.5c-1-0.4-2.1,0-2.5,1c-0.4,1,0,2.1,1,2.5
					C100.6,184,101.7,183.6,102.1,182.6z M121.3,136.1c1.1-2.4,0-5.3-2.5-6.3c-2.4-1.1-5.3,0-6.3,2.5c-1.1,2.4,0,5.3,2.5,6.3
					C117.4,139.6,120.3,138.5,121.3,136.1z M60.9,266.5c0.4-1,0-2.1-1-2.5c-1-0.4-2.1,0-2.5,1c-0.4,1,0,2.1,1,2.5
					C59.3,267.9,60.5,267.5,60.9,266.5z M73.7,234.9c0.3-0.7,0-1.5-0.7-1.8c-0.7-0.3-1.5,0-1.8,0.7c-0.3,0.7,0,1.5,0.7,1.8
					C72.5,235.9,73.4,235.6,73.7,234.9z"/>
				<path class="st0" d="M266.5,119.9l-21.8,43c0.6-1.6-3.7-5.2-11.4-9.9l20.2-32.7l-2.8-4.2C256.8,117.9,262.1,119.2,266.5,119.9z"
					/>
				<path class="st0" d="M230.2,157.9l3-4.9c7.7,4.8,12,8.3,11.4,9.9l0,0.1l0,0.1c-0.9,1.5-6.9,0.6-16.3-2.1c-3-0.9-6.2-1.9-9.8-3.1
					l1.3-4l4-6.4l0,0l18.3-29.6l1.3-4c2.6,0.8,5,1.6,7.4,2.2l2.8,4.2L233.2,153l0,0L230.2,157.9z"/>
				<path class="st0" d="M223.8,147.5l-3.9,6.4l-1.3,4c-0.3-0.1-0.6-0.2-1-0.3c-12.6-4.3-28.6-10.6-45.7-18.2
					c-38.1-16.8-67.7-33.6-66.5-37.7l0.1-0.2c2-3.8,34.4,6.8,72.7,23.7C195.9,133.1,211.9,140.9,223.8,147.5z"/>
				<path class="st0" d="M178.1,125.2c-38.3-16.9-70.7-27.5-72.7-23.7l-0.1,0.2l0,0c0,0,0-0.1,0-0.1c0,0,0,0,0,0l17.1-45.1
					c12.3,9.6,38.3,23.9,69.4,37.6c19,8.4,36.9,15.2,51.4,19.9l-1.3,4l-18.3,29.6C211.9,140.9,195.9,133.1,178.1,125.2z"/>
				<path class="st0" d="M5,347.5c-2-2.2-2.9-3.8-2.6-4.7l0.1,0l114.9-302c-0.9,1.9,1.9,5.4,7.6,9.7c12.3,9.6,38.3,23.9,69.4,37.6
					c9,4,17.7,7.6,26,10.8c20.3,7.9,37.6,13.2,48.6,15.1c7,1.2,11.5,1,12.3-1L135.9,401.6l0.1,0c-0.4,0.8-2.2,1.3-5.1,1.2
					c-11,0-37.9-5.8-66.9-18.6C34.9,371.5,12.4,355.6,5,347.5z M244.6,162.9l21.8-43c-4.3-0.7-9.7-2-15.8-3.8
					c-2.3-0.7-4.8-1.4-7.4-2.2c-14.5-4.6-32.4-11.5-51.4-19.9c-31.1-13.7-57.1-28-69.4-37.6l-17.1,45.1c0,0,0,0,0,0c0,0,0,0.1,0,0.1
					L29.7,301.8c-1.7,3.9,21.1,23.7,53.8,38.1c32.6,14.4,62.6,17.9,64.4,14l96.7-190.8C244.6,163.1,244.6,163.1,244.6,162.9
					C244.6,163,244.7,163,244.6,162.9z"/>
				<path class="st0" d="M266.9,98.5c10.2,6.8,15.6,12,14.4,14.6c-0.9,1.9-5.3,2.2-12.3,1c-11-1.9-28.3-7.2-48.6-15.1
					c-8.3-3.2-17-6.8-26-10.8c-31.1-13.7-57.1-28-69.4-37.6c-5.6-4.4-8.4-7.8-7.6-9.7c2.7-6.2,41.6,5,86.9,24.9
					c20.9,9.2,39.6,18.7,53.3,26.9l-2.3,3.8c-12.5-7.4-31.3-17-52.8-26.5c-39.8-17.5-73.8-27.8-75.1-24.8c-0.4,0.9,2.4,3.2,7.6,6.4
					c11.5,7.1,34,20.3,61.4,32.3c21.2,9.4,41,16.1,54.9,20.4c4,1.2,7.4,2.3,10.3,3.1c5.9,1.7,9.5,2.2,9.9,1.3
					c0.4-0.9-2.1-3.2-6.8-6.4L266.9,98.5z"/>
			</g>
			<g>
				<g id="XMLID_00000022539041490768407490000014635010504864759707_">
					<g>
						<path class="st6" d="M117.4,40.8L2.5,342.8l-0.1,0c-0.4,0.9,0.5,2.5,2.6,4.7c7.4,8.1,29.9,24,58.9,36.8
							c29,12.8,55.9,18.7,66.9,18.6c3,0,4.8-0.4,5.1-1.2l-0.1,0l145.5-288.5"/>
						<path class="st6" d="M266.5,119.9l-21.8,43l0,0.1l0,0.1l-96.7,190.8c-1.7,3.9-31.8,0.4-64.4-14
							c-32.6-14.4-55.5-34.2-53.8-38.1l75.6-200.1c0,0,0-0.1,0-0.1c0,0,0,0,0,0l17.1-45.1"/>
						<path class="st5" d="M230.2,157.9l3-4.9l0,0c7.7,4.8,12,8.3,11.4,9.9c0,0,0,0.1,0,0.1c0,0,0,0.1-0.1,0.1
							c-0.9,1.5-6.9,0.6-16.3-2.1c-3-0.9-6.2-1.9-9.8-3.1c-0.3-0.1-0.6-0.2-1-0.3c-12.6-4.3-28.6-10.6-45.7-18.2
							c-38.1-16.8-67.7-33.6-66.5-37.7l0.1-0.2c2-3.8,34.4,6.8,72.7,23.7c17.8,7.9,33.8,15.7,45.6,22.3l0,0l-4,6.4"/>
						<polyline class="st6" points="242,117.9 223.8,147.5 219.8,153.9 						"/>
						<polyline class="st6" points="230.2,157.9 233.2,153 253.4,120.3 						"/>
						<path class="st6" d="M5,347.4L5,347.4l-4,9.1c-1.2,2.7,23.4,23.3,58.1,38.6c34.7,15.3,66.5,19.6,67.7,16.8l4-9.1"/>
						<path class="st6" d="M222.1,171L120.9,334.9c-4,0.2-7.7-2-9.3-5.7l99.8-161.6"/>
						<path class="st6" d="M252.1,101.7l3.2-5.3l0,0l2.3-3.8l44.5-72c1.5,0,3,0.2,4.3,0.8c2.2,1,4,2.7,5,4.9l-44.5,72.1l-2.3,3.7
							l-1.3,2.2"/>
						<path class="st5" d="M121.3,136.1c-1.1,2.4-3.9,3.5-6.3,2.5c-2.4-1.1-3.5-3.9-2.5-6.3c1.1-2.4,3.9-3.5,6.3-2.5
							C121.3,130.8,122.4,133.7,121.3,136.1z"/>
						<path class="st5" d="M121.4,150.1c-0.4,0.9-1.5,1.3-2.4,0.9c-0.9-0.4-1.3-1.5-0.9-2.4c0.4-0.9,1.5-1.3,2.4-0.9
							C121.4,148.2,121.8,149.2,121.4,150.1z"/>
						<path class="st5" d="M128.7,178.6c-1.4,3.3-5.3,4.8-8.5,3.3c-3.3-1.4-4.8-5.3-3.3-8.5c1.4-3.3,5.3-4.8,8.5-3.3
							C128.7,171.5,130.2,175.3,128.7,178.6z"/>
						<path class="st5" d="M102.1,182.6c-0.4,1-1.6,1.4-2.5,1c-1-0.4-1.4-1.6-1-2.5c0.4-1,1.6-1.4,2.5-1
							C102.1,180.5,102.5,181.6,102.1,182.6z"/>
						<path class="st5" d="M137.8,245.4c-1,2.3-3.7,3.3-6,2.3c-2.3-1-3.3-3.7-2.3-6c1-2.3,3.7-3.3,6-2.3
							C137.7,240.5,138.8,243.1,137.8,245.4z"/>
						<path class="st5" d="M147.6,236.8c-0.5,1-1.7,1.5-2.7,1c-1-0.5-1.5-1.7-1-2.7c0.5-1,1.7-1.5,2.7-1
							C147.6,234.6,148.1,235.8,147.6,236.8z"/>
						<path class="st5" d="M53.2,296.5c-1,2.2-3.6,3.3-5.8,2.3c-2.2-1-3.3-3.6-2.3-5.8c1-2.2,3.6-3.3,5.8-2.3
							C53.2,291.7,54.2,294.3,53.2,296.5z"/>
						<path class="st5" d="M57.2,284.5c-0.4,0.8-1.3,1.2-2.2,0.9c-0.8-0.4-1.2-1.3-0.8-2.2c0.4-0.8,1.3-1.2,2.2-0.8
							C57.2,282.7,57.6,283.7,57.2,284.5z"/>
						<path class="st5" d="M60.9,266.5c-0.4,1-1.6,1.4-2.5,1c-1-0.4-1.4-1.6-1-2.5c0.4-1,1.6-1.4,2.5-1
							C60.9,264.4,61.3,265.6,60.9,266.5z"/>
						<path class="st5" d="M73.7,234.9c-0.3,0.7-1.1,1-1.8,0.7c-0.7-0.3-1-1.1-0.7-1.8c0.3-0.7,1.1-1,1.8-0.7
							C73.7,233.4,74,234.2,73.7,234.9z"/>
						<path class="st5" d="M188.9,168.4c-0.5,1.1-1.9,1.7-3,1.2c-1.1-0.5-1.7-1.8-1.2-3c0.5-1.1,1.8-1.7,3-1.2
							C188.9,165.9,189.5,167.2,188.9,168.4z"/>
						<path class="st5" d="M168.3,149.4c-0.4,1-1.6,1.4-2.6,1c-1-0.4-1.4-1.6-1-2.6s1.6-1.4,2.6-1
							C168.3,147.3,168.8,148.4,168.3,149.4z"/>
						<path class="st5" d="M155.3,315.5c-0.6,1.3-2.1,1.9-3.5,1.4c-1.3-0.6-1.9-2.1-1.4-3.5c0.6-1.3,2.1-1.9,3.5-1.3
							C155.3,312.6,155.9,314.2,155.3,315.5z"/>
						<path class="st9" d="M264.6,102.2c4.7,3.2,7.2,5.5,6.8,6.4c-0.4,0.9-4,0.4-9.9-1.3c-2.9-0.8-6.4-1.8-10.3-3.1
							c-13.8-4.3-33.6-11.1-54.9-20.4C169,71.8,146.5,58.7,135,51.6c-5.2-3.2-8-5.5-7.6-6.4c1.3-3,35.3,7.3,75.1,24.8
							c21.5,9.5,40.2,19.1,52.8,26.5l0,0"/>
						<path class="st10" d="M266.9,98.5c10.2,6.8,15.6,12,14.4,14.6c-0.9,1.9-5.3,2.2-12.3,1c-11-1.9-28.3-7.2-48.6-15.1
							c-8.3-3.2-17-6.8-26-10.8c-31.1-13.7-57.1-28-69.4-37.6c-5.6-4.4-8.4-7.8-7.6-9.7c2.7-6.2,41.6,5,86.9,24.9
							c20.9,9.2,39.6,18.7,53.3,26.9"/>
						<path class="st6" d="M122.4,56.4c12.3,9.6,38.3,23.9,69.4,37.6c19,8.4,36.9,15.2,51.4,19.9c2.6,0.8,5,1.6,7.4,2.2
							c6.1,1.8,11.5,3.1,15.8,3.8"/>
						<line class="st5" x1="21.6" y1="313.7" x2="10.7" y2="341.7"/>
						<line class="st5" x1="25.5" y1="319.2" x2="17.3" y2="340.1"/>
					</g>
				</g>
			</g>
		</g>
		<g>
			<g>
				<path class="st0" d="M79.2,121.8l-9.2,4.7c-21.8-42.3-5.2-94.2,37.1-116c42.3-21.8,94.2-5.2,116,37.1l-9.2,4.7
					c-19.2-37.2-64.9-51.8-102.1-32.6C74.6,38.9,60,84.6,79.2,121.8z"/>
				<path class="st0" d="M84,119.3l-4.8,2.5C60,84.6,74.6,38.9,111.8,19.7c37.2-19.2,82.9-4.6,102.1,32.6l-4.8,2.5
					c-4.4-8.5-10.3-15.7-17.1-21.5c-10.7-9-23.8-14.6-37.6-16.2c-13.3-1.5-27.3,0.8-40.1,7.4c-12.8,6.6-22.8,16.6-29.3,28.4
					c-6.7,12.1-9.8,26-8.7,40C77.1,101.8,79.6,110.8,84,119.3z"/>
				<path class="st8" d="M146.6,87.1L84,119.3c-4.4-8.5-6.9-17.5-7.6-26.5l0,0L146.6,87.1z"/>
				<path class="st8" d="M76.4,92.9L76.4,92.9c-1.2-14,1.9-27.9,8.6-40l61.5,34.2L76.4,92.9z"/>
				<path class="st8" d="M146.6,87.1L85.1,52.9c6.5-11.7,16.4-21.7,29.3-28.4L146.6,87.1z"/>
				<path class="st8" d="M146.6,87.1l-32.3-62.6c12.8-6.6,26.7-8.9,40.1-7.4L146.6,87.1z"/>
				<path class="st8" d="M146.6,87.1l7.8-70c13.7,1.5,26.9,7.1,37.6,16.2L146.6,87.1z"/>
				<path class="st8" d="M146.6,87.1L192,33.3c6.9,5.8,12.8,13,17.1,21.5L146.6,87.1z"/>
			</g>
			<g>
				<path class="st5" d="M84,119.3c-4.4-8.5-6.9-17.5-7.6-26.5c-1.2-14,1.9-27.9,8.7-40c6.5-11.7,16.4-21.7,29.3-28.4
					c12.8-6.6,26.7-8.9,40.1-7.4c13.7,1.5,26.9,7.1,37.6,16.2c6.9,5.8,12.8,13,17.1,21.5"/>
				<path class="st5" d="M131.6,7.5c29-5.5,59.1,5.3,78,28.5"/>
				<path class="st5" d="M79.2,121.8C60,84.6,74.6,38.9,111.8,19.7c37.2-19.2,82.9-4.6,102.1,32.6"/>
				<path class="st6" d="M79.2,121.8l-9.2,4.7c-21.8-42.3-5.2-94.2,37.1-116c42.3-21.8,94.2-5.2,116,37.1l-9.2,4.7l-4.8,2.5
					l-62.5,32.2L84,119.3L79.2,121.8z"/>
				<polyline class="st5" points="192,33.3 146.6,87.1 114.3,24.5 				"/>
				<line class="st5" x1="154.4" y1="17.1" x2="146.6" y2="87.1"/>
				<line class="st5" x1="76.4" y1="92.9" x2="146.6" y2="87.1"/>
				<line class="st5" x1="85.1" y1="52.9" x2="146.6" y2="87.1"/>
				<line class="st5" x1="157.9" y1="29.6" x2="151.6" y2="63.8"/>
				<line class="st5" x1="173.5" y1="38" x2="166.6" y2="48.5"/>
				<line class="st5" x1="175.8" y1="35.2" x2="178.6" y2="31"/>
				<line class="st5" x1="188.8" y1="51.8" x2="171.5" y2="65.3"/>
				<line class="st5" x1="186.7" y1="59.8" x2="179.9" y2="63.9"/>
				<line class="st5" x1="135.4" y1="72.1" x2="116.1" y2="41.2"/>
				<line class="st5" x1="121.3" y1="66.2" x2="113.3" y2="60.8"/>
				<line class="st5" x1="121.2" y1="81.6" x2="87.4" y2="76.4"/>
				<line class="st5" x1="97.8" y1="85" x2="81.1" y2="85.6"/>
				<line class="st5" x1="114" y1="97.9" x2="87.6" y2="108.6"/>
				<line class="st5" x1="136" y1="49.9" x2="129.6" y2="24.7"/>
				<line class="st5" x1="93.8" y1="52.1" x2="90.5" y2="50.1"/>
			</g>
		</g>
	</g>
</g>
<g id="TEXTS">
</g>
</svg>
