<?xml version="1.0" encoding="utf-8"?>
<!-- Generator: Adobe Illustrator 27.9.0, SVG Export Plug-In . SVG Version: 6.00 Build 0)  -->
<svg version="1.1" id="圖層_1" xmlns="http://www.w3.org/2000/svg" xmlns:xlink="http://www.w3.org/1999/xlink" x="0px" y="0px"
	 viewBox="0 0 238.6 363.5" style="enable-background:new 0 0 238.6 363.5;" xml:space="preserve">
<style type="text/css">
	.st0{fill:none;}
	.st1{fill:none;stroke:#FFFFFF;stroke-miterlimit:10;}
	.st2{fill:#FFFFFF;}
	.st3{fill:none;stroke:#FFFFFF;stroke-width:0.9516;stroke-linecap:round;stroke-linejoin:round;stroke-miterlimit:10;}
	.st4{fill:none;stroke:#FFFFFF;stroke-width:1.9032;stroke-linecap:round;stroke-linejoin:round;stroke-miterlimit:10;}
</style>
<g id="BACKGROUND">
</g>
<g id="OBJECTS">
	<g>
		<g>
			<path class="st0" d="M137.2,40.5c17.5,9.5,21.3,22.7,15.6,33.3c-3.7,6.8-10.5,10.8-19.5,10.3c-2.1-0.1-4.3-0.5-6.6-1.2
				c-3.2-0.8-6.7-2.3-10.3-4.2c-17.5-9.5-27-25.8-21.2-36.4c3.7-6.7,12.5-9.5,22.9-8.2c1.2,0.1,2.4,0.3,3.6,0.6
				C126.7,35.7,132,37.6,137.2,40.5z"/>
			<path class="st1" d="M154.5,87.9l0.1,0.3c0.3,1.9-2.3,4.9-7.2,8.7c-11.6,8.9-35.9,22.1-65,34.8c-29.1,12.6-55.4,21.4-69.8,23.8
				c-6.2,1-10.2,0.9-11.3-0.7l-0.2-0.3c-2.5-5.8,29.8-25.4,72.2-43.8c20.8-9,40.1-16.1,54.8-20.2c0.3,1.3,0.5,2.7,0.8,4
				c-13,3.8-32.4,10.8-53.8,20.1c-37.3,16.2-65.8,33-64.6,35.8c0.4,0.9,3.7,0.4,9.2-1.1c12.1-3.4,35.5-10.5,61.1-21.6
				s46.7-23.3,57.4-29.8c4.9-3,7.5-5.1,7.1-6s-4.2-0.5-10,0.9c-0.3-1.3-0.6-2.6-0.9-4C145.8,85.9,153.4,85.4,154.5,87.9z"/>
			<path class="st1" d="M90.9,302.4c-3.2,0.3-5.6,0.3-7.1,0c-1.1-0.2-1.7-0.5-1.9-1H82L1.3,154.8c1.1,1.5,5.1,1.7,11.3,0.7
				c14.4-2.4,40.7-11.1,69.8-23.8c29.1-12.6,53.4-25.8,65-34.8c5-3.8,7.6-6.8,7.2-8.7l52,159h0.1c0.2,0.5,0,1.2-0.6,2.1
				c-4.1,6.4-26.8,23.2-57,36.3c-19.8,8.6-38.5,13.8-51.2,15.9C95.3,301.9,92.9,302.2,90.9,302.4z M163.6,145.6l-13.8-43.1
				c-3.1,2.4-7.1,5-11.8,7.9c-3.1,1.9-6.4,3.8-10.1,5.8c-11.9,6.6-26.8,13.9-43.1,21C55.7,149.8,29.4,158.6,15,161l22.1,39.5
				l42,75.2c1.6,3.7,29.7,0.5,60.2-12.7c30.5-13.3,52-31.6,50.4-35.3L163.6,145.6z"/>
			<path class="st1" d="M112.9,1c0,0,3.5,12.6,8.7,33.8c-1.2-0.3-2.4-0.5-3.6-0.6C114.6,13.4,112.9,1,112.9,1z"/>
			<path class="st1" d="M149.8,102.4l13.8,43.1c-0.7-1.6-6.9-0.6-16.8,2.3c-2.4-12-4.8-23.7-7.1-34.9l-1.6-2.6
				C142.7,107.5,146.7,104.8,149.8,102.4z"/>
			<path class="st1" d="M135.2,92.7c5.8-1.4,9.6-1.8,10-0.9s-2.2,3-7.1,6c-10.7,6.5-31.9,18.7-57.4,29.8
				c-25.6,11.1-48.9,18.2-61.1,21.6c-5.5,1.5-8.8,2-9.2,1.1c-1.2-2.8,27.3-19.6,64.6-35.8c21.4-9.3,40.8-16.3,53.8-20.1
				c-0.3-1.4-0.5-2.7-0.8-4c-0.5-2.5-1-5-1.4-7.5c2.3,0.7,4.6,1,6.6,1.2c0.3,1.5,0.7,3.1,1.1,4.6C134.6,90.1,134.9,91.4,135.2,92.7z
				"/>
			<path class="st2" d="M163.6,145.6l26.2,82c1.6,3.7-19.9,22-50.4,35.3s-58.6,16.4-60.2,12.7l-42-75.2c1.5,3.6,31.1-5.9,66-21
				S165.1,149.1,163.6,145.6z M122,222.9c-0.4-0.8-1.3-1.2-2.2-0.9c-0.8,0.4-1.2,1.3-0.9,2.2c0.4,0.9,1.4,1.2,2.2,0.9
				C121.9,224.7,122.3,223.8,122,222.9z M124.9,245.8c-1-2.3-3.6-3.3-5.9-2.3s-3.3,3.6-2.3,5.9c1,2.3,3.6,3.3,5.9,2.3
				C124.8,250.7,125.9,248.1,124.9,245.8z M93.6,222.7c-0.4-0.8-1.4-1.2-2.2-0.9c-0.8,0.4-1.2,1.4-0.9,2.2c0.4,0.9,1.4,1.2,2.2,0.9
				C93.6,224.6,94,223.6,93.6,222.7z M83.9,213.9c-1-2.3-3.6-3.3-5.9-2.3s-3.3,3.6-2.3,5.9c1,2.3,3.6,3.3,5.9,2.3
				C83.8,218.8,84.9,216.1,83.9,213.9z"/>
			<path class="st1" d="M98,301.5c12.7-2.1,31.4-7.3,51.2-15.9c30.2-13.1,52.9-29.9,57-36.3l11.7,33.5c1.1,2.6-21.9,21.6-54.5,35.7
				c-32.5,14.1-62.2,17.9-63.3,15.4l-16.4-31.4c1.6,0.3,4,0.3,7.1,0C92.9,302.2,95.3,301.9,98,301.5z"/>
			<path class="st1" d="M140.2,150c-2.5-11.5-4.8-22.6-7-33.4l-5.2-0.3c3.6-2,7-4,10.1-5.8l1.6,2.6c2.4,11.2,4.8,22.9,7.1,34.9
				c9.9-3,16.1-3.9,16.8-2.3c1.5,3.6-25.5,18.7-60.4,33.9s-64.5,24.6-66,21s25.5-18.7,60.4-33.9C113.7,159.6,128.5,153.8,140.2,150z
				"/>
			<path class="st1" d="M127.9,116.2l5.2,0.3c2.2,10.8,4.5,22,7,33.4c-11.6,3.8-26.5,9.6-42.6,16.6c-34.9,15.2-62,30.3-60.4,33.9
				L14.9,161c14.4-2.4,40.7-11.2,69.8-23.8C101.1,130.1,116,122.8,127.9,116.2z"/>
			<path class="st1" d="M119.7,222c0.9-0.4,1.8,0,2.2,0.9c0.4,0.9,0,1.8-0.9,2.2c-0.8,0.4-1.8,0-2.2-0.9
				C118.5,223.4,118.9,222.4,119.7,222z"/>
			<path class="st1" d="M119,243.5c2.3-1,4.9,0.1,5.9,2.3c1,2.3,0,4.9-2.3,5.9s-4.9-0.1-5.9-2.3C115.7,247.1,116.7,244.5,119,243.5z
				"/>
			<path class="st1" d="M91.4,221.8c0.8-0.4,1.8,0,2.2,0.9c0.4,0.9,0,1.8-0.9,2.2c-0.8,0.4-1.8,0-2.2-0.9
				C90.1,223.2,90.5,222.2,91.4,221.8z"/>
			<path class="st1" d="M78,211.5c2.3-1,4.9,0.1,5.9,2.3c1,2.3-0.1,4.9-2.3,5.9c-2.3,1-4.9,0-5.9-2.3
				C74.7,215.2,75.8,212.5,78,211.5z"/>
		</g>
		<g>
			<path class="st3" d="M135.2,92.7c5.8-1.4,9.6-1.8,10-0.9s-2.2,3-7.1,6c-10.7,6.5-31.9,18.7-57.4,29.8
				c-25.6,11.1-48.9,18.2-61.1,21.6c-5.5,1.5-8.8,2-9.2,1.1c-1.2-2.8,27.3-19.6,64.6-35.8c21.4-9.3,40.8-16.3,53.8-20.1"/>
			<path class="st4" d="M1.1,154.5c-2.5-5.8,29.8-25.4,72.2-43.8c20.8-9,40.1-16.1,54.8-20.2"/>
			<path class="st4" d="M154.6,88.3c0.3,1.9-2.3,4.9-7.2,8.7c-11.6,8.9-35.9,22.1-65,34.8c-29.1,12.6-55.4,21.4-69.8,23.8
				c-6.2,1-10.2,0.9-11.3-0.7"/>
			<path class="st4" d="M134.3,88.8c11.5-2.9,19.1-3.4,20.2-0.9"/>
			<path class="st3" d="M146.7,147.9L146.7,147.9c10-3,16.1-3.9,16.8-2.3c1.5,3.6-25.5,18.7-60.4,33.9s-64.5,24.6-66,21
				s25.5-18.7,60.4-33.9c16.2-7,31-12.7,42.6-16.6"/>
			<path class="st4" d="M154.5,87.9l0.1,0.3l52,159h0.1c0.2,0.5,0,1.2-0.6,2.1c-4.1,6.4-26.8,23.2-57,36.3
				c-19.8,8.6-38.5,13.8-51.2,15.9c-2.6,0.5-5,0.8-7.1,1c-3.2,0.3-5.6,0.3-7.1,0c-1.1-0.2-1.7-0.5-1.9-1h0.1L1.3,154.8l-0.2-0.3"/>
			<path class="st3" d="M37.1,200.5L14.9,161c14.4-2.4,40.7-11.2,69.8-23.8c16.4-7.1,31.2-14.4,43.1-21c3.6-2,7-4,10.1-5.8
				c4.7-2.9,8.7-5.5,11.8-7.9l13.8,43.1l26.2,82c1.6,3.7-19.9,22-50.4,35.3c-30.5,13.3-58.6,16.4-60.2,12.7L37.1,200.5z"/>
			<path class="st4" d="M83.7,302.4l16.4,31.4c1.1,2.6,30.8-1.3,63.3-15.4"/>
			<path class="st4" d="M206.2,249.3l11.7,33.5c1.1,2.6-21.9,21.6-54.5,35.7"/>
			<path class="st4" d="M118,34.2C114.6,13.4,112.9,1,112.9,1s3.5,12.6,8.7,33.8"/>
			<path class="st4" d="M141.1,154.5c-0.3-1.5-0.7-3-1-4.5c-2.5-11.5-4.8-22.6-7-33.4"/>
			<path class="st4" d="M149.4,162.1c4.7,25.3,9.3,52,13.1,79.1c-7-25.5-13.3-50.9-18.8-75.2"/>
			<path class="st4" d="M139.6,113c2.4,11.2,4.8,22.9,7.1,34.9c0.2,1.2,0.5,2.3,0.7,3.5"/>
			<path class="st4" d="M133.3,84.2c0.3,1.5,0.7,3.1,1.1,4.6c0.3,1.3,0.6,2.6,0.9,4l0,0c0.2,1,0.5,2.1,0.7,3.1"/>
			<path class="st4" d="M129.5,98c-0.2-1.2-0.5-2.3-0.7-3.5c-0.3-1.4-0.5-2.7-0.8-4c-0.5-2.5-1-5-1.4-7.5"/>
			<path class="st4" d="M121.6,34.8c5.1,1,10.4,2.9,15.7,5.8c17.5,9.5,21.3,22.7,15.6,33.3c-3.7,6.8-10.5,10.8-19.5,10.3
				c-2.1-0.1-4.3-0.5-6.6-1.2c-3.2-0.8-6.7-2.3-10.3-4.2C99,69.3,89.5,53,95.3,42.4c3.7-6.7,12.5-9.5,22.9-8.2
				C119.2,34.3,120.4,34.5,121.6,34.8z"/>
			<path class="st3" d="M83.9,213.9c1,2.3-0.1,4.9-2.3,5.9c-2.3,1-4.9,0-5.9-2.3s0.1-4.9,2.3-5.9C80.3,210.6,82.9,211.6,83.9,213.9z
				"/>
			<path class="st3" d="M93.6,222.7c0.4,0.9,0,1.8-0.9,2.2c-0.8,0.4-1.8,0-2.2-0.9c-0.4-0.8,0-1.8,0.9-2.2
				C92.2,221.5,93.2,221.9,93.6,222.7z"/>
			<path class="st3" d="M124.9,245.8c1,2.3,0,4.9-2.3,5.9s-4.9-0.1-5.9-2.3c-1-2.3,0.1-4.9,2.3-5.9
				C121.3,242.5,123.9,243.6,124.9,245.8z"/>
			<path class="st3" d="M122,222.9c0.4,0.9,0,1.8-0.9,2.2c-0.8,0.4-1.8,0-2.2-0.9c-0.4-0.8,0-1.8,0.9-2.2
				C120.6,221.7,121.6,222.1,122,222.9z"/>
			<path class="st4" d="M100.1,51.6c0,0,6.3-2.4,3.6-10.2"/>
			<path class="st4" d="M101,51.1c0,0-1.5-2-0.3-6.4"/>
			<polyline class="st3" points="90.9,302.4 90.9,302.4 103.8,328.2 			"/>
			<line class="st3" x1="98" y1="301.5" x2="106.2" y2="318"/>
			<line class="st3" x1="80.1" y1="285.7" x2="85.2" y2="295.5"/>
			<line class="st3" x1="85.5" y1="288.1" x2="88.6" y2="294"/>
		</g>
	</g>
	<g>
		<g>
			<path class="st1" d="M233.9,336.7c0,0-13.3,15-31.7,16.4c-0.1-0.1-0.1-0.1-0.1-0.1C213.7,334.8,233.9,336.7,233.9,336.7z"/>
			<path class="st1" d="M203.7,353.9L203.7,353.9c-0.8-0.3-1.4-0.6-1.6-0.7c18.5-1.4,31.7-16.4,31.7-16.4c-2,4.7-4.2,8.4-6.5,11.1
				l0,0c-0.6,0.7-1.3,1.4-1.9,2c-2,1.9-4,3.2-6,4.1C212.8,356.8,206.6,355,203.7,353.9z"/>
		</g>
		<g>
			<path class="st4" d="M203.7,353.9c-0.8-0.3-1.4-0.6-1.6-0.7c-0.1-0.1-0.1-0.1-0.1-0.1c10.7-17.7,31.8-16.3,31.8-16.3
				c-2,4.7-4.2,8.4-6.5,11.1"/>
			<path class="st4" d="M227.3,347.8c-0.6,0.7-1.3,1.4-1.9,2c-2,1.9-4,3.2-6,4.1c-6.6,2.9-12.8,1.1-15.7,0"/>
			<path class="st3" d="M233.9,336.7c0,0-13.3,15-31.7,16.4c0,0,0,0-0.1,0"/>
		</g>
	</g>
	<g>
		<g>
			<path class="st1" d="M201.6,97.6c0,0-0.4-20,12.3-33.5c0.1,0,0.1,0,0.1,0C217.8,85.4,201.6,97.6,201.6,97.6z"/>
			<path class="st1" d="M212.3,64.6L212.3,64.6c0.8-0.3,1.4-0.5,1.6-0.5c-12.7,13.5-12.3,33.5-12.3,33.5c-1.7-4.8-2.5-9-2.7-12.6
				l0,0c0-1,0-1.9,0-2.8c0.2-2.7,0.8-5.1,1.7-7.1C203.6,68.6,209.4,65.7,212.3,64.6z"/>
		</g>
		<g>
			<path class="st4" d="M212.3,64.6c0.8-0.3,1.4-0.5,1.6-0.5c0.1,0,0.1,0,0.1,0c4.1,20.2-12.4,33.6-12.4,33.6
				c-1.7-4.8-2.5-9-2.7-12.6"/>
			<path class="st4" d="M199,85c0-1,0-1.9,0-2.8c0.2-2.7,0.8-5.1,1.7-7.1c2.9-6.6,8.7-9.5,11.6-10.6"/>
			<path class="st3" d="M201.6,97.6c0,0-0.4-20,12.3-33.5c0,0,0,0,0.1-0.1"/>
		</g>
	</g>
	<g>
		<g>
			<path class="st1" d="M30.1,303.1c0,0,4.5,16.8-3.4,30.8c-0.1,0-0.1,0-0.1,0C19,316.8,30.1,303.1,30.1,303.1z"/>
			<path class="st1" d="M28,333.2L28,333.2c-0.6,0.4-1.1,0.7-1.3,0.8c7.9-14,3.4-30.8,3.4-30.8c2.5,3.7,4,7,4.9,10l0,0
				c0.2,0.8,0.4,1.6,0.5,2.3c0.4,2.3,0.4,4.4,0.1,6.3C34.4,328,30.2,331.6,28,333.2z"/>
		</g>
		<g>
			<path class="st4" d="M28,333.2c-0.6,0.4-1.1,0.7-1.3,0.8c-0.1,0-0.1,0-0.1,0c-7.7-16.2,3.4-30.9,3.4-30.9c2.5,3.7,4,7,4.9,10"/>
			<path class="st4" d="M34.9,313.2c0.2,0.8,0.4,1.6,0.5,2.3c0.4,2.3,0.4,4.4,0.1,6.3c-1.1,6.1-5.3,9.8-7.6,11.3"/>
			<path class="st3" d="M30.1,303.1c0,0,4.5,16.8-3.4,30.8c0,0,0,0,0,0.1"/>
		</g>
	</g>
</g>
<g id="TEXTS">
</g>
</svg>
