<?xml version="1.0" encoding="utf-8"?>
<!-- Generator: Adobe Illustrator 27.9.0, SVG Export Plug-In . SVG Version: 6.00 Build 0)  -->
<svg version="1.1" xmlns="http://www.w3.org/2000/svg" xmlns:xlink="http://www.w3.org/1999/xlink" x="0px" y="0px"
	 viewBox="0 0 178 151.4" style="enable-background:new 0 0 178 151.4;" xml:space="preserve">
<style type="text/css">
	.st0{fill:#F3F0E7;}
	.st1{clip-path:url(#SVGID_00000146459945557368981900000010169403072695239066_);}
	.st2{fill:none;stroke:#7B6117;stroke-width:3.7752;stroke-linecap:round;stroke-linejoin:round;stroke-miterlimit:10;}
	.st3{fill:#599942;}
	.st4{fill:#FF494B;}
	.st5{fill:none;stroke:#7B6117;stroke-width:0.9516;stroke-linecap:round;stroke-linejoin:round;stroke-miterlimit:10;}
	.st6{fill:none;stroke:#7B6117;stroke-width:1.9032;stroke-linecap:round;stroke-linejoin:round;stroke-miterlimit:10;}
	.st7{fill:#FF7D1D;}
	.st8{fill:#FFBF29;}
	.st9{fill:none;stroke:#7B6117;stroke-width:0.9516;stroke-miterlimit:10;}
	.st10{fill:none;stroke:#7B6117;stroke-width:1.9032;stroke-miterlimit:10;}
</style>
<g id="BACKGROUND">
</g>
<g id="OBJECTS">
	<g>
		<g>
			<path class="st0" d="M140.9,55.4C168.4,37,177,21.2,177,21.2c-3,11.3-10.8,25.5-10.8,25.5l5.7-0.1c-10.8,23-32.2,31-32.2,31
				l2.9,3.9c-5.3,3.8-11.4,5.2-17,5.3c-10.3,0.2-19.1-3.8-19.9-4.1c0,0-0.1,0-0.1,0C104,80.5,102,79,100,78c1.1-0.5,2.2-1.3,3.1-2.1
				l0,0c12.4-5.4,22.9-11,31.7-16.5C136.9,58,139,56.7,140.9,55.4z"/>
			<path class="st0" d="M136.9,34.3c14.3-7.6,40.1-13.1,40.1-13.1s-8.7,15.9-36.1,34.3c-1.9,1.3-4,2.6-6.1,3.9c0,0-1.7-8.6,1-19.1
				L136.9,34.3z"/>
			<path class="st0" d="M135.7,29.8l1.2,4.4l-1.1,6c-2.7,10.6-1,19.1-1,19.1c-8.8,5.5-19.3,11.1-31.7,16.5
				c5.2-4.7,7.8-13.3,7.8-13.3c-5.8-0.1-10.2,0.8-13.5,2c0.7-1.7,1.2-3.5,1.5-5.3c0-0.1,0.1-0.1,0-0.2c3.3-13.4,14.2-21.2,14.2-21.2
				l3.5,4.8C122.6,33.7,135.7,29.8,135.7,29.8z"/>
			<path class="st0" d="M125.6,86.8c6.6,4.5,11.2,13.2,11.2,13.2s-17.8,1-31.1-5.4c-0.1-1.1-0.2-1.7-0.2-1.7l5.5,1
				c-1.1-4.9-3-8.5-5.2-11.2C106.5,83,115.4,87,125.6,86.8z"/>
			<path class="st0" d="M82.7,68C64.4,33,69.4,2.9,69.8,1c0-0.1,0-0.1,0-0.1s10.3,27.7,19.8,42.2l6-8.2c0,0,5.4,12.2,3.3,24.2
				c0,0.1,0,0.1,0,0.2c-0.3,1.8-0.8,3.5-1.5,5.3l0,0c-8.8,3.4-9.5,10.1-9.6,10.9c0,0,0,0-0.1,0c-0.2-0.2-0.7-0.5-1.4-1.1l0,0
				C85,72.3,83.8,70.1,82.7,68z"/>
			<path class="st0" d="M105.7,94.5c13.3,6.4,31.1,5.4,31.1,5.4c-16.6,5.5-30.7,0-30.7,0l0,0C106,97.6,105.8,95.8,105.7,94.5z"/>
			<path class="st0" d="M110.9,62.6c0,0-14.5,5.2-23.1,13c0.1-0.9,0.7-7.5,9.6-10.9l0,0C100.7,63.3,105.1,62.5,110.9,62.6z"/>
			<path class="st0" d="M87.8,75.5c8.6-7.7,23.1-13,23.1-13s-2.6,8.5-7.8,13.3l0,0c-0.9,0.9-2,1.6-3.1,2.1c-2.8,1.3-6.1,1.4-10-0.9
				C89.3,76.7,88.6,76.2,87.8,75.5C87.8,75.6,87.8,75.6,87.8,75.5z"/>
			<path class="st0" d="M105.7,94.5c0.2,1.2,0.3,3.1,0.4,5.4c0.3,6.9-0.3,17.6-5.6,25.5c0,0,0.3-23.1-6.5-40.2
				c-0.3-0.9-0.7-1.7-1.1-2.6c-0.9-2-1.9-3.8-3-5.5c3.9,2.3,7.2,2.2,10,0.9c2,1.1,4,2.5,5.8,4.7c0,0,0,0,0.1,0
				c2.2,2.6,4.1,6.2,5.2,11.2l-5.5-1C105.5,92.9,105.6,93.5,105.7,94.5z"/>
			<path class="st0" d="M93,82.6c0.4,0.8,0.8,1.7,1.1,2.6c6.8,17.1,6.5,40.2,6.5,40.2s-5.4-11.2-11.9-21.6c-0.7-1.1-1.4-2.2-2.1-3.3
				l-4.6,6.3c0,0-3.5-7.9-2.9-16.3c0-0.1,0-0.2,0-0.3c0.1-1.4,0.4-2.9,0.8-4.4c3.2-2.1,6.2-5.4,7.9-10.4c0.8,0.6,1.5,1.1,2.2,1.5
				C91.1,78.8,92.1,80.6,93,82.6z"/>
			<path class="st0" d="M87.7,75.5C87.8,75.6,87.8,75.6,87.7,75.5c-1.6,5.1-4.6,8.3-7.8,10.4c-6.3,4.1-13.5,3.9-13.5,3.9l0.7-4.8
				c-5.5,0.9-15,0.2-15,0.2S68.8,72.9,87.7,75.5z"/>
			<path class="st0" d="M82.7,68c1.1,2.1,2.3,4.3,3.6,6.5c-2.7-1.8-8.6-4.9-15.8-3.4c-0.8-0.4-1.5-0.9-2.3-1.5c0,0-0.1-0.1-0.3-0.2
				c-6.5-5-12-13.9-11.3-29.9l7.1,1.3c0,0-4.3-15.8,6-39.7C69.4,2.9,64.4,33,82.7,68z"/>
			<path class="st0" d="M86.3,74.5c0.7,0.5,1.2,0.9,1.4,1.1c-18.9-2.6-35.6,9.7-35.6,9.7c3-4.3,6.1-7.5,9-9.7l0,0
				c0.8-0.6,1.6-1.1,2.3-1.6c2.4-1.5,4.8-2.3,7-2.8C77.8,69.6,83.7,72.7,86.3,74.5L86.3,74.5z"/>
			<path class="st0" d="M79.4,115.6c1.2-2.9,2.1-5.8,2.5-8.7l4.6-6.3c0.7,1.1,1.4,2.2,2.1,3.3c-0.2,25.5-35,46.6-35,46.6
				S72.2,133.3,79.4,115.6z"/>
			<path class="st0" d="M42,85.5c5.9-3.9,12.2-7.4,19.1-10.1c-2.9,2.2-6,5.4-9,9.7c0,0,9.6,0.8,15-0.2l-0.7,4.8
				c0,0,7.2,0.3,13.5-3.9c-0.4,1.4-0.7,2.9-0.8,4.4c0,0.1,0,0.2,0,0.3c-1.5,10.4-14.2,21.3-14.2,21.3l-3.5-4.8
				c-2.9,4.5-7.6,7.7-11.6,9.8c-4.1,2.2-7.4,3.2-7.4,3.2l-1.2-4.4C26.8,123.2,1,128.7,1,128.7s0,0,0,0c0.4-0.7,10.8-18,28.7-33.6
				C33.5,91.7,37.6,88.5,42,85.5z"/>
			<path class="st0" d="M29.7,95c-18,15.6-28.3,32.9-28.7,33.6c3-11.3,10.8-25.5,10.8-25.5l-5.7,0.1c10.8-23,32.2-31.1,32.2-31.1
				l-2.9-3.9c14.4-10.4,30.4-0.5,32.6,1c0.2,0.1,0.3,0.2,0.3,0.2c0.8,0.6,1.5,1.1,2.3,1.5c-2.2,0.5-4.6,1.3-7,2.8
				c-0.8,0.5-1.5,1-2.3,1.6l0,0c-6.9,2.7-13.3,6.2-19.1,10.1C37.6,88.5,33.5,91.7,29.7,95z"/>
			<path class="st0" d="M79.4,115.6c-7.2,17.7-25.7,34.9-25.7,34.9c1.1-7.1,1.2-23.2,1.2-23.2l-6.2,2.4l1-12.7l0,0
				c4-2.1,8.7-5.3,11.6-9.8l3.5,4.8c0,0,12.7-10.9,14.2-21.3c-0.7,8.4,2.9,16.3,2.9,16.3C81.5,109.7,80.6,112.6,79.4,115.6z"/>
		</g>
		<g>
			<path class="st6" d="M69.8,1c0,0,10.3,27.7,19.8,42.2l6-8.2c0,0,5.4,12.2,3.3,24.2"/>
			<path class="st6" d="M68,69.3c-6.5-5-12-13.9-11.3-29.9l7.1,1.3c0,0-4.3-15.8,6-39.7"/>
			<path class="st6" d="M70.5,71c-0.8-0.4-1.5-0.9-2.3-1.5"/>
			<path class="st6" d="M98.9,59.3c-0.3,1.8-0.8,3.5-1.5,5.3"/>
			<path class="st6" d="M100,78c2,1.1,4,2.5,5.8,4.7"/>
			<path class="st6" d="M79.1,90.3c0.1-1.4,0.4-2.9,0.8-4.4"/>
			<path class="st6" d="M105.8,82.7c2.2,2.6,4.1,6.2,5.2,11.2l-5.5-1c0,0,0.1,0.6,0.2,1.7c0.2,1.2,0.3,3.1,0.4,5.4
				c0.3,6.9-0.3,17.6-5.6,25.5c0,0-5.4-11.2-11.9-21.6c-0.7-1.1-1.4-2.2-2.1-3.3l-4.6,6.3c0,0-3.5-7.9-2.9-16.3"/>
			<path class="st6" d="M98.9,59.5c0-0.1,0-0.1,0-0.2c0-0.1,0.1-0.1,0-0.2c3.3-13.4,14.2-21.2,14.2-21.2l3.5,4.8
				c5.9-9.1,19-13,19-13l1.2,4.4c14.3-7.6,40.1-13.1,40.1-13.1c-3,11.3-10.8,25.5-10.8,25.5l5.7-0.1c-10.8,23-32.2,31-32.2,31
				l2.9,3.9c-5.3,3.8-11.4,5.2-17,5.3c-10.3,0.2-19.1-3.8-19.9-4.1c0,0-0.1,0-0.1,0"/>
			<path class="st6" d="M1,128.7c3-11.3,10.8-25.5,10.8-25.5l-5.7,0.1c10.8-23,32.2-31.1,32.2-31.1l-2.9-3.9
				c14.4-10.4,30.4-0.5,32.6,1c0.2,0.1,0.3,0.2,0.3,0.2"/>
			<path class="st6" d="M79.1,90.3c0,0.1,0,0.2,0,0.3c-1.5,10.4-14.2,21.3-14.2,21.3l-3.5-4.8c-2.9,4.5-7.6,7.7-11.6,9.8
				c-4.1,2.2-7.4,3.2-7.4,3.2l-1.2-4.4C26.8,123.2,1,128.7,1,128.7"/>
			<path class="st6" d="M86.3,74.5c0.7,0.5,1.2,0.9,1.4,1.1c0.1,0.1,0.1,0.1,0.1,0.1c-1.7,5-4.7,8.3-7.9,10.4
				c-6.3,4.1-13.5,3.9-13.5,3.9l0.7-4.8c-5.5,0.9-15,0.2-15,0.2c3-4.3,6.1-7.5,9-9.7"/>
			<path class="st6" d="M61.2,75.4c0.8-0.6,1.6-1.1,2.3-1.6c2.4-1.5,4.8-2.3,7-2.8c7.3-1.4,13.2,1.7,15.8,3.4"/>
			<path class="st6" d="M103.1,75.9c-0.9,0.9-2,1.6-3.1,2.1c-2.8,1.3-6.1,1.4-10-0.9c-0.7-0.4-1.4-0.9-2.2-1.5c0,0,0,0,0-0.1
				c0.1-0.9,0.7-7.5,9.6-10.9l0,0c3.3-1.3,7.7-2.1,13.5-2C110.9,62.6,108.3,71.1,103.1,75.9"/>
			<path class="st5" d="M1,128.7C1,128.7,1,128.7,1,128.7c0.5-0.8,10.8-18,28.7-33.7c3.8-3.3,7.9-6.5,12.3-9.5
				c5.9-3.9,12.2-7.4,19.1-10.1l0,0"/>
			<path class="st5" d="M177,21.2c0,0-8.7,15.9-36.1,34.3c-1.9,1.3-4,2.6-6.1,3.9c-8.8,5.5-19.3,11.1-31.7,16.5l0,0"/>
			<path class="st5" d="M69.8,1C69.8,1,69.8,1,69.8,1c-0.4,1.9-5.4,32,12.9,67c1.1,2.1,2.3,4.3,3.6,6.5l0,0"/>
			<path class="st5" d="M100.6,125.4c0,0,0.3-23.1-6.5-40.2c-0.3-0.9-0.7-1.7-1.1-2.6c-0.9-2-1.9-3.8-3-5.5"/>
			<path class="st5" d="M52.1,85.2c0,0,16.6-12.3,35.6-9.7c0,0,0,0,0.1,0"/>
			<path class="st5" d="M110.9,62.6c0,0-14.5,5.2-23.1,13"/>
			<path class="st6" d="M49.7,116.9l-1,12.7l6.2-2.4c0,0-0.2,16.1-1.2,23.2c0,0,34.7-21.1,35-46.6"/>
			<path class="st6" d="M106.1,99.9c0,0,14.1,5.6,30.7,0c0,0-4.5-8.7-11.2-13.2"/>
			<path class="st5" d="M53.7,150.4c0,0,18.4-17.1,25.7-34.9c1.2-2.9,2.1-5.8,2.5-8.7"/>
			<path class="st5" d="M136.8,99.9c0,0-17.8,1-31.1-5.4l0,0"/>
			<path class="st5" d="M44.7,72.1c0,0,9.4-2,18.8,1.7"/>
			<path class="st5" d="M16.5,100.4c0,0,6.9-4.3,13.1-5.3"/>
			<path class="st5" d="M42,110c0,0,4.3-14.6,0-24.5"/>
			<path class="st5" d="M59.8,124.4c0,0,8.7-5.9,19.6-8.8l0,0"/>
			<path class="st5" d="M112.1,71.7c0,0,9.3,5.9,22.4,5.1"/>
			<path class="st5" d="M140.9,55.4c0,0,10.9-0.1,20.6-5.5"/>
			<path class="st5" d="M134.8,59.4c0,0-1.7-8.6,1-19.1"/>
			<path class="st5" d="M66.4,46.1c0,0,3.9,8.8,11.9,12.5"/>
			<path class="st5" d="M82.7,68C82.7,68,82.7,68,82.7,68c0.4-0.4,7.3-7.4,6.7-18.4"/>
			<path class="st5" d="M88.4,96.1c0,0,0.9-8.8,4.6-13.6l0,0"/>
			<path class="st5" d="M94.1,85.2c0,0,4.8,1.3,8.2,5.3"/>
		</g>
	</g>
</g>
<g id="TEXTS">
</g>
</svg>
