<?xml version="1.0" encoding="utf-8"?>
<!-- Generator: Adobe Illustrator 27.9.0, SVG Export Plug-In . SVG Version: 6.00 Build 0)  -->
<svg version="1.1" xmlns="http://www.w3.org/2000/svg" xmlns:xlink="http://www.w3.org/1999/xlink" x="0px" y="0px"
	 viewBox="0 0 214.5 255.9" style="enable-background:new 0 0 214.5 255.9;" xml:space="preserve">
<style type="text/css">
	.st0{fill:#F3F0E7;}
	.st1{clip-path:url(#SVGID_00000045580373772218741910000014210319042289388952_);}
	.st2{fill:none;stroke:#7B6117;stroke-width:3.7752;stroke-linecap:round;stroke-linejoin:round;stroke-miterlimit:10;}
	.st3{fill:#599942;}
	.st4{fill:#FF494B;}
	.st5{fill:none;stroke:#7B6117;stroke-width:0.9516;stroke-linecap:round;stroke-linejoin:round;stroke-miterlimit:10;}
	.st6{fill:none;stroke:#7B6117;stroke-width:1.9032;stroke-linecap:round;stroke-linejoin:round;stroke-miterlimit:10;}
	.st7{fill:#FF7D1D;}
	.st8{fill:#FFBF29;}
	.st9{fill:none;stroke:#7B6117;stroke-width:0.9516;stroke-miterlimit:10;}
	.st10{fill:none;stroke:#7B6117;stroke-width:1.9032;stroke-miterlimit:10;}
</style>
<g id="BACKGROUND">
</g>
<g id="OBJECTS">
	<g>
		<g>
			<path class="st7" d="M201.5,104.3c0.9,28.8-21.9,78.7-60.2,106c-19.9,0.7-43.6-3.8-64.8-11.9c-0.7-0.3-1.5-0.5-2.2-0.8
				c-20.9-7.7-45.1-20.9-55-31.9C7.6,120.1,22.5,67.2,41.7,45.8c-0.6,1.8,7.7,6.6,21.8,13c14,6.4,33.8,14.5,55.8,22.5
				C163.4,97.6,200.3,107.8,201.5,104.3z M165.6,164.2c2.2-1.3,3.4-3.9,3-6.4l-5-30.8c-0.3-1.9-1.4-3.3-3-4l-27.6-11.2
				c-1.3-0.5-2.9-0.4-4.2,0.3l-31.5,17.3c-2.1,1.1-3.4,3.6-3.1,6l2.9,33c0.2,2.3,1.7,4.1,3.7,4.6l33.1,8c1.2,0.3,2.5,0.1,3.7-0.6
				L165.6,164.2z M183.7,116.6c0.3-0.8-0.1-1.8-0.9-2.1c-0.8-0.3-1.8,0.1-2.1,1c-0.3,0.8,0.1,1.7,1,2.1
				C182.5,117.8,183.4,117.4,183.7,116.6z M154.3,110c0.3-0.9-0.1-2-1.1-2.3c-0.9-0.3-2,0.1-2.3,1.1c-0.3,0.9,0.1,2,1.1,2.3
				C152.9,111.4,153.9,111,154.3,110z M120.3,197.7c0.2-0.6-0.1-1.2-0.6-1.4c-0.6-0.2-1.2,0.1-1.4,0.6c-0.2,0.6,0.1,1.2,0.7,1.4
				C119.4,198.5,120.1,198.2,120.3,197.7z M109.4,97.2c0.3-0.8-0.1-1.7-0.9-2c-0.8-0.3-1.7,0.1-2,0.9c-0.3,0.8,0.1,1.7,0.9,2
				C108.2,98.4,109.1,98,109.4,97.2z M73.7,175.3c0.7-1.9-0.3-3.9-2.1-4.6c-1.9-0.7-4,0.3-4.6,2.1c-0.7,1.9,0.3,4,2.2,4.6
				C71,178.1,73,177.2,73.7,175.3z M74.1,119.7c0.3-0.8-0.1-1.7-0.9-1.9c-0.8-0.3-1.7,0.1-2,0.9c-0.3,0.8,0.1,1.6,0.9,1.9
				C73,120.9,73.8,120.5,74.1,119.7z M76.5,97.7c0.8-0.2,1.2-1,0.9-1.8c-0.2-0.8-1-1.2-1.8-0.9c-0.8,0.2-1.2,1-0.9,1.8
				C74.9,97.6,75.7,98,76.5,97.7z M37.7,158c0.2-0.6-0.1-1.2-0.6-1.4c-0.6-0.2-1.2,0.1-1.4,0.6c-0.2,0.6,0.1,1.2,0.7,1.4
				C36.9,158.8,37.5,158.5,37.7,158z M39.9,134.6c0.3-0.7-0.1-1.6-0.8-1.8c-0.7-0.3-1.6,0.1-1.8,0.9c-0.3,0.8,0.1,1.6,0.9,1.8
				C38.8,135.8,39.6,135.4,39.9,134.6z M52.5,81.6c2-0.6,3.1-2.8,2.5-4.8c-0.6-2-2.8-3.1-4.8-2.5c-2,0.6-3.1,2.8-2.5,4.7
				C48.4,81.1,50.5,82.2,52.5,81.6z M39.1,123.6c0.7-2-0.3-4.2-2.3-4.9c-2-0.7-4.1,0.3-4.9,2.3c-0.7,2,0.3,4.1,2.3,4.9
				C36.2,126.5,38.4,125.5,39.1,123.6z"/>
			<path class="st7" d="M168.6,157.8c0.4,2.5-0.8,5.2-3,6.4l-28.1,16.3c-1.2,0.7-2.5,0.9-3.7,0.6l-33.1-8c-2.1-0.5-3.5-2.3-3.7-4.6
				l-2.9-33c-0.2-2.5,1.1-4.9,3.1-6l31.5-17.3c1.3-0.7,2.9-0.8,4.2-0.3l27.6,11.2c1.6,0.6,2.7,2.1,3,4L168.6,157.8z"/>
			<path class="st0" d="M182.8,114.5c0.8,0.3,1.3,1.2,0.9,2.1c-0.3,0.8-1.2,1.3-2.1,1c-0.8-0.3-1.3-1.2-1-2.1
				C181,114.6,181.9,114.2,182.8,114.5z"/>
			<path class="st0" d="M205.9,51.4c0,0,45.2,105.8-83.2,194.6c0,0-1.8-0.1-5-0.4l0,0c-9-1-29.2-4-53.7-13
				c-24.6-9-41.9-19.7-49.4-24.7l0,0c-2.7-1.8-4.1-2.9-4.1-2.9C-30.2,54.2,72.6,2.6,72.6,2.6c-0.6,1.6,1.8,4.1,6.5,7.3
				c10.2,7,31.5,16.9,56.8,26.2c25.3,9.2,48,15.4,60.3,16.7C201.8,53.4,205.3,52.9,205.9,51.4z M141.3,210.3
				c38.4-27.3,61.1-77.2,60.2-106c1.3-3.5-33.5-19.4-77.6-35.6C79.8,52.6,43,42.3,41.7,45.8C22.5,67.2,7.6,120.1,19.3,165.7
				c9.9,11.1,34,24.3,55,31.9c0.8,0.3,1.5,0.5,2.2,0.8C97.7,206.5,121.4,211,141.3,210.3z"/>
			<path class="st0" d="M205.9,51.4c-0.6,1.6-4.1,2-9.7,1.4c-12.3-1.3-35-7.4-60.3-16.7c-25.3-9.3-46.6-19.2-56.8-26.2
				c-4.7-3.2-7.1-5.7-6.5-7.3c1.8-5,33.1,1.8,70,15.3C179.4,31.3,207.7,46.3,205.9,51.4z M189.9,47.9c4.8,1,7.6,1.2,7.9,0.5
				c0.9-2.4-24.2-15.2-56.5-27.1C109,9.4,81.6,3,80.7,5.5c-0.3,0.8,2,2.4,6.3,4.7c9.4,5,27.9,14.3,50.1,22.4
				C159.4,40.8,179.5,45.6,189.9,47.9z"/>
			<path class="st0" d="M123.9,68.7c44.1,16.1,78.9,32.1,77.6,35.6c-1.3,3.5-38.1-6.8-82.2-22.9c-22.1-8.1-41.8-16.1-55.8-22.5
				c-14.1-6.4-22.4-11.3-21.8-13C43,42.3,79.8,52.6,123.9,68.7z"/>
			<path class="st0" d="M197.8,48.3c-0.3,0.8-3.1,0.6-7.9-0.5c-10.4-2.3-30.5-7.1-52.7-15.2C114.9,24.5,96.4,15.2,87,10.2
				c-4.3-2.3-6.6-4-6.3-4.7C81.6,3,109,9.4,141.3,21.3C173.6,33.1,198.7,45.9,197.8,48.3z"/>
			<path class="st0" d="M117.7,245.6l-3.4,9.4c0,0-20.9-1.5-53.5-13.4c-32.7-11.9-49.6-24.3-49.6-24.3l3.4-9.4
				c7.5,5,24.9,15.7,49.4,24.7C88.5,241.6,108.7,244.6,117.7,245.6z"/>
			<path class="st0" d="M153.2,107.7c0.9,0.3,1.4,1.4,1.1,2.3s-1.4,1.4-2.3,1.1c-0.9-0.3-1.4-1.4-1.1-2.3
				C151.2,107.8,152.3,107.4,153.2,107.7z"/>
			<path class="st0" d="M119.6,196.3c0.6,0.2,0.9,0.8,0.6,1.4c-0.2,0.6-0.8,0.8-1.4,0.6c-0.6-0.2-0.9-0.8-0.7-1.4
				C118.4,196.3,119.1,196.1,119.6,196.3z"/>
			<path class="st0" d="M108.4,95.2c0.8,0.3,1.2,1.2,0.9,2c-0.3,0.8-1.2,1.2-2,0.9c-0.8-0.3-1.2-1.2-0.9-2
				C106.8,95.3,107.6,94.9,108.4,95.2z"/>
			<path class="st0" d="M71.6,170.7c1.9,0.7,2.8,2.8,2.1,4.6c-0.7,1.9-2.8,2.8-4.6,2.2c-1.9-0.7-2.8-2.8-2.2-4.6
				C67.6,170.9,69.7,170,71.6,170.7z"/>
			<path class="st0" d="M73.2,117.8c0.8,0.3,1.2,1.1,0.9,1.9c-0.3,0.8-1.1,1.2-1.9,0.9c-0.8-0.3-1.2-1.1-0.9-1.9
				C71.6,117.9,72.4,117.5,73.2,117.8z"/>
			<path class="st0" d="M77.4,96c0.2,0.8-0.2,1.5-0.9,1.8c-0.8,0.2-1.5-0.2-1.8-0.9c-0.2-0.8,0.2-1.6,0.9-1.8
				C76.4,94.8,77.2,95.2,77.4,96z"/>
			<path class="st0" d="M37.1,156.6c0.6,0.2,0.9,0.8,0.6,1.4c-0.2,0.6-0.8,0.8-1.4,0.6c-0.6-0.2-0.9-0.8-0.7-1.4
				C35.9,156.6,36.5,156.4,37.1,156.6z"/>
			<path class="st0" d="M39.1,132.8c0.7,0.3,1.1,1.1,0.8,1.8c-0.3,0.8-1.1,1.1-1.8,0.8c-0.7-0.3-1.1-1.1-0.9-1.8
				C37.5,132.9,38.3,132.5,39.1,132.8z"/>
			<path class="st0" d="M55,76.8c0.6,2-0.5,4.1-2.5,4.8c-2,0.6-4.1-0.5-4.8-2.5c-0.6-2,0.5-4.1,2.5-4.7C52.2,73.7,54.3,74.8,55,76.8
				z"/>
			<path class="st0" d="M36.9,118.7c2,0.7,3,2.9,2.3,4.9c-0.7,2-2.9,3-4.9,2.2c-2-0.7-3-2.9-2.3-4.9C32.7,119,34.9,118,36.9,118.7z"
				/>
		</g>
		<g>
			<path class="st6" d="M14.6,207.9c7.5,5,24.9,15.7,49.4,24.7"/>
			<path class="st6" d="M72.6,2.6c0,0-102.8,51.6-62.1,202.4c0,0,1.4,1.1,4.1,2.9"/>
			<path class="st5" d="M197.8,48.3c-0.3,0.8-3.1,0.6-7.9-0.5c-10.4-2.3-30.5-7.1-52.7-15.2C114.9,24.5,96.4,15.2,87,10.2
				c-4.3-2.3-6.6-4-6.3-4.7C81.6,3,109,9.4,141.3,21.3C173.6,33.1,198.7,45.9,197.8,48.3z"/>
			<path class="st6" d="M205.9,51.4c-0.6,1.6-4.1,2-9.7,1.4c-12.3-1.3-35-7.4-60.3-16.7c-25.3-9.3-46.6-19.2-56.8-26.2
				c-4.7-3.2-7.1-5.7-6.5-7.3c1.8-5,33.1,1.8,70,15.3C179.4,31.3,207.7,46.3,205.9,51.4z"/>
			<path class="st6" d="M117.7,245.6c-9-1-29.2-4-53.7-13"/>
			<path class="st6" d="M205.9,51.4c0,0,45.2,105.8-83.2,194.6c0,0-1.8-0.1-5-0.4"/>
			<path class="st6" d="M117.7,245.6L117.7,245.6l-3.4,9.4c0,0-20.9-1.5-53.5-13.4c-32.7-11.9-49.6-24.3-49.6-24.3l3.4-9.4l0,0"/>
			<path class="st5" d="M41.7,45.8c1.3-3.5,38.1,6.7,82.3,22.9c44.1,16.1,78.9,32.1,77.6,35.6c-1.3,3.5-38.1-6.8-82.2-22.9
				c-22.1-8.1-41.8-16.1-55.8-22.5C49.4,52.4,41.1,47.6,41.7,45.8z"/>
			<path class="st5" d="M201.5,104.3c0.9,28.8-21.9,78.7-60.2,106c-19.9,0.7-43.6-3.8-64.8-11.9c-0.7-0.3-1.5-0.5-2.2-0.8
				c-20.9-7.7-45.1-20.9-55-31.9C7.6,120.1,22.5,67.2,41.7,45.8"/>
			<path class="st5" d="M55,76.8c0.6,2-0.5,4.1-2.5,4.8c-2,0.6-4.1-0.5-4.8-2.5c-0.6-2,0.5-4.1,2.5-4.7C52.2,73.7,54.3,74.8,55,76.8
				z"/>
			<path class="st5" d="M77.4,96c0.2,0.8-0.2,1.5-0.9,1.8c-0.8,0.2-1.5-0.2-1.8-0.9c-0.2-0.8,0.2-1.6,0.9-1.8
				C76.4,94.8,77.2,95.2,77.4,96z"/>
			<path class="st5" d="M74.1,119.7c-0.3,0.8-1.1,1.2-1.9,0.9c-0.8-0.3-1.2-1.1-0.9-1.9c0.3-0.8,1.2-1.2,2-0.9
				C74,118.1,74.4,118.9,74.1,119.7z"/>
			<path class="st5" d="M73.7,175.3c-0.7,1.9-2.8,2.8-4.6,2.2c-1.9-0.7-2.8-2.8-2.2-4.6c0.7-1.9,2.8-2.8,4.6-2.1
				C73.5,171.3,74.4,173.4,73.7,175.3z"/>
			<path class="st5" d="M183.7,116.6c-0.3,0.8-1.2,1.3-2.1,1c-0.8-0.3-1.3-1.2-1-2.1c0.3-0.8,1.2-1.3,2.1-1
				C183.6,114.8,184,115.7,183.7,116.6z"/>
			<path class="st5" d="M37.7,158c-0.2,0.6-0.8,0.8-1.4,0.6c-0.6-0.2-0.9-0.8-0.7-1.4c0.2-0.6,0.8-0.8,1.4-0.6
				C37.6,156.8,37.9,157.4,37.7,158z"/>
			<path class="st5" d="M154.3,110c-0.3,0.9-1.4,1.4-2.3,1.1c-0.9-0.3-1.4-1.4-1.1-2.3c0.3-0.9,1.4-1.4,2.3-1.1
				C154.1,108,154.6,109.1,154.3,110z"/>
			<path class="st5" d="M109.4,97.2c-0.3,0.8-1.2,1.2-2,0.9c-0.8-0.3-1.2-1.2-0.9-2c0.3-0.8,1.2-1.2,2-0.9
				C109.2,95.5,109.7,96.4,109.4,97.2z"/>
			<path class="st5" d="M39.1,123.6c-0.7,2-2.9,3-4.9,2.2c-2-0.7-3-2.9-2.3-4.9c0.7-2,2.9-3,4.9-2.3
				C38.8,119.4,39.8,121.6,39.1,123.6z"/>
			<path class="st5" d="M39.9,134.6c-0.3,0.8-1.1,1.1-1.8,0.8c-0.7-0.3-1.1-1.1-0.9-1.8c0.3-0.7,1.1-1.1,1.8-0.9
				C39.8,133.1,40.2,133.9,39.9,134.6z"/>
			<path class="st5" d="M120.3,197.7c-0.2,0.6-0.8,0.8-1.4,0.6c-0.6-0.2-0.9-0.8-0.7-1.4c0.2-0.6,0.8-0.8,1.4-0.6
				C120.2,196.5,120.5,197.1,120.3,197.7z"/>
			<path class="st5" d="M94.1,135.5l2.9,33c0.2,2.3,1.7,4.1,3.7,4.6l33.1,8c1.2,0.3,2.5,0.1,3.7-0.6l28.1-16.3
				c2.2-1.3,3.4-3.9,3-6.4l-5-30.8c-0.3-1.9-1.4-3.3-3-4l-27.6-11.2c-1.3-0.5-2.9-0.4-4.2,0.3l-31.5,17.3
				C95.2,130.6,93.9,133.1,94.1,135.5z"/>
			<path class="st5" d="M135.2,143c0,0,0.6-3.2,5.4-5.4l17-8.3"/>
			<path class="st5" d="M134.8,173.9l-1.2-21.3c-0.3-5.6-4.1-10.4-9.5-11.8l-23.4-6.4"/>
			<line class="st5" x1="144.7" y1="162" x2="155.9" y2="145.4"/>
			<line class="st5" x1="152.1" y1="161.6" x2="158.2" y2="152.7"/>
			<line class="st5" x1="124.3" y1="154.6" x2="114.7" y2="168.5"/>
			<line class="st5" x1="120.9" y1="146.6" x2="105.8" y2="168.5"/>
			<line class="st5" x1="111.8" y1="147.9" x2="105.6" y2="156.8"/>
			<path class="st5" d="M15,180.2c1,6.2,2.4,12.6,4.2,19.3"/>
			<path class="st5" d="M9.7,175.2c1.3,8.6,3.1,17.5,5.5,26.9"/>
			<path class="st5" d="M58.9,18.1c0,0,6.9-6.2,11.9-9"/>
			<path class="st5" d="M63.7,18.9c0,0,3.3-3.2,6.8-5.5"/>
		</g>
	</g>
</g>
<g id="TEXTS">
</g>
</svg>
