<?xml version="1.0" encoding="utf-8"?>
<!-- Generator: Adobe Illustrator 27.9.0, SVG Export Plug-In . SVG Version: 6.00 Build 0)  -->
<svg version="1.1" xmlns="http://www.w3.org/2000/svg" xmlns:xlink="http://www.w3.org/1999/xlink" x="0px" y="0px"
	 viewBox="0 0 329 368.2" style="enable-background:new 0 0 329 368.2;" xml:space="preserve">
<style type="text/css">
	.st0{fill:#F3F0E7;}
	.st1{clip-path:url(#SVGID_00000063602886487867850440000018359929562542744226_);}
	.st2{fill:none;stroke:#7B6117;stroke-width:3.7752;stroke-linecap:round;stroke-linejoin:round;stroke-miterlimit:10;}
	.st3{fill:#599942;}
	.st4{fill:#FF494B;}
	.st5{fill:none;stroke:#7B6117;stroke-width:0.9516;stroke-linecap:round;stroke-linejoin:round;stroke-miterlimit:10;}
	.st6{fill:none;stroke:#7B6117;stroke-width:1.9032;stroke-linecap:round;stroke-linejoin:round;stroke-miterlimit:10;}
	.st7{fill:#FF7D1D;}
	.st8{fill:#FFBF29;}
	.st9{fill:none;stroke:#7B6117;stroke-width:0.9516;stroke-miterlimit:10;}
	.st10{fill:none;stroke:#7B6117;stroke-width:1.9032;stroke-miterlimit:10;}
</style>
<g id="BACKGROUND">
</g>
<g id="OBJECTS">
	<g>
		<g>
			<path class="st0" d="M52.1,16.2l3.7,5.2l-2,0.4l-1,1.7l-3.7-5.2c-0.6-0.8-0.4-2,0.4-2.6C50.3,15.2,51.5,15.4,52.1,16.2z"/>
			<path class="st0" d="M116.9,107.8l1.9,2.6l0.7,3.2c-1.7,0.4-3.3,0.7-4.6,0.9c-3.8,0.7-6.1,0.7-6.4,0c5.2,16.4,4.6,35.1,2.2,51.6
				c-4.3,28.6,3.5,54.2,31,67.5c0.3,0.1,0.5,0.3,0.8,0.4c20.4,9.5,43.4,7,63.2-0.5c19.9-7.4,38.9-20.6,48-41.2
				c0.1-0.3,0.2-0.5,0.4-0.8c11.9-28.1,1-52.5-21-71.3c-12.8-10.9-25.5-24.6-32.3-40.4c-0.9-2.5-22.8,2.1-48.2,11.6
				C137.7,97.1,124.9,103.2,116.9,107.8z M246.4,115.2c23.5,22.5,37.5,53,22.8,84.8c-0.1,0.3-0.3,0.6-0.4,0.9
				c-7.9,16.3-21.4,28.7-36.9,37.7c-6.6,3.8-13.6,7.1-20.7,9.7c-7.1,2.6-14.4,4.8-22,6.3c-17.6,3.4-35.9,3-52.6-4.2
				c-0.3-0.1-0.6-0.3-0.9-0.4c-32-14.3-41.4-46.6-38.5-79C99.9,141.4,106,108,77,88.9c1.6,0.5,4.4,0.5,8,0.1
				c12.3-1.4,35-7.7,60.2-17.1c25.2-9.4,46.4-19.5,56.6-26.6c3-2.1,5-3.9,6-5.3C198.3,73.4,224.9,94.5,246.4,115.2z"/>
			<path class="st0" d="M208.2,37.9c0.2,0.6,0,1.2-0.5,2c-0.9,1.4-3,3.3-6,5.3c-10.2,7.1-31.4,17.2-56.6,26.6
				C119.9,81.3,97.3,87.6,85,89c-3.6,0.4-6.3,0.4-8-0.1c-0.9-0.3-1.5-0.7-1.7-1.2c-0.9-2.3,4.5-6.7,14.3-12.2l2,2.9
				c-5.6,3.1-8.6,5.3-8.3,6.2c0.3,0.7,3.1,0.5,7.9-0.5c10.4-2.3,30.5-7.4,52.7-15.7c22.1-8.3,40.6-17.7,50-22.8
				c4.3-2.3,6.6-4,6.3-4.8c-0.9-2.5-28.2,4.1-60.5,16.2C121,64,105,71.2,94.8,76.5l-2-2.9c11.4-6.1,27.4-13.2,45.6-20
				C175,39.9,206.3,32.8,208.2,37.9z"/>
			<path class="st4" d="M233,120.3c22,18.7,32.9,43.1,21,71.3c-0.1,0.3-0.2,0.5-0.4,0.8c-9.1,20.6-28.1,33.8-48,41.2
				c-19.9,7.4-42.9,10-63.2,0.5c-0.3-0.1-0.5-0.2-0.8-0.4c-27.5-13.4-35.2-39-31-67.5c2.5-16.6,3-35.3-2.2-51.6
				c0.3,0.7,2.6,0.7,6.4,0c1.4-0.2,2.9-0.6,4.6-0.9c8.9-1.8,22.6-5.2,37.2-10.7c17.5-6.6,31.9-14.4,39.2-18.7c3.3-2,5.1-3.4,4.8-4.2
				C207.6,95.7,220.3,109.5,233,120.3z M238.3,156.9c-0.3-0.8-1.2-1.2-2-0.9s-1.2,1.2-0.9,1.9c0.3,0.8,1.2,1.2,2,0.9
				C238.2,158.5,238.6,157.7,238.3,156.9z M222,176.3c-0.7-1.9-2.8-2.8-4.7-2.1c-1.9,0.7-2.8,2.8-2.1,4.6c0.7,1.9,2.8,2.8,4.6,2.1
				C221.8,180.2,222.7,178.1,222,176.3z M229.2,200.7c-0.3-0.8-1.2-1.2-2-0.9c-0.8,0.3-1.2,1.2-0.9,2c0.3,0.8,1.2,1.2,2,0.9
				C229.1,202.3,229.5,201.5,229.2,200.7z M194.9,117.8c-0.7-1.9-2.8-2.8-4.6-2.1c-1.9,0.7-2.8,2.8-2.1,4.6c0.7,1.9,2.8,2.8,4.6,2.1
				C194.7,121.7,195.6,119.7,194.9,117.8z M186.2,133.9c-0.3-0.8-1.2-1.2-2-0.9c-0.8,0.3-1.2,1.2-0.9,2c0.3,0.8,1.2,1.2,2,0.9
				C186.1,135.6,186.5,134.7,186.2,133.9z M173.6,115.7c0.4-0.7,0.2-1.5-0.5-2c-0.7-0.4-1.5-0.2-1.9,0.4c-0.4,0.7-0.2,1.5,0.5,2
				C172.3,116.5,173.2,116.3,173.6,115.7z M166.7,221c-0.3-0.8-1.2-1.2-2-0.9s-1.2,1.2-0.9,1.9c0.3,0.8,1.2,1.2,2,0.9
				C166.5,222.6,167,221.8,166.7,221z M147.3,178c-0.3-0.8-1.2-1.2-2-0.9c-0.8,0.3-1.2,1.2-0.9,2c0.3,0.8,1.2,1.2,1.9,0.9
				C147.2,179.6,147.6,178.8,147.3,178z M150,209.4c-0.7-1.9-2.8-2.8-4.7-2.1c-1.9,0.7-2.8,2.8-2.1,4.6c0.7,1.9,2.8,2.8,4.6,2.1
				C149.7,213.3,150.7,211.3,150,209.4z"/>
			<path class="st0" d="M94.8,76.5C105,71.2,121,64,139.6,57c32.2-12.1,59.6-18.7,60.5-16.2c0.3,0.7-2,2.4-6.3,4.8
				c-9.4,5.1-27.8,14.5-50,22.8c-22.2,8.3-42.3,13.3-52.7,15.7c-4.7,1.1-7.6,1.3-7.9,0.5c-0.3-0.9,2.6-3.1,8.3-6.2l-2-2.9l-5.7-8
				c0.5-0.4,1-0.7,1.5-1.1c0.5-0.3,1-0.7,1.5-1.1l6,8.4L94.8,76.5z"/>
			<path class="st0" d="M301.1,320.1l2.2,5.8c0,0-22.5,17.3-52.3,28.5c-29.8,11.2-58.1,12.9-58.1,12.9l-2.2-5.8
				c0,0,28-3.5,57.5-14.5C277.6,335.9,301.1,320.1,301.1,320.1z"/>
			<path class="st0" d="M236.3,156c0.8-0.3,1.7,0.1,2,0.9c0.3,0.8-0.1,1.7-0.9,2c-0.8,0.3-1.7-0.1-2-0.9
				C235.2,157.1,235.6,156.3,236.3,156z"/>
			<path class="st0" d="M200.8,80c0.3,0.7-1.5,2.2-4.8,4.2c-7.3,4.3-21.7,12.2-39.2,18.7c-14.7,5.5-28.3,8.9-37.2,10.7l-0.7-3.2
				l-1.9-2.6c7.9-4.5,20.8-10.6,35.6-16.2C178,82.1,199.8,77.5,200.8,80z"/>
			<path class="st0" d="M301.1,320.1c0,0-23.4,15.8-52.9,26.8c-29.5,11-57.5,14.5-57.5,14.5c66-61.1-1.4-106.8-1.4-106.8
				c7.5-1.5,14.9-3.6,22-6.3c7.1-2.6,14-5.9,20.7-9.7C231.9,238.6,211.2,317.4,301.1,320.1z"/>
			<path class="st0" d="M55.7,21.4L153.8,1c0,0-8.9,12.8-26.4,30l-71.2-8.9l-2.5-0.3L55.7,21.4z"/>
			<path class="st0" d="M217.4,174.2c1.9-0.7,4,0.2,4.7,2.1c0.7,1.9-0.3,3.9-2.1,4.6c-1.9,0.7-3.9-0.3-4.6-2.1
				C214.6,177,215.5,174.9,217.4,174.2z"/>
			<path class="st0" d="M227.3,199.8c0.8-0.3,1.7,0.1,2,0.9c0.3,0.8-0.1,1.7-0.9,2c-0.8,0.3-1.7-0.1-2-0.9
				C226.1,201,226.5,200.1,227.3,199.8z"/>
			<path class="st0" d="M190.3,115.7c1.9-0.7,4,0.2,4.6,2.1c0.7,1.9-0.2,4-2.1,4.7c-1.9,0.7-3.9-0.3-4.6-2.1
				C187.5,118.5,188.4,116.4,190.3,115.7z"/>
			<path class="st0" d="M184.2,133c0.8-0.3,1.7,0.1,2,0.9c0.3,0.8-0.1,1.7-0.9,2c-0.8,0.3-1.7-0.1-2-0.9
				C183,134.2,183.4,133.3,184.2,133z"/>
			<path class="st0" d="M173.2,113.7c0.7,0.4,0.9,1.3,0.5,2c-0.4,0.7-1.3,0.9-2,0.5c-0.7-0.4-0.9-1.3-0.5-2
				C171.6,113.5,172.5,113.3,173.2,113.7z"/>
			<path class="st0" d="M56.2,22.1l71.2,8.9c-6.9,6.9-15.3,14.5-24.9,22.3L57.9,24.5l-4.2-2.7L56.2,22.1z"/>
			<path class="st0" d="M57.9,24.5l44.7,28.8c-4.9,4-10.2,8-15.7,12c-0.5,0.4-1,0.7-1.5,1.1c-0.5,0.3-1,0.7-1.5,1.1
				c-5.6,4-11.1,7.6-16.5,10.9L54.9,26.6l-1.2-4.8L57.9,24.5z"/>
			<path class="st0" d="M164.7,220.1c0.8-0.3,1.7,0.1,2,0.9c0.3,0.8-0.1,1.7-0.9,2c-0.8,0.3-1.7-0.1-2-0.9
				C163.5,221.3,163.9,220.4,164.7,220.1z"/>
			<path class="st0" d="M145.3,177.1c0.8-0.3,1.7,0.1,2,0.9c0.3,0.8-0.1,1.7-0.9,2c-0.8,0.3-1.6-0.1-1.9-0.9
				C144.2,178.2,144.6,177.4,145.3,177.1z"/>
			<path class="st0" d="M145.3,207.3c1.9-0.7,4,0.2,4.7,2.1c0.7,1.9-0.3,3.9-2.1,4.6c-1.9,0.7-3.9-0.3-4.6-2.1
				C142.5,210.1,143.4,208,145.3,207.3z"/>
			<path class="st0" d="M53.8,21.8l1.2,4.8l12.4,51.7C56.8,84.8,46.8,90.1,38,94.4l15.2-70.2L53.8,21.8z"/>
			<path class="st0" d="M53.8,21.8l-0.5,2.4L38,94.4C16,105.1,1,109.3,1,109.3l51.8-85.8L53.8,21.8z"/>
		</g>
		<g>
			<path class="st5" d="M205.7,233.6c-19.9,7.4-42.9,10-63.2,0.5c-0.3-0.1-0.5-0.2-0.8-0.4c-27.5-13.4-35.2-39-31-67.5
				c2.5-16.6,3-35.3-2.2-51.6"/>
			<path class="st6" d="M189.3,254.6c0,0,67.4,45.7,1.4,106.8l2.2,5.8c0,0,28.3-1.7,58.1-12.9"/>
			<path class="st5" d="M94.8,76.5C105,71.2,121,64,139.6,57c32.2-12.1,59.6-18.7,60.5-16.2c0.3,0.7-2,2.4-6.3,4.8
				c-9.4,5.1-27.8,14.5-50,22.8c-22.2,8.3-42.3,13.3-52.7,15.7c-4.7,1.1-7.6,1.3-7.9,0.5c-0.3-0.9,2.6-3.1,8.3-6.2"/>
			<path class="st6" d="M92.8,73.7c11.4-6.1,27.4-13.2,45.6-20c36.7-13.7,67.9-20.8,69.8-15.8c0.2,0.6,0,1.2-0.5,2
				c-0.9,1.4-3,3.3-6,5.3c-10.2,7.1-31.4,17.2-56.6,26.6C119.9,81.3,97.3,87.6,85,89c-3.6,0.4-6.3,0.4-8-0.1
				c-0.9-0.3-1.5-0.7-1.7-1.2c-0.9-2.3,4.5-6.7,14.3-12.2"/>
			<path class="st5" d="M205.7,233.6c19.9-7.4,38.9-20.6,48-41.2c0.1-0.3,0.2-0.5,0.4-0.8c11.9-28.1,1-52.5-21-71.3
				c-12.8-10.9-25.5-24.6-32.3-40.4"/>
			<path class="st6" d="M207.7,39.9c-9.4,33.5,17.2,54.6,38.8,75.3c23.5,22.5,37.5,53,22.8,84.8c-0.1,0.3-0.3,0.6-0.4,0.9
				c-7.9,16.3-21.4,28.7-36.9,37.7c-6.6,3.8-13.6,7.1-20.7,9.7c-7.1,2.6-14.4,4.8-22,6.3c-17.6,3.4-35.9,3-52.6-4.2
				c-0.3-0.1-0.6-0.3-0.9-0.4c-32-14.3-41.4-46.6-38.5-79C99.9,141.4,106,108,77,88.9"/>
			<path class="st6" d="M231.9,238.6c0,0-20.7,78.7,69.2,81.4l2.2,5.8c0,0-22.5,17.3-52.3,28.5"/>
			<path class="st5" d="M116.9,107.8c7.9-4.5,20.8-10.6,35.6-16.2c25.5-9.5,47.3-14.1,48.2-11.6c0.3,0.7-1.5,2.2-4.8,4.2
				c-7.3,4.3-21.7,12.2-39.2,18.7c-14.7,5.5-28.3,8.9-37.2,10.7c-1.7,0.4-3.3,0.7-4.6,0.9c-3.8,0.7-6.1,0.7-6.4,0
				c-0.3-0.8,1.6-2.5,5.2-4.8l0,0"/>
			<path class="st6" d="M67.3,78.3C56.8,84.8,46.8,90.1,38,94.4"/>
			<path class="st6" d="M127.5,31c-6.9,6.9-15.3,14.5-24.9,22.3"/>
			<path class="st6" d="M55.7,21.4L153.8,1c0,0-8.9,12.8-26.4,30"/>
			<path class="st6" d="M38,94.4C16,105.1,1,109.3,1,109.3l51.8-85.8"/>
			<path class="st6" d="M52.7,23.5l-3.7-5.2c-0.6-0.8-0.4-2,0.4-2.6c0.8-0.6,2-0.4,2.6,0.4l3.7,5.2l-2,0.4L52.7,23.5z"/>
			<polyline class="st6" points="115.2,111.7 113.8,109.7 100.2,90.5 			"/>
			<path class="st6" d="M122.6,115.7l69.9,98.8c0.6,0.8,0.4,2-0.4,2.6c-0.8,0.6-2,0.4-2.6-0.4l-70.9-100.1"/>
			<polyline class="st6" points="104,89.5 116.9,107.8 118.8,110.4 			"/>
			<polyline class="st6" points="86.8,65.3 92.8,73.7 94.8,76.5 97.4,80.2 			"/>
			<polyline class="st6" points="93.8,81.5 91.6,78.3 89.5,75.4 83.8,67.4 			"/>
			<polyline class="st5" points="53.8,21.8 57.9,24.5 102.6,53.3 			"/>
			<polyline class="st5" points="67.3,78.3 54.9,26.6 53.8,21.8 			"/>
			<polyline class="st5" points="127.5,31 56.2,22.1 53.8,21.8 			"/>
			<polyline class="st5" points="53.8,21.8 53.2,24.2 38,94.4 			"/>
			<path class="st5" d="M173.2,113.7c0.7,0.4,0.9,1.3,0.5,2c-0.4,0.7-1.3,0.9-2,0.5c-0.7-0.4-0.9-1.3-0.5-2
				C171.6,113.5,172.5,113.3,173.2,113.7z"/>
			<path class="st5" d="M186.2,133.9c0.3,0.8-0.1,1.7-0.9,2c-0.8,0.3-1.7-0.1-2-0.9c-0.3-0.8,0.1-1.7,0.9-2
				C185,132.7,185.9,133.1,186.2,133.9z"/>
			<path class="st5" d="M222,176.3c0.7,1.9-0.3,3.9-2.1,4.6c-1.9,0.7-3.9-0.3-4.6-2.1c-0.7-1.9,0.2-4,2.1-4.6
				C219.3,173.5,221.3,174.4,222,176.3z"/>
			<path class="st5" d="M194.9,117.8c0.7,1.9-0.2,4-2.1,4.7c-1.9,0.7-3.9-0.3-4.6-2.1c-0.7-1.9,0.2-3.9,2.1-4.6
				C192.1,115,194.2,115.9,194.9,117.8z"/>
			<path class="st5" d="M150,209.4c0.7,1.9-0.3,3.9-2.1,4.6c-1.9,0.7-3.9-0.3-4.6-2.1c-0.7-1.9,0.2-3.9,2.1-4.6
				C147.2,206.6,149.3,207.5,150,209.4z"/>
			<path class="st5" d="M166.7,221c0.3,0.8-0.1,1.7-0.9,2c-0.8,0.3-1.7-0.1-2-0.9c-0.3-0.8,0.1-1.6,0.9-1.9S166.4,220.2,166.7,221z"
				/>
			<path class="st5" d="M147.3,178c0.3,0.8-0.1,1.7-0.9,2c-0.8,0.3-1.6-0.1-1.9-0.9c-0.3-0.8,0.1-1.7,0.9-2
				C146.1,176.8,147,177.2,147.3,178z"/>
			<path class="st5" d="M238.3,156.9c0.3,0.8-0.1,1.7-0.9,2c-0.8,0.3-1.7-0.1-2-0.9c-0.3-0.8,0.1-1.6,0.9-1.9S238,156.1,238.3,156.9
				z"/>
			<path class="st5" d="M229.2,200.7c0.3,0.8-0.1,1.7-0.9,2c-0.8,0.3-1.7-0.1-2-0.9c-0.3-0.8,0.1-1.7,0.9-2
				C228.1,199.5,228.9,199.9,229.2,200.7z"/>
			<path class="st5" d="M190.6,361.4c0,0,28-3.5,57.5-14.5"/>
			<path class="st5" d="M301.1,320.1c0,0-23.4,15.8-52.9,26.8"/>
			<path class="st5" d="M211.7,345.2c0,0,16.2-21.8,12.7-40.3"/>
			<path class="st5" d="M221.9,337.9c0,0,7.4-13.7,7.1-24.9"/>
			<path class="st5" d="M121.6,233.9c0,0,26.2,27,71.6,14.3"/>
			<path class="st5" d="M136,238.7c0,0,23,12.6,48,7.7"/>
			<line class="st5" x1="35.2" y1="86.8" x2="42.5" y2="55.2"/>
			<line class="st5" x1="67.1" y1="33.8" x2="92.2" y2="51.6"/>
			<line class="st5" x1="88.7" y1="17.8" x2="136.5" y2="8.7"/>
			<line class="st5" x1="106.7" y1="17.5" x2="123.6" y2="14.3"/>
			<path class="st6" d="M83.8,67.4c-5.6,4-11.1,7.6-16.5,10.9"/>
			<path class="st6" d="M102.6,53.3c-4.9,4-10.2,8-15.7,12"/>
			<path class="st6" d="M83.8,67.4c0.5-0.4,1-0.7,1.5-1.1c0.5-0.3,1-0.7,1.5-1.1"/>
		</g>
	</g>
	<g>
		<g>
			<path class="st0" d="M83,309.8c0,0,17.8-9.2,35.5-3.8c0,0.1,0.1,0.1,0.1,0.1C101.1,318.9,83,309.8,83,309.8z"/>
			<path class="st0" d="M117.4,304.8L117.4,304.8c0.6,0.6,1.1,1.1,1.2,1.2c-17.7-5.4-35.5,3.8-35.5,3.8c3.6-3.7,6.9-6.3,10.1-8l0,0
				c0.9-0.5,1.7-0.9,2.5-1.2c2.5-1,4.9-1.5,7.1-1.6C109.9,298.8,115.1,302.6,117.4,304.8z"/>
		</g>
		<g>
			<path class="st6" d="M117.4,304.8c0.6,0.6,1,1.1,1.2,1.2c0,0.1,0.1,0.1,0.1,0.1c-16.3,12.6-35.6,3.7-35.6,3.7
				c3.6-3.7,6.9-6.3,10.1-8"/>
			<path class="st6" d="M93.1,301.9c0.9-0.5,1.7-0.9,2.5-1.2c2.5-1,4.9-1.5,7.1-1.6c7.2-0.3,12.4,3.6,14.6,5.7"/>
			<path class="st5" d="M83,309.8c0,0,17.8-9.2,35.5-3.8c0,0,0,0,0.1,0"/>
		</g>
	</g>
	<g>
		<g>
			<path class="st0" d="M320,236.2c0,0-8.5,14.1-23.2,18c-0.1,0-0.1,0-0.1,0C303.4,237.7,320,236.2,320,236.2z"/>
			<path class="st0" d="M298.1,254.6L298.1,254.6c-0.7-0.2-1.2-0.3-1.4-0.4c14.7-3.9,23.2-18,23.2-18c-0.9,4.1-2.2,7.4-3.6,9.9l0,0
				c-0.4,0.7-0.8,1.3-1.2,1.9c-1.3,1.8-2.8,3.2-4.3,4.2C305.9,255.6,300.6,255.1,298.1,254.6z"/>
		</g>
		<g>
			<path class="st6" d="M298.1,254.6c-0.7-0.1-1.2-0.3-1.4-0.3c-0.1,0-0.1,0-0.1,0c6-15.9,23.3-18,23.3-18c-0.9,4.1-2.2,7.4-3.6,9.9
				"/>
			<path class="st6" d="M316.4,246.2c-0.4,0.7-0.8,1.3-1.2,1.9c-1.3,1.8-2.8,3.2-4.3,4.2c-4.9,3.3-10.2,2.8-12.7,2.3"/>
			<path class="st5" d="M320,236.2c0,0-8.5,14.1-23.2,18c0,0,0,0-0.1,0"/>
		</g>
	</g>
</g>
<g id="TEXTS">
</g>
</svg>
