<?xml version="1.0" encoding="utf-8"?>
<!-- Generator: Adobe Illustrator 27.9.0, SVG Export Plug-In . SVG Version: 6.00 Build 0)  -->
<svg version="1.1" id="圖層_1" xmlns="http://www.w3.org/2000/svg" xmlns:xlink="http://www.w3.org/1999/xlink" x="0px" y="0px"
	 viewBox="0 0 377.9 395.1" style="enable-background:new 0 0 377.9 395.1;" xml:space="preserve">
<style type="text/css">
	.st0{fill:none;stroke:#FFFFFF;stroke-width:0.986;stroke-miterlimit:10;}
	.st1{fill:#FFFFFF;}
	.st2{fill:none;stroke:#FFFFFF;stroke-width:1.8766;stroke-linecap:round;stroke-linejoin:round;stroke-miterlimit:10;}
	.st3{fill:none;stroke:#FFFFFF;stroke-width:0.9383;stroke-linecap:round;stroke-linejoin:round;stroke-miterlimit:10;}
</style>
<g id="BACKGROUND">
</g>
<g id="OBJECTS">
	<g>
		<g>
			<path class="st0" d="M181.1,85c-1,0.1-2.1,0.2-3.3,0.2c-0.3-0.9-0.5-1.8-0.8-2.7c0,0-2.2,1.4-4.8,2.3l0,0
				c-4.9-0.3-12.5,0.9-16.6,7c-9.2-1.5-14.3-1.8-14.6-0.9c-4.2,29.7,6.2,73.6,91.7,96.8s116.7-9.2,128.2-36.9
				c0.8-3-47.3-20.2-108.1-36.7c-13-3.5-25.3-6.7-37-9.6c0.3-5.5-1.5-8.5-2-10l1.4-4.5c12.6,3.9,26.4,8,40.9,11.9
				c44.5,12.1,83.9,20.2,104.8,21.9c9.6,0.8,15.2,0.3,15.8-1.8l0,0c0,0,2.3,110.5-137.9,76.6c-2.8-0.7-5.6-1.4-8.5-2.2
				c-2.9-0.8-5.7-1.6-8.4-2.5c-138-41.9-80-136.1-80-136.1c-0.6,2.1,4,5.4,12.7,9.5c7.9,3.8,19.2,8.4,32.9,13.2l-1.1,3
				C186.7,83.8,184.6,84.6,181.1,85z"/>
			<path class="st0" d="M376.8,122.2c-0.6,2.1-6.2,2.6-15.8,1.8c-20.9-1.8-60.2-9.8-104.8-21.9c-14.5-3.9-28.2-8-40.9-11.9
				c-10-3.2-19.2-6.2-27.6-9.2c-13.7-4.8-25-9.4-32.9-13.2c-8.6-4.1-13.2-7.5-12.7-9.5c0.8-3.1,12.5-2.8,31.5,0.2l0,0
				c0,1.5,0.1,3,0.2,4.4c-10.7-1.7-17.1-2.1-17.4-0.9c-0.3,1,4,3.2,11.7,6.1c17,6.6,50.3,18.6,89.4,29.4
				c39.1,10.6,74,17.2,91.9,20.1c8.2,1.4,13,1.7,13.2,0.7c0.9-3.2-44.2-19.9-101.2-35.4c-34.3-9.4-65.3-16.2-84.5-19.3
				c-0.1-1.5-0.2-3-0.2-4.5c22,3.5,52.5,10.4,86,19.5C327.5,96,378.5,115.6,376.8,122.2z"/>
			<path class="st0" d="M360.9,150.9c-0.3,0.9-5.3,0.5-14-1.1c-19-3.5-56-10.6-97.7-22.1c-12.8-3.5-24.9-7.1-36.3-10.6l1.1-3.5
				c1.3-3.6,1.9-6.6,2-9.2c11.6,2.9,24,6,37,9.6C313.6,130.7,361.8,147.9,360.9,150.9z"/>
			<path class="st1" d="M346.9,149.8c8.7,1.6,13.8,2,14,1.1c-11.4,27.7-42.7,60.1-128.2,36.9c-85.4-23.3-95.8-67.1-91.7-96.8
				c-0.3,0.9,4.3,3.2,12.6,6.2l-0.6,2.2c-0.3,2.7-0.2,5.8,0.4,9.6c2.5,13.9,15.4,25.2,32.5,24.6c9-0.3,18.7-5.2,24.5-13.7l0.9-3
				c0.5,0.1,1,0.3,1.5,0.4c11.3,3.5,23.5,7.1,36.3,10.6C290.9,139.1,327.9,146.3,346.9,149.8z M324.1,166c2.2-1.2,3-3.7,1.8-5.9
				c-1.1-2.2-3.7-3-5.9-1.8c-2.2,1.1-3,3.7-1.8,5.9C319.4,166.4,321.9,167.2,324.1,166z M303.1,160.4c0.8-0.4,1.1-1.4,0.7-2.2
				c-0.4-0.8-1.4-1.1-2.2-0.7c-0.8,0.4-1.1,1.4-0.7,2.3C301.3,160.6,302.3,160.9,303.1,160.4z M268.2,165.1c1,0.2,1.9-0.5,2-1.4
				c0.1-1-0.5-1.9-1.5-2c-1-0.2-1.9,0.5-2,1.4C266.6,164.1,267.3,165,268.2,165.1z M249.8,180c2.2-1.2,3-3.7,1.8-5.9
				c-1.1-2.2-3.7-3-5.9-1.8c-2.1,1.1-3,3.7-1.8,5.9C244.9,180.2,247.6,181,249.8,180z M228.3,144.5c2.2-1.1,3-3.7,1.8-5.9
				c-1.1-2.1-3.7-3-5.9-1.8s-3,3.7-1.8,5.9C223.5,144.8,226.1,145.6,228.3,144.5z M201.4,150.8c1,0.2,1.9-0.5,2.1-1.5
				s-0.5-1.9-1.5-2.1c-1-0.2-1.9,0.5-2.1,1.5C199.9,149.7,200.5,150.6,201.4,150.8z"/>
			<path class="st0" d="M176.9,63.3c19.3,3.3,50.2,10.1,84.5,19.3c57,15.6,102,32.2,101.2,35.4c-0.3,1-5,0.7-13.2-0.7
				c-17.9-3-52.8-9.5-91.9-20.1S185.1,74.4,168,67.8c-7.8-3-12-5.1-11.7-6.1c0.3-1.2,6.6-0.8,17.4,0.9c-0.1-1.5-0.2-3.1-0.2-4.4l0,0
				c-0.4-25.9,11.8-41.9,21.2-50.3c9.4-7.9,11.2-3,11.2-3c2.4,5.9-8.2,5.3-11.1,8c-14.9,13.4-18.3,31.3-18,45.9
				C176.7,60.3,176.8,61.9,176.9,63.3z"/>
			<path class="st0" d="M325.9,160.2c1.2,2.2,0.3,4.7-1.8,5.9c-2.1,1.1-4.7,0.3-5.9-1.8c-1.2-2.2-0.3-4.8,1.8-5.9
				C322.1,157.3,324.8,158.1,325.9,160.2z"/>
			<path class="st0" d="M249.5,366.6l-1.8,6.4c0,0-30.4,1-63.2-8l0,0c-32.9-9-58.5-25.2-58.5-25.2l1.8-6.4c0,0,26.5,14.5,59.1,23.4
				l0,0C219.2,365.6,249.5,366.6,249.5,366.6z"/>
			<path class="st0" d="M303.8,158.3c0.4,0.8,0.1,1.8-0.7,2.2c-0.8,0.4-1.8,0.1-2.2-0.7c-0.4-0.8-0.1-1.8,0.7-2.3
				C302.3,157.2,303.3,157.5,303.8,158.3z"/>
			<path class="st0" d="M249.5,366.6c0,0-30.2-1-62.7-9.9l0,0c-32.5-8.9-59.1-23.4-59.1-23.4c63.5,6.9,94.3-139.2,94.3-139.2
				c2.8,0.8,5.5,1.7,8.4,2.5s5.7,1.5,8.5,2.2C238.9,198.8,191.2,340.3,249.5,366.6z"/>
			<path class="st0" d="M270.3,163.7c-0.2,1-1.1,1.6-2,1.4c-1-0.1-1.6-1.1-1.4-2c0.1-1,1.1-1.6,2-1.4
				C269.8,161.8,270.4,162.7,270.3,163.7z"/>
			<path class="st0" d="M251.5,174c1.1,2.1,0.3,4.7-1.8,5.9c-2.1,1.1-4.7,0.3-5.9-1.8c-1.1-2.2-0.3-4.7,1.8-5.9
				C247.8,171.1,250.5,171.9,251.5,174z"/>
			<path class="st0" d="M230,138.5c1.2,2.2,0.3,4.8-1.8,5.9c-2.1,1.1-4.7,0.3-5.9-1.8c-1.2-2.2-0.3-4.7,1.8-5.9
				C226.3,135.7,229,136.5,230,138.5z"/>
			<path class="st0" d="M155.7,91.8c4-6.1,11.5-7.3,16.6-7l0,0c0.5,0,0.9,0.1,1.3,0.1c1.6,0.2,3,0.2,4.2,0.2c1.2,0,2.3-0.1,3.3-0.2
				c3.5-0.4,5.5-1.1,5.5-1.1l1.1-3c8.4,3,17.6,6,27.6,9.2l-1.4,4.5c0.5,1.5,2.3,4.5,2,10c-0.1,2.5-0.7,5.5-2,9.2l-1.1,3.5
				c-0.5-0.2-1-0.3-1.5-0.4c-24.9-7.8-45.4-15-57.7-19.6c-8.3-3.1-12.9-5.2-12.6-6.2C141.4,90,146.4,90.3,155.7,91.8z"/>
			<path class="st0" d="M203.5,149.3c-0.1,1-1.1,1.6-2.1,1.5c-1-0.2-1.7-1.1-1.5-2.1c0.2-1,1.1-1.7,2.1-1.5
				C203,147.4,203.7,148.3,203.5,149.3z"/>
			<path class="st0" d="M211.4,116.7l-0.9,3c-5.7,8.5-15.5,13.3-24.5,13.7c-17.2,0.7-30.2-10.6-32.5-24.6c-0.6-3.7-0.7-6.9-0.4-9.6
				l0.7-2.2C166.1,101.8,186.6,109,211.4,116.7z"/>
			<path class="st0" d="M177.1,82.4c0.2,0.9,0.5,1.7,0.8,2.7c-1.3,0-2.8-0.1-4.2-0.2c-0.4,0-0.9-0.1-1.3-0.1
				C174.9,83.9,177.1,82.4,177.1,82.4z"/>
		</g>
		<g>
			<path class="st2" d="M222,194.2c0,0-30.8,146.1-94.3,139.2l-1.8,6.4c0,0,25.6,16.3,58.5,25.2"/>
			<path class="st3" d="M127.7,333.5c0,0,26.5,14.5,59.1,23.4"/>
			<path class="st2" d="M238.9,198.8c0,0-47.6,141.5,10.6,167.8l-1.8,6.4c0,0-30.4,1-63.2-8"/>
			<path class="st3" d="M249.5,366.6c0,0-30.2-1-62.7-9.9"/>
			<path class="st3" d="M215.9,104.6c11.6,2.9,24,6,37,9.6c60.7,16.6,108.9,33.8,108.1,36.7c-0.3,0.9-5.3,0.5-14-1.1
				c-19-3.5-56-10.6-97.7-22.1c-12.8-3.5-24.9-7.1-36.3-10.6c-0.5-0.2-1-0.3-1.5-0.4c-24.9-7.8-45.4-15-57.7-19.6
				c-8.3-3.1-12.9-5.2-12.6-6.2c0.3-1,5.3-0.6,14.6,0.9"/>
			<path class="st3" d="M176.9,63.3L176.9,63.3c19.3,3.3,50.2,10.1,84.5,19.4c57,15.6,102,32.2,101.2,35.4c-0.3,1-5,0.7-13.2-0.7
				c-17.9-3-52.8-9.5-91.9-20.1S185.1,74.5,168,67.9c-7.8-3-12-5.1-11.7-6.1c0.3-1.2,6.6-0.8,17.4,0.9l0,0"/>
			<path class="st2" d="M176.7,58.9c22,3.5,52.5,10.4,86,19.5c64.8,17.6,116,37.3,114.2,43.8c-0.6,2.1-6.2,2.6-15.8,1.8
				c-20.9-1.8-60.2-9.8-104.8-21.9c-14.5-3.9-28.2-8-40.9-11.9c-10-3.2-19.2-6.2-27.6-9.2c-13.7-4.8-25-9.4-32.9-13.2
				c-8.6-4.1-13.2-7.5-12.7-9.5c0.8-3.1,12.5-2.8,31.5,0.2"/>
			<path class="st3" d="M361,150.8C361,150.9,361,150.9,361,150.8c-11.4,27.8-42.7,60.2-128.2,37c-85.4-23.3-95.8-67.1-91.7-96.8"/>
			<path class="st2" d="M376.8,122.2c0,0,2.3,110.5-137.9,76.6c-2.8-0.7-5.6-1.4-8.5-2.2c-2.9-0.8-5.7-1.6-8.4-2.5
				c-138-41.9-80-136.1-80-136.1"/>
			<path class="st2" d="M214,113.7c1.3-3.6,1.9-6.6,2-9.2c0.3-5.5-1.5-8.5-2-10"/>
			<path class="st2" d="M153,99.3c-0.3,2.7-0.2,5.8,0.4,9.6c2.5,13.9,15.4,25.2,32.5,24.6c9-0.3,18.7-5.2,24.5-13.7"/>
			<path class="st2" d="M172.2,84.8c-4.9-0.3-12.5,0.9-16.6,7c-0.6,0.8-1,1.8-1.5,2.8"/>
			<path class="st2" d="M186.7,83.8c0,0-2.1,0.8-5.5,1.1c-1,0.1-2.1,0.2-3.3,0.2c-1.3,0-2.8-0.1-4.2-0.2c-0.4,0-0.9-0.1-1.3-0.1"/>
			<path class="st2" d="M176.5,80.3c0.2,0.8,0.4,1.5,0.6,2.3c0.2,0.9,0.5,1.7,0.8,2.7l0,0"/>
			<path class="st2" d="M177.4,68.1c-0.2-1.6-0.4-3.2-0.5-4.8c-0.1-1.5-0.2-3-0.2-4.5c-0.3-14.7,3.2-32.5,18-45.8
				c3.1-2.7,13.5-2.1,11.1-8c0,0-2-4.8-11.2,3c-9.4,8.3-21.6,24.4-21.2,50.3l0,0c0,1.5,0.1,3,0.2,4.4c0.1,1.5,0.2,3,0.4,4.4"/>
			<path class="st2" d="M181.1,85c0,0-0.4-0.9-1-3.4"/>
			<path class="st2" d="M177.1,82.4c0,0-2.2,1.4-4.8,2.3l0,0"/>
			<path class="st3" d="M230,138.5c1.2,2.2,0.3,4.8-1.8,5.9c-2.1,1.1-4.7,0.3-5.9-1.8c-1.2-2.2-0.3-4.7,1.8-5.9
				C226.3,135.7,229,136.5,230,138.5z"/>
			<path class="st3" d="M303.8,158.3c0.4,0.8,0.1,1.8-0.7,2.2c-0.8,0.4-1.8,0.1-2.2-0.7c-0.4-0.8-0.1-1.8,0.7-2.3
				C302.3,157.2,303.3,157.5,303.8,158.3z"/>
			<path class="st3" d="M270.3,163.7c-0.2,1-1.1,1.6-2,1.4c-1-0.1-1.6-1.1-1.4-2c0.1-1,1.1-1.6,2-1.4
				C269.8,161.8,270.4,162.7,270.3,163.7z"/>
			<path class="st3" d="M203.5,149.3c-0.1,1-1.1,1.6-2.1,1.5c-1-0.2-1.7-1.1-1.5-2.1c0.2-1,1.1-1.7,2.1-1.5
				C203,147.4,203.7,148.3,203.5,149.3z"/>
			<path class="st3" d="M325.9,160.2c1.2,2.2,0.3,4.7-1.8,5.9c-2.1,1.1-4.7,0.3-5.9-1.8c-1.2-2.2-0.3-4.8,1.8-5.9
				C322.1,157.3,324.8,158.1,325.9,160.2z"/>
			<path class="st3" d="M251.5,174c1.1,2.1,0.3,4.7-1.8,5.9c-2.1,1.1-4.7,0.3-5.9-1.8c-1.1-2.2-0.3-4.7,1.8-5.9
				C247.8,171.1,250.5,171.9,251.5,174z"/>
			<path class="st3" d="M200,279.2c0,0-20.7,44.2-46.4,55.5"/>
			<path class="st3" d="M165.4,334.1c0,0,17.1-11,31.7-39.3"/>
			<path class="st3" d="M217.4,329.5c0,0,3.5,18.3,11.7,26.3"/>
			<path class="st3" d="M215,338.4c0,0,2.5,9.6,7.5,15.7"/>
		</g>
	</g>
	<g>
		<g>
			<path class="st0" d="M291.9,257.1c0,0,15.9,16.8,15.5,38c-0.1,0.1-0.1,0.1-0.1,0.1c-5.7-1.2-9.8-4-12.5-7.3
				c-5.4-6.4-6.1-14.4-6.1-14.4l5.4,0.2C292.3,267.8,291.9,257.1,291.9,257.1z"/>
			<path class="st0" d="M308.3,293.3L308.3,293.3c-0.5,0.9-0.9,1.5-1,1.7c0.3-21.3-15.5-38-15.5-38c5.2,2.8,9.2,5.7,12,8.6l0,0
				c0.8,0.8,1.5,1.6,2.1,2.4c2,2.5,3.3,4.9,4,7.3C312.6,283.3,310,290.2,308.3,293.3z"/>
		</g>
		<g>
			<path class="st2" d="M308.3,293.4c-0.5,0.9-0.8,1.5-1,1.7c-0.1,0.1-0.1,0.1-0.1,0.1c-5.7-1.2-9.8-4-12.5-7.3
				c-5.4-6.4-6.1-14.4-6.1-14.4l5.4,0.2c-1.8-5.9-2.2-16.6-2.2-16.6c5.2,2.8,9.2,5.7,12,8.6"/>
			<path class="st2" d="M303.9,265.7c0.8,0.8,1.5,1.6,2.1,2.4c2,2.5,3.3,4.9,4,7.3c2.6,7.8,0,14.8-1.7,17.9"/>
			<path class="st3" d="M291.9,257.1c0,0,15.9,16.8,15.5,38v0.1"/>
		</g>
	</g>
	<g>
		<g>
			<path class="st0" d="M120.1,199.4l3-6.4c0,0,7.9,22.6,6.6,43l0,0c-8.7-9.4-17.8-17.9-27-25.7c-7-24.6-30.2-47.4-30.2-47.4
				S102.2,169.5,120.1,199.4z"/>
			<path class="st0" d="M123.2,193c0,0,14.8,22.3,21.1,59.9c-4.6-5.9-9.6-11.5-14.5-16.9l0,0C131,215.5,123.2,193,123.2,193z"/>
			<path class="st0" d="M129.7,236c5,5.3,9.9,10.9,14.5,16.9c0,0-32.1,17-64.9-0.2C80.3,252.4,110.7,248.1,129.7,236z"/>
			<path class="st0" d="M72.5,162.8c0,0,23.2,22.9,30.2,47.4l0,0c-47.9-40.8-97.4-60.3-99.4-61.1c1.8,0.2,48,6.3,70.5,21.6
				L72.5,162.8z"/>
			<path class="st0" d="M102.7,210.2c9.2,7.8,18.2,16.4,27,25.7c-18.9,12.1-49.5,16.6-50.4,16.7l0,0l4.3-3.3c0,0-25.3-9.9-45-35.7
				l0,0C39.7,213.9,75.4,222.7,102.7,210.2L102.7,210.2z"/>
			<path class="st0" d="M3.4,149.1c2,0.8,51.5,20.4,99.4,61.1c-27.3,12.5-62.9,3.7-64.1,3.5l5.7-1.3
				C44.4,212.3,20.2,166.4,3.4,149.1C3.3,149,3.4,149,3.4,149.1z"/>
		</g>
		<g>
			<path class="st2" d="M3.4,149.1c1.8,0.2,48,6.3,70.5,21.6l-1.3-7.8c0,0,29.7,6.7,47.6,36.6l3-6.4c0,0,14.8,22.3,21.1,59.9
				c0,0-32.1,17-64.9-0.2"/>
			<path class="st2" d="M38.7,213.7l5.7-1.3c0,0-24.3-45.9-41.1-63.3"/>
			<path class="st2" d="M79.3,252.6l4.3-3.3c0,0-25.3-9.9-45-35.7"/>
			<path class="st3" d="M102.7,210.2c9.2,7.8,18.2,16.4,27,25.7c5,5.3,9.9,10.9,14.5,16.9"/>
			<path class="st3" d="M3.3,149C3.3,149,3.4,149,3.3,149c2.1,0.8,51.5,20.4,99.4,61.2"/>
			<path class="st3" d="M38.7,213.7L38.7,213.7c1.2,0.3,36.8,9.2,64.1-3.5l0,0"/>
			<path class="st3" d="M129.8,236L129.8,236c-18.9,12.1-49.5,16.6-50.4,16.7l0,0"/>
			<path class="st3" d="M123.2,193c0,0,7.9,22.6,6.6,43"/>
			<path class="st3" d="M72.5,162.8c0,0,23.2,22.9,30.2,47.4"/>
			<path class="st3" d="M68.9,221.4c0,0,17.1,0,30.9-5.8"/>
			<path class="st3" d="M81.3,224.2c0,0,10.2-1.7,16.5-4.5"/>
			<path class="st3" d="M40.8,184.3c0,0,12.9,2.9,22.8,3.2"/>
			<path class="st3" d="M51.7,189.7c0,0,12.5,2,19,1.6"/>
			<path class="st3" d="M111.6,248.7c0,0,10.7-3.4,18-7.7"/>
			<path class="st3" d="M121.5,248.9c0,0,7-3.1,10.3-5"/>
		</g>
	</g>
	<g>
		<g>
			<path class="st0" d="M78,376.6c0,0-19.7-2-31.5-16c0-0.1,0-0.1,0-0.1C67.9,359.3,78,376.6,78,376.6z"/>
			<path class="st0" d="M46.9,362.4L46.9,362.4c-0.2-0.9-0.3-1.5-0.3-1.7c11.7,14,31.5,16,31.5,16c-4.9,1.2-9.1,1.5-12.6,1.2l0,0
				c-1-0.1-1.9-0.2-2.7-0.4c-2.7-0.5-4.9-1.4-6.7-2.5C49.8,371.2,47.6,365.3,46.9,362.4z"/>
		</g>
		<g>
			<path class="st2" d="M46.9,362.3c-0.2-0.8-0.3-1.5-0.3-1.7c0-0.1,0-0.1,0-0.1c20.3-1.7,31.5,16.1,31.5,16.1
				c-4.9,1.2-9.1,1.5-12.6,1.2"/>
			<path class="st2" d="M65.4,377.7c-1-0.1-1.9-0.2-2.7-0.4c-2.7-0.5-4.9-1.4-6.7-2.5c-6.1-3.6-8.3-9.6-9-12.6"/>
			<path class="st3" d="M78,376.6c0,0-19.7-2-31.5-16c0,0,0,0,0-0.1"/>
		</g>
	</g>
</g>
<g id="TEXTS">
</g>
</svg>
