<?xml version="1.0" encoding="UTF-8"?>
<svg id="_圖層_1" data-name="圖層 1" xmlns="http://www.w3.org/2000/svg" viewBox="0 0 45 45">
  <defs>
    <style>
      .cls-1 {
        fill: #381b1d;
        stroke-width: 0px;
      }
    </style>
  </defs>
  <path class="cls-1" d="m15.63,22.63c2.33.92,3.26,2.26,3.03,4.46-.16,1.47-.05,2.96-.02,4.45.05,2.42-1.13,3.84-3.41,4.57-2.36.75-4.34.13-5.92-1.58-1.74-1.87-1.09-4.84,1.34-5.97,1.38-.64,2.99-.8,4.77-1.24.06-1.35.14-2.9.22-4.68Z"/>
  <path class="cls-1" d="m38.39,33.21c-.84-.91-2.12-1.98-2.14-2.99-.09-6.63.13-13.25.21-19.88.02-2.04-.94-2.5-2.89-1.88-5.27,1.68-10.59,3.19-15.88,4.82-.9.28-1.72.81-2.96,1.4-2.48-1.94-5.02-3.99-7.65-5.91-.45-.33-1.32-.09-2-.11.15.6.18,1.28.49,1.79.29.48.88.78,1.35,1.15,9.67,7.58,19.33,15.16,29.01,22.74.99.78,2.03,1.49,3.06,2.24,2.01-1.8.28-2.42-.59-3.37Zm-5.14-9.65c-5.25,2.88-8.3-.51-11.86-3.99,3.98-1.2,7.7-2.33,11.86-3.59v7.58Z"/>
</svg>