<?xml version="1.0" encoding="UTF-8"?>
<svg id="_圖層_1" data-name="圖層 1" xmlns="http://www.w3.org/2000/svg" viewBox="0 0 45 45">
  <defs>
    <style>
      .cls-1 {
        fill: #f6f6f6;
        stroke-width: 0px;
      }
    </style>
  </defs>
  <path class="cls-1" d="m33.21,24.01v-7.52c-4.56,1.36-8.97,2.6-13.29,4.08-.57.19-.97,1.6-1.01,2.46-.13,2.87.24,5.79-.18,8.61-.24,1.62-1.34,3.92-2.61,4.37-1.77.63-4.34.38-6.05-.5-2.61-1.35-2.28-5.17.38-6.57,1.35-.71,2.98-.9,5.05-1.48,0-3.06.18-6.49-.06-9.88-.19-2.71.89-3.87,3.41-4.53,4.97-1.3,9.89-2.81,14.79-4.37,2.18-.69,3.04.1,3.05,2.15.04,5.95.04,11.9,0,17.85-.02,2.63-1.73,4.31-4.03,4.31-1.93,0-4.29-.81-5.69-2.1-1.82-1.67-.7-4.74,1.82-5.81,1.32-.56,2.83-.7,4.41-1.06Z"/>
</svg>