<?xml version="1.0" encoding="utf-8"?>
<!-- Generator: Adobe Illustrator 27.9.0, SVG Export Plug-In . SVG Version: 6.00 Build 0)  -->
<svg version="1.1" id="圖層_1" xmlns="http://www.w3.org/2000/svg" xmlns:xlink="http://www.w3.org/1999/xlink" x="0px" y="0px"
	 viewBox="0 0 32 32" style="enable-background:new 0 0 32 32;" xml:space="preserve">
<style type="text/css">
	.st0{fill:#2F1516;}
	.st1{fill:#FFFFFF;}
	.st2{fill:url(#SVGID_1_);}
	.st3{fill:url(#SVGID_00000018238490306582678480000003416924908077831063_);}
</style>
<g>
	<g id="_圖層_1">
		<path class="st0" d="M16,0L16,0c8.8,0,16,7.2,16,16v0c0,8.8-7.2,16-16,16h0C7.2,32,0,24.8,0,16v0C0,7.2,7.2,0,16,0z"/>
		<g>
			<g>
				<path class="st1" d="M22.7,17.8c-0.2-0.1-0.3-0.2-0.4-0.2c0-0.2-0.1-0.4-0.3-0.6c-0.2-0.3-0.5-0.4-0.8-0.6
					c-0.1,0-0.2-0.1-0.3-0.1c-0.2-0.1-0.3-0.2-0.5-0.2c0.2-0.2,0.3-0.4,0.4-0.6c0.1-0.5,0.1-0.8,0-1.2c-0.1-0.2-0.1-0.4-0.1-0.6
					c0-0.2,0.1-0.5,0.2-0.7c0.1-0.3,0.2-0.7-0.1-1c0-0.1,0-0.2,0-0.4c0,0,0-0.1,0-0.1c0-0.2,0-0.3,0-0.5c0.1-0.3,0.2-0.6,0.3-0.8
					c0-0.1,0.1-0.2,0.1-0.3c0.1-0.3,0.1-0.6-0.1-0.8c0.1-0.2,0.1-0.5,0.1-0.8c0-0.1,0-0.1,0-0.2c0-0.1,0-0.3,0-0.4
					c0-0.1,0-0.2,0-0.3c0-0.1,0-0.2,0-0.3c0-0.6-0.2-0.7-0.4-0.7c0-0.1,0.1-0.3,0.1-0.4c0.1-0.3,0.2-0.6-0.1-0.8
					C20.6,5.1,20.5,5,20.3,5l0,0c-0.2-0.1-0.5-0.1-0.7-0.1c-0.1,0-0.2,0-0.3,0c-0.3,0-0.5,0-0.8-0.1c-0.2,0-0.4,0-0.7-0.1
					c-0.7-0.1-1.5,0-2.3,0.1c-0.2,0-0.4,0-0.6,0.1c-1.2,0.1-2,0.3-2.9,0.5c-0.8,0.2-1.6,0.5-2.7,0.9C9,6.5,8.6,6.7,8.1,6.9
					C7.9,7,7.7,7.1,7.6,7.3C7.5,7.4,7.5,7.4,7.4,7.5c0,0,0,0,0,0l0,0C7.3,7.6,7.1,7.7,7,7.9c-0.1,0-0.2-0.1-0.3-0.1
					c-0.1,0-0.2-0.1-0.3-0.1c-0.6-0.3-1-0.4-1.2-0.2c-0.1,0.1-0.1,0.2,0,0.4c0.1,0.3,0.3,0.5,0.4,0.7c0.1,0.2,0.2,0.3,0.2,0.5
					c0,0.2,0.1,0.3,0.2,0.5C6,9.7,6.1,9.8,6.2,9.9l0,0c0,0,0,0,0.1,0.1c0.1,0.1,0.2,0.2,0.3,0.2c0,0,0.1,0,0.1,0
					c0,0.3,0.2,0.4,0.3,0.6c0,0,0.1,0.1,0.1,0.1c0.1,0.1,0.1,0.1,0.2,0.2c0,0.1,0.1,0.1,0.1,0.2c0.1,0.1,0.2,0.2,0.3,0.4
					c0,0.2-0.1,0.4-0.2,0.6c-0.1,0.2-0.1,0.3-0.2,0.5c0,0.2-0.1,0.4,0,0.6c0,0.2,0.2,0.3,0.3,0.4l0,0C7.8,13.9,7.9,14,8.1,14
					c0,0,0,0,0,0c0.1,0.6,0.5,0.8,0.8,1.1c0.1,0.1,0.3,0.2,0.4,0.3c0.3,0.2,0.5,0.5,0.7,0.7c0.1,0.2,0.2,0.4,0.3,0.6
					c0,0,0,0.1,0,0.1c0,0.1,0,0.1,0,0.2c0,0.1,0,0.2,0,0.2c0,0.1,0,0.3,0.1,0.4l0,0c0.1,0.1,0.2,0.2,0.3,0.3c0.2,0,0.4,0,0.5,0
					c0,0,0.1,0,0.1,0c0.1,0,0.1,0,0.2,0c0,0.1,0,0.2,0,0.4c0,0.3,0,1.2,0.6,1.4c0.1,0,0.2,0,0.2,0c0,0,0,0.1,0,0.1
					c0.2,0.4,0.7,0.5,1,0.6h0c0.2,0,0.4,0.1,0.6,0c0.1,0,0.1-0.1,0.2-0.1c0,0,0.1,0,0.1-0.1c0.1,0,0.2,0,0.4,0
					c0.3,0,0.5,0.1,0.7,0.2c0,0,0.1,0,0.1,0c0.1,0,0.1,0,0.2,0.1c0,0,0.1,0,0.1,0.1c0.1,0,0.1,0.1,0.2,0.1c0,0.1,0,0.1,0,0.2
					c0,0.1,0,0.3,0.1,0.4c0,0.1,0,0.3,0.1,0.4c0,0.2,0.1,0.4,0.1,0.7c0,0.4,0.1,0.7,0.2,1.1c0,0.1,0,0.2,0.1,0.3c0,0.1,0,0.2,0,0.3
					c0,0,0,0.1,0,0.1c0,0-0.1,0-0.1,0c0,0-0.1,0-0.1,0c-0.2,0-0.3,0.1-0.4,0.1c-0.1,0-0.2,0.1-0.3,0.1c-0.2,0.1-0.4,0.1-0.6,0.2
					c-0.5,0.2-1.1,0.5-1.5,1c-0.3,0.3-0.4,0.6-0.4,0.8c0,0.3,0.2,0.6,0.4,0.7c0.3,0.2,0.6,0.2,0.9,0.3c0.3,0,0.5,0.1,0.8,0.1
					c0.1,0,0.2,0,0.3,0c0.6,0,1.3,0,2-0.1c0.4,0,0.7-0.1,1-0.2c0.3-0.1,0.6-0.2,0.8-0.3c0.1,0,0.2-0.1,0.2-0.1
					c0.2-0.1,0.4-0.1,0.5-0.2c0.1,0,0.2-0.1,0.3-0.1c0.3-0.1,0.6-0.3,0.8-0.5c0,0,0.1-0.1,0.2-0.1c0.2-0.1,0.4-0.3,0.4-0.5
					c0.1-0.3,0.1-0.6-0.1-0.8c-0.5-0.6-1.2-0.6-1.9-0.7h-0.1c-0.6,0-1.2,0-2,0.1c0-0.1,0-0.2-0.1-0.3c0-0.1,0-0.2,0-0.2
					c0-0.1,0-0.3-0.1-0.4c0-0.2-0.1-0.5-0.1-0.7c0-0.4-0.1-0.8-0.2-1.2v0c0,0,0.1,0,0.2,0.1c0.1,0,0.3,0.1,0.4,0.1
					c0,0.2,0.1,0.4,0.2,0.5c0.3,0.3,0.7,0.5,1.1,0.5c0.2,0,0.6,0,0.9-0.2c0.2,0.1,0.5,0.2,0.7,0.2l0,0c0.3,0,0.6-0.1,0.8-0.3
					c0.1-0.2,0.2-0.4,0.3-0.6c0-0.1,0-0.1,0.1-0.2c0.1-0.3,0.2-0.5,0.2-0.8c0-0.1,0-0.1,0-0.2c0.1-0.3,0.2-0.5,0.3-0.7
					c0,0,0-0.1,0.1-0.1c0,0,0-0.1,0.1-0.1c0.1-0.2,0.2-0.4,0.2-0.7C23,18.3,22.9,18.1,22.7,17.8L22.7,17.8z M21.3,21.7
					c-0.1,0.1-0.2,0.2-0.4,0.2c-0.1,0-0.1,0-0.2,0c0-0.1,0-0.1,0.1-0.2c0.2-0.1,0.4-0.1,0.5-0.4c0.1-0.1,0.1-0.3,0.1-0.4
					c0,0,0-0.3,0.1-0.3c0,0,0-0.1,0-0.1c-0.2-0.1-0.4,0.4-0.5,0.6c0,0-0.1,0-0.1,0c0-0.5,0-1.1,0.4-1.5c0.2-0.2,0.3-0.4,0.4-0.7
					c0-0.1,0.1-0.3,0.2-0.4c0,0,0.1,0.1,0.1,0.1c0,0,0,0.1,0.1,0.1c0,0,0,0,0.1,0c0.1-0.2,0-0.5-0.2-0.6c0,0,0-0.1,0.1-0.1
					c0,0,0.1,0,0.1,0c0.1,0,0.2,0.1,0.3,0.2c0.1,0.2,0.1,0.5,0,0.7c-0.2,0.4-0.4,0.8-0.5,1.2c-0.1,0.4-0.3,0.8-0.5,1.2
					C21.4,21.5,21.3,21.6,21.3,21.7z M20,21.1c0,0.2,0,0.4-0.1,0.6c-0.1,0.2-0.3,0.2-0.5,0.3c-0.3,0-0.8-0.1-1-0.3
					c-0.1-0.1-0.2-0.2-0.2-0.4c0-0.2,0.1-0.4,0.1-0.6c0.1-0.3,0-0.6-0.1-0.9c-0.1-0.2-0.1-0.4,0-0.6c0.1-0.2,0.2-0.3,0.4-0.5
					c0.1-0.1,0.2-0.2,0.4-0.2c0.2,0,0.4,0,0.6,0.1c0.2,0,0.3,0.1,0.4,0.2c0.1,0.1,0.2,0.3,0.2,0.5c0,0.2,0.1,0.3,0,0.5
					c0,0.1-0.2,0.3-0.2,0.4C19.9,20.5,20,20.8,20,21.1L20,21.1z M17.7,18.8c-0.3,0-0.7,0-1-0.1c0-0.2-0.1-0.4-0.1-0.6
					c0-0.1,0-0.1,0-0.2c0.1,0,0.3,0.1,0.5,0.1c0.3,0.1,0.6,0.1,0.8,0.2c0.1,0,0.4,0.1,0.6,0.1c-0.1,0.1-0.1,0.1-0.1,0.2
					C18.1,18.8,17.9,18.8,17.7,18.8L17.7,18.8z M17.4,24.2c0,0.1,0,0.1,0,0.2c0,0,0,0,0,0.1c0,0,0,0.1,0.1,0.1c0,0,0,0,0,0
					c0.1,0.1,0.3,0.1,0.2,0.3c0,0.2-0.2,0.3-0.4,0.3c-0.2,0-0.5,0-0.5-0.2c0-0.2,0.1-0.3,0.1-0.4c0-0.1,0-0.1,0-0.2
					c0-0.3-0.1-0.6-0.1-0.8c-0.1-0.4-0.2-0.7-0.2-1.1c-0.1-0.7-0.3-1.4-0.4-2.1c-0.1-0.7-0.3-1.4-0.4-2.1c-0.2-0.7-0.4-1.5-0.5-2.2
					c0,0,0,0,0,0c0,0,0,0,0,0c0-0.1-0.1-0.2-0.1-0.2c-0.1-0.1-0.1-0.2-0.2-0.3c-0.2-0.3-0.4-0.5-0.7-0.7c-0.2-0.1-0.3-0.2-0.5-0.4
					c0.1,0,0.2,0,0.2-0.1c0.2,0.2,0.4,0.3,0.5,0.5c0.2,0.1,0.3,0.3,0.5,0.4c0.1,0.1,0.3,0.2,0.4,0.2c0.1,0,0.2-0.1,0.3-0.3
					c0.1-0.2,0.2-0.3,0.3-0.5c0.1-0.2,0.2-0.4,0.3-0.6c0.1-0.2,0.2-0.4,0.3-0.6c0.1-0.2,0.2-0.3,0.2-0.5c0-0.1,0.1-0.2,0.2-0.3
					c0,0,0.4-1.2,0.8-1.7c0.2-0.2,0.5-0.6,0.4-0.9c0-0.1,0-0.1,0-0.1c0,0,0-0.1-0.1-0.1c-0.1-0.1-0.3-0.2-0.5-0.2
					c-0.2-0.1-0.4-0.1-0.6-0.1c-0.1,0-0.1,0-0.2,0c-0.1,0-0.3,0-0.4,0c-0.3,0-0.6,0.1-0.9,0.2C15.4,9.8,15,9.9,14.8,10
					c0.1-0.2,0.2-0.3,0.2-0.5c0-0.2,0.2-1.3-0.3-1c-0.3,0.2-0.5,0.5-0.9,0.6c-0.3,0.1-0.7,0-1,0.2c-0.2,0.1-0.4,0.3-0.3,0.6
					c-0.2,0-0.3,0.1-0.5,0.2c-0.2-0.1-0.3-0.2-0.4-0.2c-0.2-0.1-0.5-0.1-0.7-0.2c-0.3-0.1-0.6-0.1-0.9-0.1c0,0,0-0.1,0-0.1
					C10,9.2,10,9,10,8.7c0,0,0,0,0,0c0,0,0.2,0,0.3,0c0.1,0,0.3,0,0.4,0c0.4-0.1,0.7-0.1,1.1-0.2c0.3,0,0.7-0.1,1-0.2
					c0.2-0.1,0.5-0.1,0.7-0.2c0,0,0-0.1,0-0.1c-0.3,0.1-0.6,0.1-0.9,0.1c-0.3,0.1-0.7,0.1-1,0.1c-0.3,0-0.7,0.1-1,0.1
					c-0.2,0-0.4,0-0.5,0c0-0.1,0-0.2,0-0.3c0,0,0.1,0,0.1,0C11,8.1,11.9,8,12.7,7.8c1.7-0.3,3.3-0.6,4.9-1.1
					c0.5-0.1,0.9-0.2,1.4-0.4c0.2-0.1,0.4-0.1,0.5-0.2C19.7,6,19.8,5.9,20,5.9c0,0,0,0,0,0c0,0,0,0,0,0c0,0,0,0,0-0.1
					c0,0,0-0.1,0-0.1c-0.1-0.1-0.2-0.1-0.4-0.1c-0.1,0-0.2,0-0.3,0c-0.1,0-0.1,0-0.2,0c0,0,0,0,0,0c0.1,0,0.3,0,0.4,0
					c0.1,0,0.2,0,0.3,0c-0.1,0-0.2,0.1-0.3,0.1c-0.2,0-0.3,0.1-0.5,0.1c-0.4,0.1-0.8,0.2-1.2,0.3c-0.8,0.2-1.6,0.5-2.5,0.7
					c-0.4,0.1-0.8,0.2-1.2,0.2c-0.4,0.1-0.8,0.2-1.2,0.2c-0.9,0.2-1.7,0.3-2.6,0.4c-0.2,0-0.3,0-0.5,0.1c0-0.1-0.1-0.1-0.1-0.2
					C9.7,7.5,9.5,7.4,9.3,7.5C9.1,7.7,9,7.8,8.9,8C8.8,8,8.6,8,8.4,8c0,0-0.1,0-0.1,0C8.4,8,8.5,7.9,8.6,7.8
					c0.3-0.1,0.6-0.3,0.9-0.4c0.3-0.1,0.6-0.3,0.9-0.4c0.2-0.1,0.3-0.2,0.5-0.2c0.2-0.1,0.3-0.2,0.5-0.2c0,0,0,0,0,0
					c-0.2,0-0.3,0.1-0.5,0.1c-0.2,0-0.3,0.1-0.5,0.1c-0.3,0.1-0.7,0.2-1,0.4C9.1,7.3,8.8,7.4,8.5,7.6C8.3,7.6,8.2,7.7,8.1,7.8
					C8,7.8,7.8,7.9,7.8,8l0,0c0,0,0,0,0,0.1c0,0,0,0,0,0.1c0,0,0,0,0,0c0,0,0,0,0,0l0,0C7.8,8.2,7.9,8.3,8,8.3
					c0.2,0,0.4,0.1,0.6,0.1C8.4,8.5,8.1,8.6,7.9,8.8c0,0-0.1,0.1-0.1,0.1C7.8,8.8,7.7,8.6,7.6,8.5C7.5,8.4,7.4,8.3,7.4,8.2
					C7.3,8,7.4,7.9,7.6,7.8c0,0,0,0,0,0C7.8,7.6,8,7.4,8.2,7.3C8.5,7.1,8.9,7,9.3,6.8c0.8-0.4,1.7-0.7,2.6-0.9
					c0.9-0.2,1.8-0.4,2.7-0.5c0.5,0,0.9-0.1,1.4-0.1c0.5,0,0.9-0.1,1.3-0.1c0.5,0,1,0.1,1.6,0.1c0.5,0,0.9,0.1,1.4,0.1
					c0,0,0,0,0.1,0c0.1,0,0.2,0.1,0.2,0.1c0,0.4-0.2,0.8-0.3,1.2c-0.1,0.4-0.3,0.8-0.5,1.1c-0.4,0.7-0.7,1.5-1.1,2.2
					c-0.2,0.4-0.3,0.9-0.6,1.2c-0.2,0.4-0.4,0.7-0.6,1.1c-0.2,0.4-0.4,0.7-0.6,1.1c-0.2,0.4-0.4,0.7-0.6,1.1
					c-0.1,0.2-0.2,0.4-0.3,0.6c-0.1,0.2-0.2,0.3-0.2,0.5c0,0.1,0,0.2,0,0.3c0,0.3,0.1,0.6,0.2,0.9c0.1,0.4,0.2,0.7,0.2,1.1
					c0.1,0.7,0.3,1.4,0.4,2.1c0.1,0.4,0.1,0.7,0.2,1.1c0.1,0.3,0.1,0.7,0.2,1c0,0.4,0.1,0.7,0.2,1.1c0,0.2,0.1,0.4,0.1,0.6
					C17.4,24.1,17.4,24.2,17.4,24.2L17.4,24.2z M20.1,24.3c0.3,0,0.6,0,0.9,0.1c0.3,0.1,0.6,0.4,0.5,0.7c-0.1,0.2-0.4,0.4-0.6,0.6
					c-0.2,0.2-0.4,0.4-0.7,0.5c-0.3,0.1-0.5,0.2-0.8,0.3c-0.3,0.1-0.5,0.2-0.8,0.3C18.3,26.9,18,27,17.7,27
					c-0.6,0.1-1.2,0.2-1.7,0.2c-0.3,0-0.6,0-0.9,0c-0.1,0-0.2-0.1-0.2-0.1c0.4,0,0.8,0,1.2,0c0.6,0,1.2-0.1,1.8-0.3
					c0.3-0.1,0.6-0.2,1-0.3c0.3-0.1,0.5-0.1,0.8-0.2c0.3-0.1,0.7-0.3,1-0.5c0.3-0.2,0.6-0.4,0.7-0.6c0,0,0-0.1,0,0
					c-0.3,0.3-0.6,0.4-1,0.6c-0.3,0.1-0.6,0.3-0.9,0.4c0,0,0,0,0,0c-0.1,0-0.1,0-0.2,0c0.1,0,0.2-0.1,0.2-0.1
					c0.2-0.1,0.4-0.2,0.5-0.3c0.2-0.1,0.3-0.2,0.5-0.3c0,0,0-0.1,0-0.1c-0.3,0.2-0.7,0.3-1.1,0.4c-0.4,0.1-0.8,0.2-1.3,0.3
					c-0.4,0.1-0.8,0.1-1.2,0.2c-0.1,0-0.2,0-0.3,0c-0.2,0-0.3,0-0.5,0c-0.2,0-0.2-0.1-0.3-0.3c-0.2-0.2-0.5-0.2-0.7-0.2
					c-0.2,0-0.3,0-0.5,0c-0.1,0-0.1,0,0-0.1c0-0.1,0.1-0.1,0.1-0.1c0.2-0.2,0.5-0.4,0.8-0.5c0.2-0.1,0.3-0.2,0.5-0.2
					c0.2,0,0.3-0.1,0.5-0.2c0.1,0,0.2-0.1,0.3-0.1l0,0c-0.1,0.2-0.2,0.3-0.1,0.4c0.1,0.4,0.5,0.5,0.8,0.4c0.3,0,0.6-0.2,0.6-0.6
					c0-0.2-0.1-0.3-0.2-0.4c0,0-0.1-0.1-0.1-0.1c0.5-0.1,1-0.1,1.5-0.1C19.6,24.2,19.9,24.2,20.1,24.3L20.1,24.3z M13.4,19.7
					c0.1,0.2,0.2,0.2,0.4,0.2c0.1,0,0.2-0.1,0.4-0.1c0.2,0,0.3,0,0.5,0c0.2,0.1,0.4,0.1,0.7,0.2c0.1,0,0.2,0.1,0.3,0.1c0,0,0,0,0,0
					c-0.2-0.1-0.3-0.1-0.5-0.1c-0.3,0-0.8-0.2-1.1,0c-0.1,0-0.1,0.1-0.2,0.1c-0.1,0-0.3,0-0.4,0c-0.2,0-0.3-0.1-0.5-0.2
					c-0.2-0.1-0.3-0.1-0.4-0.3c0,0,0-0.1,0-0.2c0,0,0.1-0.1,0.1-0.1c0.2-0.1,0.4,0,0.5,0c0.5,0,0.4-0.7,0.2-1
					c-0.1-0.1-0.1-0.1-0.2-0.2c0.2,0,0.5,0,0.6,0.1c0.2,0.1,0.3,0.3,0.4,0.5c0.2,0.1,0.5,0.1,0.7,0.2c0.3,0.1,0.5,0.1,0.7,0.2
					c0,0.2,0.1,0.5,0.1,0.7c-0.1-0.1-0.2-0.1-0.3-0.1c-0.3-0.1-0.6-0.1-0.8-0.2c-0.3-0.1-0.6-0.1-0.8,0c-0.1,0-0.1,0-0.2,0.1
					c-0.1,0-0.2,0-0.2,0C13.5,19.6,13.5,19.6,13.4,19.7C13.4,19.6,13.4,19.6,13.4,19.7C13.4,19.6,13.4,19.6,13.4,19.7L13.4,19.7z
					 M12.1,19.3c0-0.1-0.1-0.2-0.1-0.3c-0.1-0.3,0-0.6-0.1-0.8c0-0.1,0-0.1,0-0.2c0-0.1,0-0.2,0-0.3c-0.1-0.2-0.1-0.3-0.2-0.5
					c-0.2-0.3-0.4-0.7-0.6-1c-0.2-0.2-0.4-0.6-0.1-0.7c0.1,0,0.2,0,0.3,0c0.1,0,0.2,0,0.3,0c0,0,0.1-0.1,0.1-0.1c0,0,0,0,0,0
					c0.1-0.1,0.1-0.2,0.1-0.3c0.1-0.2,0.3-0.2,0.4-0.1c0,0,0.1,0.1,0.1,0.2c0.1,0.2,0.2,0.4,0.2,0.6c0,0.3-0.1,0.5-0.1,0.8
					c0,0.2,0.1,0.4,0.1,0.6c0.1,0.2,0.1,0.5,0.2,0.8c0.1,0.2,0.2,0.4,0.3,0.5c0.2,0.2,0.3,0.3,0.4,0.6c0,0.2-0.2,0.3-0.4,0.2
					c-0.1,0-0.2,0-0.2,0c-0.2,0-0.2,0.1-0.4,0.3C12.4,19.4,12.2,19.5,12.1,19.3L12.1,19.3z M10.7,16.6c0-0.1,0-0.3,0-0.4
					c0.1,0.1,0.2,0.2,0.3,0.3c0.1,0.1,0.1,0.2,0.2,0.4c0.1,0.1,0.2,0.2,0.2,0.4c-0.1,0-0.3,0-0.4,0.1c0,0,0,0,0,0
					c0.1,0.1,0.2,0.1,0.3,0.1c0.1,0,0.1,0.1,0.2,0.2c-0.2,0-0.5,0.1-0.7,0c-0.1-0.1-0.1-0.3-0.1-0.5C10.7,17,10.7,16.8,10.7,16.6
					L10.7,16.6z M10.6,15.1c-0.1-0.1-0.2-0.3-0.2-0.4c0-0.4,0.2-0.6,0.6-0.6c0.1,0,0.2,0,0.4,0c0.1,0,0.3-0.1,0.4-0.2
					c0.3-0.2,0.5-0.4,0.7-0.6s0.4-0.5,0.6-0.7c0.1-0.1,0.2-0.3,0.5-0.3c0.2,0,0.4,0.1,0.5,0.2c0.1,0.1,0,0.3,0.1,0.4
					c0,0.1,0.1,0.2,0.2,0.2c0.4,0.3-0.2,0.7-0.4,0.8c-0.3,0.1-0.7,0-1,0.2c-0.1,0.1-0.2,0.2-0.3,0.3c0,0-0.1,0.1-0.1,0.1
					c0,0,0,0,0,0c0,0,0,0-0.1,0c0.2-0.2,0.4-0.4,0.6-0.6c0.1-0.1,0.2-0.1,0.4-0.1c0.1,0,0.3,0,0.4-0.1c0.2-0.1,0.2-0.3,0.2-0.5
					c0,0,0,0,0,0c-0.1,0.2-0.2,0.2-0.4,0.2c-0.1,0-0.3,0-0.4,0c-0.2,0-0.5,0.2-0.7,0.4c-0.1,0.1-0.2,0.3-0.4,0.4
					c-0.1,0.1-0.3,0.1-0.4,0.2c-0.2,0.1-0.3,0.3-0.4,0.5c-0.1,0-0.1,0-0.2,0C10.9,15,10.8,15.1,10.6,15.1L10.6,15.1z M8.5,14.3
					c0-0.1-0.1-0.3-0.1-0.4c0,0,0,0,0-0.1c0,0,0,0,0,0c0.1,0,0.2,0,0.3,0c0.1,0,0.1-0.1,0.2-0.1c0.1-0.2,0.2-0.7,0.6-0.6
					c0.1,0,0.2,0.2,0.2,0.2c0,0,0.1,0.1,0.1,0.1c-0.1,0.1-0.2,0.3-0.2,0.4c0,0.4,0.2,0.6,0.4,0.9c0,0.1,0,0.1,0.1,0.2
					c-0.2-0.2-0.5-0.4-0.8-0.6c0,0,0,0,0,0c0.2,0.3,0.4,0.6,0.6,0.8c0.1,0.1,0.2,0.2,0.2,0.4c0,0,0,0,0,0.1
					c-0.4-0.4-0.8-0.8-1.3-1.1C8.7,14.6,8.6,14.4,8.5,14.3L8.5,14.3z M8.3,12.6C8.3,12.6,8.2,12.5,8.3,12.6C8,12.7,8,12.9,8,13.1
					c0,0.1,0.1,0.2,0.2,0.3c0,0,0.1,0.1,0.1,0.2c-0.1,0-0.1,0.1-0.1,0.1c0,0,0,0,0,0c-0.1,0-0.2-0.1-0.3-0.2
					c-0.1-0.1-0.2-0.2-0.1-0.4c0-0.4,0.2-0.7,0.3-1.1c0.1-0.4,0-0.7,0-1.1c0-0.2-0.1-0.4,0-0.6c0-0.1,0.1-0.2,0.2-0.2
					c0.1,0,0.2,0.1,0.3,0.1c0.1,0,0.2,0,0.4,0c0.2-0.1,0.3-0.2,0.5-0.2c0.2,0,0.2,0.4,0.1,0.6c-0.1,0.2-0.2,0.3-0.3,0.4
					c-0.3,0.6-0.3,1.4-0.1,1.9C9.1,12.9,9,12.9,9,13c-0.1,0.1-0.1,0.3-0.2,0.4c0,0,0,0,0,0c0-0.1-0.2-0.3-0.3-0.4
					C8.4,13,8.3,13,8.3,12.9C8.2,12.8,8.3,12.7,8.3,12.6L8.3,12.6z M6.8,9.6c0,0.1,0.1,0.1,0.2,0.2l0,0c-0.2,0-0.3-0.1-0.4-0.2
					C6.3,9.4,6.2,9.3,6.2,9.1c0-0.2-0.1-0.3-0.2-0.5C5.9,8.4,5.7,8.2,5.6,8.1c0-0.1-0.1-0.2-0.1-0.2c0,0,0,0,0-0.1c0,0,0.1,0,0.1,0
					C5.8,7.8,6,7.9,6.2,8c0.2,0.1,0.4,0.1,0.5,0.2c0.1,0.1,0.3,0.1,0.4,0.2c0,0,0,0,0,0c0,0,0,0.1,0,0.1c0,0,0,0,0,0
					c0,0,0,0.1,0,0.1C7.4,8.8,7.4,8.9,7.5,9C7.6,9,7.6,9.1,7.7,9.2c0,0-0.1,0.1-0.1,0.1C7.5,9.4,7.5,9.5,7.5,9.6c0,0,0,0,0,0
					c-0.1,0-0.1,0-0.2-0.1C7.1,9.5,7.1,9.4,7,9.4c-0.1,0-0.1-0.1-0.2-0.1c-0.1,0-0.1-0.1-0.2-0.1c0,0-0.1,0-0.1,0
					C6.5,9.3,6.7,9.5,6.8,9.6L6.8,9.6z M7.1,10.2c0-0.1,0.1-0.1,0.3-0.1c0.1,0,0.2,0,0.3-0.1c0.1-0.1,0.1-0.3,0.2-0.4l0,0
					c0,0.1,0.1,0.2,0.1,0.2c-0.2,0.2-0.3,0.5-0.2,0.7c0,0.1,0,0.2,0,0.3l0,0h0c0,0-0.1,0-0.1,0c0,0-0.1,0-0.1,0
					c-0.1-0.1-0.2-0.2-0.3-0.3C7.1,10.4,7.1,10.3,7.1,10.2L7.1,10.2z M15.4,12.8c-0.1,0-0.1,0-0.2,0c-0.1,0-0.1,0-0.2,0
					c-0.1,0-0.3,0-0.4,0.1c0,0,0,0,0,0c-0.1-0.1-0.1-0.1-0.1-0.2c0-0.1,0-0.2,0-0.2c0.1-0.1,0.1-0.2,0.3-0.3
					c0.2-0.1,0.4-0.1,0.6-0.1c0.2,0,0.4,0.1,0.6,0.2c0.2,0.1,0.4,0.1,0.6,0.1c0,0,0.2,0,0.3,0c0.1,0.1-0.2,0.2-0.3,0.2
					c-0.2,0.1-0.3,0.1-0.5,0.2c-0.2,0.1-0.4,0.2-0.6,0.4c-0.1,0.1-0.4,0.2-0.5,0.1c0,0,0,0,0,0c0,0,0,0,0-0.1c0.1,0,0.3,0,0.3-0.1
					C15.2,13,15.3,12.9,15.4,12.8C15.5,12.8,15.4,12.8,15.4,12.8L15.4,12.8z M14.6,9.5c-0.2,0.3-0.4,0.9-0.9,1c0,0,0,0,0-0.1
					c0,0,0.1-0.1,0.1-0.1c0.1-0.1,0.1-0.2,0.1-0.3c0,0,0-0.1-0.1,0c-0.1,0.1-0.1,0.1-0.2,0.2c0,0-0.1,0-0.1,0c0,0-0.1,0-0.1,0
					c0,0-0.1,0-0.1,0c-0.1,0-0.2,0-0.3,0c-0.1,0-0.2-0.2-0.4-0.3c0,0,0-0.1,0-0.1c0-0.3,0.4-0.3,0.6-0.4c0.4-0.1,0.8-0.3,1.1-0.5
					c0.1-0.1,0.2-0.1,0.2-0.2c0.1-0.1,0.1,0,0.1,0.1C14.8,9.1,14.7,9.3,14.6,9.5L14.6,9.5z M13,10.6c0.2,0,0.5,0,0.5,0.2
					c0,0.4-0.5,0.5-0.8,0.7c-0.2,0.2-0.3,0.6-0.4,0.9c-0.1,0.2-0.1,0.4-0.2,0.6c0,0.1,0,0.3-0.1,0.4c-0.1,0.1-0.1,0.1-0.2,0.2
					c0-0.1-0.1-0.1-0.1-0.1c0.1-0.2,0.1-0.3,0.2-0.5c0-0.2,0-0.3,0.1-0.5c0-0.1,0-0.1-0.1-0.1c-0.1,0.1-0.1,0.3-0.2,0.5
					c-0.1,0.2-0.2,0.3-0.3,0.5c-0.1,0-0.1,0-0.2,0c-0.2,0-0.3,0.2-0.6,0.2c-0.1,0-0.2-0.1-0.3-0.1c-0.1-0.1-0.1-0.2-0.1-0.3
					c0-0.1,0.1-0.3,0.2-0.4c0.1-0.2,0.2-0.2,0.3-0.3c0.2-0.1,0.3-0.2,0.4-0.4c0.3-0.3,0.5-0.5,0.7-0.9c0.1-0.3,0.3-1.1,0.7-0.7
					C12.8,10.4,12.8,10.5,13,10.6L13,10.6z M11.5,13.7C11.5,13.7,11.5,13.7,11.5,13.7c-0.4,0.2-0.8,0.1-1.1,0.3
					c-0.1,0.1-0.2,0.3-0.3,0.4c0,0,0,0,0-0.1C10,14.2,10,14.1,10,13.9c0-0.1,0.2-0.4,0.3-0.4c0.1,0,0.3,0.1,0.4,0.1
					c0.1,0,0.2-0.1,0.3-0.1C11.3,13.4,11.5,13.5,11.5,13.7L11.5,13.7z M10.9,11.8c0,0-0.1,0.1-0.1,0.1c0,0,0,0,0,0
					c-0.3-0.3-0.6-0.5-0.8-0.7c-0.1-0.1-0.2-0.2-0.3-0.3c0-0.1,0.1-0.1,0.1-0.2c0.2,0.2,0.4,0.4,0.6,0.5
					C10.5,11.4,10.7,11.6,10.9,11.8C10.9,11.7,10.9,11.8,10.9,11.8L10.9,11.8z M10.1,12.5L10.1,12.5C10,12.7,9.9,12.8,9.9,13
					c0,0,0,0,0,0c-0.1-0.2-0.3-0.5,0-0.6c0,0,0.1,0,0.2,0c0,0,0,0,0,0.1C10.1,12.4,10.1,12.5,10.1,12.5L10.1,12.5z M9.6,11.7
					C9.6,11.7,9.6,11.7,9.6,11.7c-0.1,0.1-0.1,0.2-0.2,0.2c0,0-0.1,0.1-0.1,0.1c0-0.1,0-0.3,0-0.4c0-0.1,0-0.3,0.1-0.4
					c0,0,0,0,0,0.1c0,0.1,0.1,0.1,0.1,0.2C9.6,11.6,9.6,11.7,9.6,11.7z M9.7,8.6c0,0.2,0,0.4,0,0.6c0,0.1,0,0.1,0,0.2
					c0,0-0.1,0.1,0,0.1c0,0,0,0,0,0c0,0,0,0-0.1,0c0-0.2,0-0.4-0.1-0.6c0,0-0.1,0-0.1,0c0,0,0,0.1,0,0.1c0,0.1,0,0.1,0,0.2
					c0,0.1,0,0.2-0.1,0.3c0,0,0,0,0,0.1c0,0,0,0,0,0C9,9.7,8.9,9.8,8.9,9.8c-0.1,0-0.2,0-0.3-0.1c-0.1,0-0.1-0.1-0.2-0.1
					C8.2,9.6,8.1,9.4,8.1,9.2c0-0.3,0.3-0.4,0.5-0.5C8.9,8.5,9.1,8.3,9.3,8c0-0.1,0.1-0.2,0.1-0.2c0.2-0.1,0.2,0,0.3,0.2
					C9.8,8.2,9.7,8.4,9.7,8.6L9.7,8.6z M13.9,14.8C13.9,14.8,13.9,14.8,13.9,14.8L13.9,14.8C13.9,14.8,13.9,14.8,13.9,14.8
					c0.3,0.1,0.5,0.3,0.6,0.5c0.1,0.1,0.2,0.3,0.3,0.4c0,0,0,0.1,0.1,0.1c-0.1,0-0.2,0-0.4-0.1c-0.1,0-0.2-0.1-0.3-0.1
					c-0.1-0.2-0.3-0.4-0.6-0.4c0,0-0.1,0-0.1,0l0,0c0,0,0.1-0.1,0.1-0.2C13.7,14.9,13.8,14.9,13.9,14.8
					C13.8,14.8,13.8,14.8,13.9,14.8C13.9,14.8,13.9,14.8,13.9,14.8L13.9,14.8L13.9,14.8z M14.5,16.9c-0.1,0-0.3-0.1-0.4-0.2
					c0-0.1-0.1-0.2-0.2-0.2c-0.1-0.1-0.2-0.2-0.3-0.3c-0.3-0.2-0.7-0.1-0.9,0.1c0-0.1,0-0.3,0-0.4c0,0,0,0,0,0c0,0,0,0,0,0
					c0-0.1,0.2-0.1,0.2-0.2c0.1-0.1,0.2-0.1,0.4-0.2c0.3,0,0.5,0,0.6,0.3c0.1,0.2,0.2,0.3,0.5,0.4c0.3,0.1,0.5,0.1,0.8,0.2
					c0,0.2,0.1,0.5,0.2,0.7c0,0,0,0,0,0.1C15.1,17.1,14.8,17,14.5,16.9L14.5,16.9z M15.5,17.7c0,0.2,0.1,0.3,0.1,0.5
					c0,0.1,0,0.3,0.1,0.4c-0.3-0.1-0.6-0.1-0.8-0.2c-0.2,0-0.3-0.1-0.5-0.2c0,0-0.1,0-0.1-0.1c-0.2-0.2-0.4-0.3-0.6-0.3
					c-0.1,0-0.3,0-0.5,0.1c0-0.1-0.1-0.1-0.1-0.2c-0.1-0.3-0.2-0.6-0.3-0.9c0,0,0-0.1,0-0.1c0.1-0.2,0.4-0.3,0.6-0.2
					c0.2,0.1,0.4,0.3,0.5,0.6c0.1,0.2,0.4,0.3,0.6,0.4c0.2,0.1,0.5,0.2,0.8,0.3C15.4,17.7,15.4,17.7,15.5,17.7z M20.3,15.4
					c0,0.1-0.1,0.2-0.2,0.3c0,0-0.1,0.1-0.2,0.2c0,0-0.1,0-0.1,0.1c-0.1-0.1-0.1-0.1-0.2-0.2c0.1-0.1,0.2-0.3,0.3-0.4
					c0.1-0.2,0.1-0.5,0.1-0.8c0-0.1-0.1-0.1-0.1,0c-0.1,0.2-0.1,0.4-0.2,0.5c-0.1,0.1-0.2,0.3-0.3,0.4c0,0-0.1,0-0.1,0.1
					c-0.2-0.1-0.5-0.1-0.7-0.1c-0.1-0.1-0.2-0.1-0.3-0.2c-0.1-0.2,0-0.5,0.1-0.6c0.1-0.1,0.2-0.2,0.3-0.3c0.1-0.1,0.2-0.3,0.2-0.5
					c0.1-0.4,0-0.8,0-1.2c0-0.1,0-0.4,0.1-0.5c0.2-0.1,0.4,0.1,0.5,0.1c0.2,0,0.3-0.1,0.5-0.1c0.3,0,0.3,0.2,0.3,0.4
					c0,0.2-0.1,0.4-0.2,0.6c-0.1,0.2-0.1,0.3-0.1,0.5c0,0.4,0.2,0.7,0.2,1.1C20.5,15,20.4,15.2,20.3,15.4z M18.7,16.6
					c-0.3,0-0.7-0.2-1-0.3c-0.3-0.1-0.6-0.2-1-0.3c-0.1,0-0.3,0-0.4-0.1c-0.1,0-0.2-0.1-0.3-0.1c0-0.1,0-0.1,0-0.2
					c0.1-0.2,0.2-0.3,0.3-0.5c0,0,0,0,0,0c0.1,0.2,0.3,0.3,0.5,0.4c0.3,0.1,0.7,0.2,1,0.2c0.4,0,0.7,0,1.1,0c0.2,0,0.4,0.1,0.6,0.2
					c0.1,0,0.2,0.1,0.2,0.2c-0.1,0.1-0.2,0.1-0.3,0.2c0,0,0,0,0,0C19.2,16.6,19,16.6,18.7,16.6z M18.7,17.5
					c-0.1,0.1-0.1,0.2-0.2,0.3c-0.4,0-0.8-0.1-1.2-0.3c-0.2-0.1-0.4-0.1-0.6-0.2c-0.1,0-0.3,0-0.4-0.1c0,0,0,0-0.1,0
					c-0.1-0.3-0.1-0.5-0.2-0.8c0,0,0,0,0,0c0,0,0.1,0,0.1,0c0.3,0.1,0.6,0.2,0.9,0.3c0.3,0.1,0.6,0.2,0.8,0.3
					C18.3,17.2,18.5,17.3,18.7,17.5L18.7,17.5z M19.1,10.8c0,0.1,0,0.2-0.1,0.3c0,0.1-0.1,0.2-0.1,0.3c0,0.1,0,0.3,0,0.4
					c0,0-0.1,0.1-0.1,0.1c-0.2,0.3-0.2,0.7-0.1,1c0,0.1,0,0.1,0,0.2c0,0,0,0.1,0,0.1c0,0.2,0,0.4,0,0.5c0,0.1,0,0.2-0.1,0.3
					c0,0.1-0.1,0.1-0.2,0.1c0,0,0,0-0.1,0c-0.3,0.2-0.5,0.6-0.5,1c0,0,0,0.1,0,0.1c0,0-0.1,0-0.1,0c-0.2,0-0.4,0-0.6-0.1h0
					c0,0-0.1,0-0.1,0c-0.1,0-0.2-0.1-0.3-0.1c0,0,0,0-0.1-0.1c-0.1,0-0.1-0.1-0.2-0.1c0-0.1,0.1-0.2,0.1-0.2
					c0.1-0.3,0.3-0.5,0.4-0.8c0.2-0.4,0.5-0.9,0.7-1.3l0.1-0.1c0.2-0.3,0.3-0.6,0.5-0.9c0.2-0.3,0.3-0.5,0.4-0.8
					c0-0.1,0.1-0.2,0.1-0.3C19.1,10.5,19.1,10.7,19.1,10.8z M20.7,10.1c-0.1,0.3-0.2,0.6-0.3,0.9c0,0.1,0,0.3,0,0.4
					c0,0.1,0,0.3,0,0.4c0,0-0.1,0-0.1,0c-0.1,0-0.1,0-0.2,0c0-0.1,0.1-0.2,0.1-0.2c0-0.2,0-0.4-0.1-0.6c0,0,0,0,0,0
					c-0.1,0.2-0.1,0.6-0.3,0.7c-0.1,0-0.2,0-0.3,0c0,0,0,0-0.1,0c0,0-0.1,0-0.1,0c0,0,0,0,0,0c0-0.1,0-0.2,0-0.2
					c0-0.1,0.1-0.3,0.1-0.4c0.1-0.3,0.1-0.6,0.1-0.8c0-0.3,0-0.6,0-0.9c0-0.1,0.1-0.4,0.3-0.3c0.1,0,0.2,0.1,0.4,0.2
					c0.1,0,0.2,0,0.3,0c0.1,0,0.3-0.1,0.4,0C21.1,9.5,20.8,10,20.7,10.1L20.7,10.1z M20.8,8.9L20.8,8.9C20.7,8.9,20.7,8.9,20.8,8.9
					c0-0.2,0-0.4-0.1-0.6c0,0-0.1-0.1-0.1,0c-0.1,0.1-0.1,0.3-0.1,0.4c0,0.1-0.1,0.2-0.2,0.3c-0.1,0-0.2,0-0.3-0.1
					c-0.1,0-0.2-0.1-0.3,0c0.1-0.3,0.2-0.5,0.4-0.8c0.2-0.4,0.4-0.8,0.5-1.3l0,0c0.1,0,0.2,0,0.3,0c0,0.1,0,0.3,0,0.3
					c0,0.2,0,0.4,0,0.6C20.9,8.1,21.1,8.6,20.8,8.9z M17,20.4c0-0.1,0-0.1,0-0.2c0-0.3-0.1-0.6-0.2-0.9c0.3,0.1,0.7,0.1,1,0.2
					c0,0.1,0.1,0.3,0.1,0.4c0,0,0,0,0,0.1c0,0.2-0.1,0.4-0.2,0.5c-0.1,0-0.2,0-0.3-0.1C17.3,20.4,17.1,20.4,17,20.4L17,20.4z
					 M20.3,18.2c-0.1,0-0.1-0.1-0.2-0.1c-0.3,0-0.5,0.1-0.7,0.1c-0.1,0-0.2,0-0.3,0c-0.1-0.1-0.1-0.1-0.1-0.3c0-0.1,0.1-0.3,0.2-0.4
					c0.2-0.2,0.3-0.4,0.5-0.7c0.2-0.2,0.4-0.5,0.8-0.4c0.2,0.1,0.5,0.2,0.7,0.3c0.1,0.1,0.3,0.1,0.4,0.2c0.1,0.1,0.2,0.2,0.3,0.3
					c0.1,0.2,0.2,0.3,0.1,0.5c0,0.1-0.1,0.2-0.2,0.3c-0.1,0.1-0.2,0.2-0.3,0.3c-0.1,0.1-0.1,0.1-0.2,0.2c0,0.1-0.1,0.1-0.1,0.2
					c0,0,0,0,0,0c0-0.1-0.1-0.2-0.1-0.3c0-0.1,0.2-0.3,0.3-0.4c0.1-0.1,0.1-0.2,0.2-0.2c0.1-0.2,0.2-0.4,0-0.6
					c-0.2-0.1-0.4-0.1-0.6-0.1c0,0,0,0,0,0c0.2,0.1,0.3,0.3,0.2,0.5c-0.1,0.2-0.3,0.3-0.4,0.4C20.5,18.2,20.4,18.2,20.3,18.2
					L20.3,18.2z"/>
				<path class="st1" d="M19.8,19.4c0,0.2,0,0.3-0.2,0.4c-0.1,0.1-0.1,0.1-0.2,0.2c-0.1,0.2-0.2,0.4-0.2,0.7c0,0.2,0.1,0.4,0,0.5
					c-0.1,0.1-0.1,0.1-0.3,0.1c-0.1,0-0.2,0-0.3-0.1c-0.1-0.1-0.2,0-0.1,0.1c0.1,0.1,0.1,0.2,0.3,0.3c0.1,0.1,0.2,0.2,0.4,0.2
					c0.3,0,0.5-0.3,0.6-0.5c0-0.2,0-0.3,0-0.5c0-0.2,0-0.4,0.1-0.6C20,19.9,20,19.7,19.8,19.4L19.8,19.4L19.8,19.4z"/>
				<path class="st1" d="M12.5,18.7c-0.1-0.1,0-0.3,0-0.3c0-0.1,0-0.3-0.1-0.4c-0.1-0.3-0.2-0.5-0.4-0.8c0,0-0.1,0-0.1,0
					c0.1,0.3,0.1,0.7,0.1,1c0,0.2,0,0.6,0.2,0.7C12.5,19,12.6,18.8,12.5,18.7L12.5,18.7z"/>
				<path class="st1" d="M11.5,16C11.5,16,11.5,16,11.5,16c-0.1-0.1-0.1-0.2-0.2-0.3c0-0.1-0.1-0.1-0.2,0c-0.1,0-0.1,0.1,0,0.2
					c0,0.1,0.1,0.1,0.2,0.2c0,0,0.1,0,0.1,0c0,0,0.1,0,0.1,0.1c0,0,0.1,0,0.1-0.1C11.6,16.1,11.6,16.1,11.5,16L11.5,16z"/>
				<path class="st1" d="M12.4,11.2C12.4,11.2,12.4,11.3,12.4,11.2c0.1,0,0.1,0,0.1,0c0,0,0.1,0,0.1-0.1c0.1,0,0.2,0,0.2-0.1
					c0.2-0.1,0.1-0.4-0.1-0.3c0,0-0.1,0-0.1,0.1c0,0-0.1,0.1-0.1,0.1S12.5,11.1,12.4,11.2C12.5,11.2,12.5,11.2,12.4,11.2L12.4,11.2z
					"/>
				<path class="st1" d="M8.4,11.1c0.1-0.2,0.1-0.4,0.1-0.6c0-0.2-0.3-0.2-0.3,0c0,0.1,0,0.2,0,0.3C8.3,10.9,8.3,10.9,8.4,11.1
					C8.4,11.1,8.4,11.1,8.4,11.1L8.4,11.1z"/>
				<path class="st1" d="M19.9,12.8c0,0.1,0,0.1,0,0.2c0,0.1,0,0.1,0,0.2c0,0,0,0.1,0.1,0c0-0.1,0.1-0.1,0.1-0.2c0-0.1,0-0.2,0-0.2
					C20.2,12.6,19.9,12.6,19.9,12.8z"/>
				<path class="st1" d="M20.5,9.6c-0.1,0-0.1,0.1-0.1,0.1c0,0.1,0,0.2,0,0.2c0,0,0,0.1,0,0c0.1,0,0.2-0.2,0.2-0.3
					C20.6,9.6,20.6,9.6,20.5,9.6L20.5,9.6z"/>
				<path class="st1" d="M19.3,19c0,0,0.1,0.1,0.1,0.1c0.1,0,0.1,0.1,0.2,0c0.1-0.1,0.1-0.1,0-0.2c0-0.1-0.1-0.1-0.2-0.1
					c-0.1,0-0.2,0-0.2,0c0,0,0,0,0,0.1C19.2,18.9,19.2,19,19.3,19L19.3,19z"/>
				<path class="st1" d="M18.7,7.2C18.7,7.2,18.8,7.2,18.7,7.2c0.1,0.1,0.1,0.1,0.2,0.1c0,0,0,0.1,0,0.1c0,0.1,0,0.1,0,0.2
					c-0.1,0.2-0.1,0.4-0.1,0.6c0,0.1,0.1,0.1,0.1,0.1c0.2-0.2,0.4-0.5,0.5-0.8c0.1-0.2,0.1-0.3,0.2-0.5c0.1-0.1,0.2-0.2,0.3-0.4
					C20,6.5,20,6.5,20.1,6.4c0.1-0.1,0-0.2-0.1-0.2c-0.2,0-0.4,0.2-0.6,0.2c-0.2,0.1-0.4,0.2-0.6,0.3c-0.2,0.1-0.5,0.2-0.7,0.3
					c-0.2,0.1-0.5,0.2-0.8,0.3c0,0,0,0,0,0c0.2,0,0.5,0,0.7-0.1C18.3,7.3,18.5,7.2,18.7,7.2L18.7,7.2L18.7,7.2z"/>
				<path class="st1" d="M17.5,5.5c-0.5,0.1-1,0.1-1.5,0.1c-0.5,0.1-1,0.2-1.5,0.4c0,0,0,0.1,0,0.1c0.5,0,1-0.1,1.5-0.2
					c0.5,0,1.1,0,1.5-0.2C17.7,5.6,17.6,5.5,17.5,5.5L17.5,5.5z"/>
				<path class="st1" d="M17.2,25c0.1,0.1,0.2,0.1,0.3,0.1c0.1,0,0.1-0.2,0-0.2c0,0-0.1,0-0.1,0l0,0c0,0,0,0,0-0.1c0,0,0,0,0,0l0,0
					l0,0c0,0,0,0,0,0c0,0-0.1,0-0.2,0C17.1,24.7,17.1,24.9,17.2,25L17.2,25z"/>
			</g>
			<g>
				
					<linearGradient id="SVGID_1_" gradientUnits="userSpaceOnUse" x1="11.4537" y1="22.2164" x2="13.2437" y2="18.078" gradientTransform="matrix(1 0 0 -1 0 34)">
					<stop  offset="0" style="stop-color:#FCF0D8"/>
					<stop  offset="1" style="stop-color:#CEAD82"/>
				</linearGradient>
				<path class="st2" d="M9.9,9.6c0,0,0,0.1,0,0.2c0,0.1,0,0.2,0,0.3c0,0.2-0.1,0.4-0.2,0.6c0,0,0.1,0.2,0.4,0.3s0.8,0.7,0.8,0.7
					s0.6-0.2,0.8-0.9l0.2-0.7c0,0-0.3-0.2-0.3-0.2c-0.2-0.1-0.3-0.2-0.4-0.2c-0.3-0.1-0.7-0.1-1.1-0.1C10.1,9.5,10,9.5,9.9,9.6
					C9.9,9.5,9.9,9.6,9.9,9.6L9.9,9.6z"/>
				
					<linearGradient id="SVGID_00000183208448525505084630000001526787061879305370_" gradientUnits="userSpaceOnUse" x1="15.0117" y1="23.7647" x2="16.8099" y2="19.6263" gradientTransform="matrix(1 0 0 -1 0 34)">
					<stop  offset="0" style="stop-color:#FCF0D8"/>
					<stop  offset="1" style="stop-color:#CEAD82"/>
				</linearGradient>
				<path style="fill:url(#SVGID_00000183208448525505084630000001526787061879305370_);" d="M14.8,10c0,0-0.1,0.1-0.1,0.1
					c-0.2,0.2-0.4,0.5-0.6,0.7c-0.3,0.2-0.6,0.4-0.8,0.6c-0.2,0.2-0.6,0.5-0.8,1.3c0,0,0.4-0.7,0.9-0.7c0.4,0,0.6,0.1,0.6,0.1
					c0.1,0,0.4-0.4,0.7-0.3c0.4,0,1.2,0.3,1.5,0.3c0.3,0,0.6,0.1,0.6,0.3c0,0.1-0.1,0.3-0.3,0.4c-0.2,0.1-0.5,0.3-0.8,0.4
					c-0.2,0.2-0.9,0.3-1,0.3c0,0,0,0.3-0.2,0.4c-0.2,0.1-0.5,0.3-0.5,0.3l0.5,0.5L15,15c0,0,0.1,0.1,0.2,0.1c0.5,0.4,0.8-0.2,1-0.6
					c0.4-0.8,0.9-1.6,1.3-2.4c0.2-0.4,0.4-0.8,0.7-1.2c0.1-0.2,0.4-0.6,0.3-0.9c-0.1-0.2,0-0.4-0.6-0.5s-0.8-0.2-1.4,0
					c-0.3,0.1-0.6,0-0.8,0.1c-0.2,0-0.3,0.1-0.5,0.2c-0.1,0.1-0.2,0.1-0.3,0.2C14.9,9.9,14.8,10,14.8,10L14.8,10z"/>
			</g>
		</g>
	</g>
</g>
</svg>
