<svg width="69" height="63" viewBox="0 0 69 63" fill="none" xmlns="http://www.w3.org/2000/svg">
<path d="M20.125 28.875H25.875V34.125H20.125V28.875ZM20.125 39.375H25.875V44.625H20.125V39.375ZM31.625 28.875H37.375V34.125H31.625V28.875ZM31.625 39.375H37.375V44.625H31.625V39.375ZM43.125 28.875H48.875V34.125H43.125V28.875ZM43.125 39.375H48.875V44.625H43.125V39.375Z" fill="#545454"/>
<path d="M14.375 57.75H54.625C57.7961 57.75 60.375 55.3954 60.375 52.5V15.75C60.375 12.8546 57.7961 10.5 54.625 10.5H48.875V5.25H43.125V10.5H25.875V5.25H20.125V10.5H14.375C11.2039 10.5 8.625 12.8546 8.625 15.75V52.5C8.625 55.3954 11.2039 57.75 14.375 57.75ZM54.625 21L54.6279 52.5H14.375V21H54.625Z" fill="#545454"/>
</svg>
